<svg xmlns="http://www.w3.org/2000/svg" xmlns:xlink="http://www.w3.org/1999/xlink" width="8" height="8" viewBox="0 0 8 8"><defs><style>.a{fill:#bfc7d9;}.b{clip-path:url(#a);}.c{fill:#ff7d7d;}</style><clipPath id="a"><rect class="a" width="8" height="8"/></clipPath></defs><g class="b"><g transform="translate(-1.66 0)"><rect class="c" width="2" height="10" rx="1" transform="translate(8.66 -2) rotate(60)"/><rect class="c" width="2" height="10" rx="1" transform="translate(8.66 2) rotate(60)"/><rect class="c" width="2" height="10" rx="1" transform="translate(8.66 6) rotate(60)"/><rect class="c" width="2" height="10" rx="1" transform="translate(8.66 10) rotate(60)"/><rect class="c" width="2" height="10" rx="1" transform="translate(8.66 14) rotate(60)"/><rect class="c" width="2" height="10" rx="1" transform="translate(8.66 18) rotate(60)"/><rect class="c" width="2" height="10" rx="1" transform="translate(8.66 22) rotate(60)"/><rect class="c" width="2" height="10" rx="1" transform="translate(8.66 26) rotate(60)"/><rect class="c" width="2" height="10" rx="1" transform="translate(8.66 30) rotate(60)"/><rect class="c" width="2" height="10" rx="1" transform="translate(8.66 34) rotate(60)"/><rect class="c" width="2" height="10" rx="1" transform="translate(8.66 38) rotate(60)"/><rect class="c" width="2" height="10" rx="1" transform="translate(8.66 42) rotate(60)"/><rect class="c" width="2" height="10" rx="1" transform="translate(8.66 46) rotate(60)"/><rect class="c" width="2" height="10" rx="1" transform="translate(8.66 50.28) rotate(60)"/><rect class="c" width="2" height="10" rx="1" transform="translate(8.66 54.28) rotate(60)"/><rect class="c" width="2" height="10" rx="1" transform="translate(8.66 58.28) rotate(60)"/><rect class="c" width="2" height="10" rx="1" transform="translate(8.66 62.28) rotate(60)"/><rect class="c" width="2" height="10" rx="1" transform="translate(8.66 66.28) rotate(60)"/><rect class="c" width="2" height="10" rx="1" transform="translate(8.66 70.28) rotate(60)"/><rect class="c" width="2" height="10" rx="1" transform="translate(8.66 74.28) rotate(60)"/><rect class="c" width="2" height="10" rx="1" transform="translate(8.66 102) rotate(60)"/><rect class="c" width="2" height="10" rx="1" transform="translate(8.66 78.28) rotate(60)"/><rect class="c" width="2" height="10" rx="1" transform="translate(8.66 106) rotate(60)"/><rect class="c" width="2" height="10" rx="1" transform="translate(8.66 82.28) rotate(60)"/><rect class="c" width="2" height="10" rx="1" transform="translate(8.66 110) rotate(60)"/><rect class="c" width="2" height="10" rx="1" transform="translate(8.66 86.28) rotate(60)"/><rect class="c" width="2" height="10" rx="1" transform="translate(8.66 114) rotate(60)"/><rect class="c" width="2" height="10" rx="1" transform="translate(8.66 90.28) rotate(60)"/><rect class="c" width="2" height="10" rx="1" transform="translate(8.66 118) rotate(60)"/><rect class="c" width="2" height="10" rx="1" transform="translate(8.66 94.28) rotate(60)"/><rect class="c" width="2" height="10" rx="1" transform="translate(8.66 122) rotate(60)"/><rect class="c" width="2" height="10" rx="1" transform="translate(8.66 98.28) rotate(60)"/><rect class="c" width="2" height="10" rx="1" transform="translate(8.66 126) rotate(60)"/></g></g></svg>