<svg xmlns="http://www.w3.org/2000/svg" width="24" height="24" viewBox="0 0 24 24"><defs><style>.a{fill:#f7f9fa;}.b{fill:none;}.c{fill:rgba(17,19,23,0.65);}</style></defs><circle class="a" cx="12" cy="12" r="12"/><g transform="translate(4 4)"><rect class="b" width="16" height="16"/><path class="c" d="M-2.372,0V-.289A2.209,2.209,0,0,0-1.105-.625a2.114,2.114,0,0,0,.249-1.3V-3H-4.887V-4H-.856V-9.922h-.89a3.052,3.052,0,0,0-1.809.382,2.834,2.834,0,0,0-.723,1.672h-.391l.094-2.719H4.465L4.55-7.867H4.168a3.268,3.268,0,0,0-.715-1.669,2.939,2.939,0,0,0-1.824-.386H.738V-4H4.887v1H.738v1.265q0,.93.289,1.152a2.658,2.658,0,0,0,1.266.293V0Z" transform="translate(7.887 13.586)"/></g></svg>