<svg xmlns="http://www.w3.org/2000/svg" xmlns:xlink="http://www.w3.org/1999/xlink" width="8" height="8" viewBox="0 0 8 8"><defs><style>.a{fill:rgba(202,252,179,0.5);}.b{clip-path:url(#a);}.c{fill:#82d968;}</style><clipPath id="a"><rect class="a" width="8" height="8"/></clipPath></defs><g class="b"><circle class="c" cx="1.5" cy="1.5" r="1.5" transform="translate(0 -1)"/><circle class="c" cx="1.5" cy="1.5" r="1.5" transform="translate(4 -1)"/><circle class="c" cx="1.5" cy="1.5" r="1.5" transform="translate(0 3)"/><circle class="c" cx="1.5" cy="1.5" r="1.5" transform="translate(4 3)"/><circle class="c" cx="1.5" cy="1.5" r="1.5" transform="translate(0 7)"/><circle class="c" cx="1.5" cy="1.5" r="1.5" transform="translate(4 7)"/><circle class="c" cx="1.5" cy="1.5" r="1.5" transform="translate(0 11)"/><circle class="c" cx="1.5" cy="1.5" r="1.5" transform="translate(4 11)"/><circle class="c" cx="1.5" cy="1.5" r="1.5" transform="translate(0 15)"/><circle class="c" cx="1.5" cy="1.5" r="1.5" transform="translate(4 15)"/><circle class="c" cx="1.5" cy="1.5" r="1.5" transform="translate(0 19)"/><circle class="c" cx="1.5" cy="1.5" r="1.5" transform="translate(4 19)"/><circle class="c" cx="1.5" cy="1.5" r="1.5" transform="translate(0 23)"/><circle class="c" cx="1.5" cy="1.5" r="1.5" transform="translate(4 23)"/><circle class="c" cx="1.5" cy="1.5" r="1.5" transform="translate(0 27)"/><circle class="c" cx="1.5" cy="1.5" r="1.5" transform="translate(4 27)"/><circle class="c" cx="1.5" cy="1.5" r="1.5" transform="translate(0 31)"/><circle class="c" cx="1.5" cy="1.5" r="1.5" transform="translate(4 31)"/><circle class="c" cx="1.5" cy="1.5" r="1.5" transform="translate(0 35)"/><circle class="c" cx="1.5" cy="1.5" r="1.5" transform="translate(4 35)"/><circle class="c" cx="1.5" cy="1.5" r="1.5" transform="translate(0 39)"/><circle class="c" cx="1.5" cy="1.5" r="1.5" transform="translate(4 39)"/><circle class="c" cx="1.5" cy="1.5" r="1.5" transform="translate(0 43)"/><circle class="c" cx="1.5" cy="1.5" r="1.5" transform="translate(4 43)"/><circle class="c" cx="1.5" cy="1.5" r="1.5" transform="translate(0 47)"/><circle class="c" cx="1.5" cy="1.5" r="1.5" transform="translate(4 47)"/><circle class="c" cx="1.5" cy="1.5" r="1.5" transform="translate(0 51)"/><circle class="c" cx="1.5" cy="1.5" r="1.5" transform="translate(4 51)"/><circle class="c" cx="1.5" cy="1.5" r="1.5" transform="translate(0 55)"/><circle class="c" cx="1.5" cy="1.5" r="1.5" transform="translate(4 55)"/><circle class="c" cx="1.5" cy="1.5" r="1.5" transform="translate(0 59)"/><circle class="c" cx="1.5" cy="1.5" r="1.5" transform="translate(4 59)"/><circle class="c" cx="1.5" cy="1.5" r="1.5" transform="translate(0 63)"/><circle class="c" cx="1.5" cy="1.5" r="1.5" transform="translate(4 63)"/><circle class="c" cx="1.5" cy="1.5" r="1.5" transform="translate(0 67)"/><circle class="c" cx="1.5" cy="1.5" r="1.5" transform="translate(4 67)"/><circle class="c" cx="1.5" cy="1.5" r="1.5" transform="translate(0 71)"/><circle class="c" cx="1.5" cy="1.5" r="1.5" transform="translate(4 71)"/><circle class="c" cx="1.5" cy="1.5" r="1.5" transform="translate(0 75)"/><circle class="c" cx="1.5" cy="1.5" r="1.5" transform="translate(4 75)"/><circle class="c" cx="1.5" cy="1.5" r="1.5" transform="translate(0 79)"/><circle class="c" cx="1.5" cy="1.5" r="1.5" transform="translate(4 79)"/><circle class="c" cx="1.5" cy="1.5" r="1.5" transform="translate(0 83)"/><circle class="c" cx="1.5" cy="1.5" r="1.5" transform="translate(0 103)"/><circle class="c" cx="1.5" cy="1.5" r="1.5" transform="translate(4 83)"/><circle class="c" cx="1.5" cy="1.5" r="1.5" transform="translate(4 103)"/><circle class="c" cx="1.5" cy="1.5" r="1.5" transform="translate(0 87)"/><circle class="c" cx="1.5" cy="1.5" r="1.5" transform="translate(0 107)"/><circle class="c" cx="1.5" cy="1.5" r="1.5" transform="translate(4 87)"/><circle class="c" cx="1.5" cy="1.5" r="1.5" transform="translate(4 107)"/><circle class="c" cx="1.5" cy="1.5" r="1.5" transform="translate(0 91)"/><circle class="c" cx="1.5" cy="1.5" r="1.5" transform="translate(0 111)"/><circle class="c" cx="1.5" cy="1.5" r="1.5" transform="translate(4 91)"/><circle class="c" cx="1.5" cy="1.5" r="1.5" transform="translate(4 111)"/><circle class="c" cx="1.5" cy="1.5" r="1.5" transform="translate(0 95)"/><circle class="c" cx="1.5" cy="1.5" r="1.5" transform="translate(0 115)"/><circle class="c" cx="1.5" cy="1.5" r="1.5" transform="translate(4 95)"/><circle class="c" cx="1.5" cy="1.5" r="1.5" transform="translate(4 115)"/><circle class="c" cx="1.5" cy="1.5" r="1.5" transform="translate(0 99)"/><circle class="c" cx="1.5" cy="1.5" r="1.5" transform="translate(0 119)"/><circle class="c" cx="1.5" cy="1.5" r="1.5" transform="translate(4 99)"/><circle class="c" cx="1.5" cy="1.5" r="1.5" transform="translate(4 119)"/></g></svg>