<svg xmlns="http://www.w3.org/2000/svg" width="118.802" height="32" viewBox="0 0 118.802 32"><defs><style>.a{fill:#0f44b8;}.b{fill:#393f4d;}</style></defs><g transform="translate(0 0)"><path class="a" d="M18.933,34.091A16.387,16.387,0,0,1,8.9,30.714,15.5,15.5,0,0,1,6.159,8.538,16.586,16.586,0,0,1,28.99,5.877a15.578,15.578,0,0,1,6.1,10.536,15.362,15.362,0,0,1-3.358,11.641A16.375,16.375,0,0,1,18.933,34.091ZM18.949,2.92A15.936,15.936,0,0,0,6.48,8.8,15.1,15.1,0,0,0,9.157,30.4,16.173,16.173,0,0,0,31.4,27.8a14.972,14.972,0,0,0,3.27-11.337A15.188,15.188,0,0,0,28.734,6.2,16.089,16.089,0,0,0,18.949,2.92Z" transform="translate(-2.477 -2.3)"/><path class="a" d="M16.5,32A16.606,16.606,0,0,1,6.34,28.583,15.784,15.784,0,0,1,.169,17.911,15.506,15.506,0,0,1,3.559,6.118,16.536,16.536,0,0,1,16.517,0,16.606,16.606,0,0,1,26.678,3.417a15.764,15.764,0,0,1,6.178,10.672,15.6,15.6,0,0,1-3.4,11.793A16.547,16.547,0,0,1,16.5,32ZM16.517.4A16.149,16.149,0,0,0,3.88,6.367,15.163,15.163,0,0,0,.57,17.856,15.373,15.373,0,0,0,6.588,28.264a16.184,16.184,0,0,0,9.9,3.332A16.149,16.149,0,0,0,29.13,25.633a15.163,15.163,0,0,0,3.318-11.5,15.42,15.42,0,0,0-6.018-10.4A16.207,16.207,0,0,0,16.517.4ZM16.5,31.587a16.2,16.2,0,0,1-9.9-3.332A15.3,15.3,0,0,1,3.888,6.367,16.15,16.15,0,0,1,16.517.413a16.2,16.2,0,0,1,9.9,3.332,15.373,15.373,0,0,1,6.018,10.4,15.154,15.154,0,0,1-3.318,11.489A16.134,16.134,0,0,1,16.5,31.587ZM16.517.817a15.719,15.719,0,0,0-12.3,5.807A14.9,14.9,0,0,0,6.853,27.937,15.746,15.746,0,0,0,16.5,31.183a15.719,15.719,0,0,0,12.3-5.807,14.781,14.781,0,0,0,3.229-11.193A15.01,15.01,0,0,0,26.165,4.063,15.746,15.746,0,0,0,16.517.817Z" transform="translate(-0.045 0)"/><g transform="translate(38.264 7.333)"><path class="b" d="M479.1,100.886c-1.226-1.971-3.2-2.26-5.1-2.284-1.971,0-5.1.721-5.1,3.414,0,2.14,2.308,2.644,5.145,3.173,3.246.625,6.611,1.2,6.611,4.832-.024,3.8-3.847,4.712-6.659,4.712-2.621,0-5.6-1.082-6.9-3.654l1.154-.577c1.034,2.043,3.678,3.053,5.746,3.053s5.361-.577,5.361-3.558c.024-2.524-2.765-3.077-5.529-3.606-3.077-.6-6.227-1.226-6.227-4.327-.072-3.558,3.63-4.664,6.395-4.664,2.4,0,4.5.385,6.154,2.861Z" transform="translate(-467.1 -97.4)"/><path class="b" d="M664.022,117.228l-1.851-4.135H652.122l-1.827,4.135H648.9l7.549-16.828h1.418l7.549,16.828Zm-2.356-5.337-4.52-10.241-4.52,10.241Z" transform="translate(-634.331 -100.16)"/><path class="b" d="M882.853,100.4l11.323,13.92V100.4h1.274v16.828h-.5l-11.347-13.9v13.9h-1.3V100.4Z" transform="translate(-849.028 -100.16)"/><path class="b" d="M1086.722,117.228l-1.851-4.135h-10.049l-1.827,4.135H1071.6l7.549-16.828h1.418l7.549,16.828Zm-2.356-5.337-4.52-10.241-4.52,10.241Z" transform="translate(-1023.158 -100.16)"/><path class="b" d="M1318.115,117.228h-1.707l-5.818-6.371H1306v6.371h-1.3V100.4h7.4a5.2,5.2,0,0,1,5.529,5.241c.024,2.741-1.779,5.145-5.457,5.145Zm-12.117-7.6h5.962c2.933,0,4.231-1.659,4.255-4.015a3.878,3.878,0,0,0-4.111-4.015H1306Z" transform="translate(-1237.578 -100.16)"/></g><g transform="translate(10.542 9.882)"><path class="a" d="M131.6,135.33a5.97,5.97,0,0,1,6.034-6.13c3.342,0,6.323,2.043,5.866,6.683H132.8a4.672,4.672,0,0,0,4.832,4.4,5.586,5.586,0,0,0,4.279-1.8l.841.673a6.528,6.528,0,0,1-5.121,2.284A5.824,5.824,0,0,1,131.6,135.33Zm10.842-.481c-.024-2.933-1.947-4.568-4.808-4.568a4.747,4.747,0,0,0-4.832,4.568Z" transform="translate(-131.6 -129.2)"/></g></g></svg>