<svg xmlns="http://www.w3.org/2000/svg" width="136" height="23.305" viewBox="0 0 136 23.305"><defs><style>.a{fill:#255ad0;}</style></defs><g transform="translate(0 0)"><path class="a" d="M11.644,1.526A10.127,10.127,0,1,1,1.516,11.653,10.14,10.14,0,0,1,11.644,1.526m0-1.526A11.653,11.653,0,1,0,23.3,11.652,11.653,11.653,0,0,0,11.644,0Z" transform="translate(0.01 0)"/><path class="a" d="M127.145,75a8.592,8.592,0,0,0,.869.313,28.391,28.391,0,0,1,3.595,1.571c.052.027.1.056.177.1a7.293,7.293,0,0,0-.734.348.556.556,0,0,1-.625-.009,26.571,26.571,0,0,0-4.167-1.777.361.361,0,0,1-.17-.078l.958-.466Z" transform="translate(-116.994 -69.59)"/><path class="a" d="M128.423,150.35c.037.023.072.042.1.062a41.789,41.789,0,0,1,6.2,4.89c.276.268.546.543.823.812.078.072.081.124,0,.206-.393.4-.781.807-1.169,1.215-.063.067-.1.1-.185.012a51.346,51.346,0,0,0-7.078-5.976c-.18-.13-.182-.131,0-.264q.6-.445,1.2-.886Z" transform="translate(-117.823 -139.504)"/><path class="a" d="M152.895,135.22c.037.022.072.04.1.06a34.853,34.853,0,0,1,4.7,3.434q1.05.911,2.02,1.9c.084.084.1.132.006.224-.318.318-.628.644-.933.975-.082.089-.125.072-.2-.006a39.331,39.331,0,0,0-6.42-5.266c-.183-.121-.366-.242-.55-.361-.072-.045-.111-.072-.012-.139.406-.26.808-.524,1.212-.787A.72.72,0,0,1,152.895,135.22Z" transform="translate(-140.616 -125.466)"/><path class="a" d="M61.475,119.728l-.356.223a32.287,32.287,0,0,0-4.962,3.791c-.433.4-.856.824-1.267,1.252-.079.082-.123.085-.2,0q-.313-.355-.641-.7c-.072-.078-.079-.122,0-.2a31.084,31.084,0,0,1,2.432-2.263A30.135,30.135,0,0,1,60.2,119.18a.221.221,0,0,1,.259-.007C60.786,119.358,61.12,119.536,61.475,119.728Z" transform="translate(-50.097 -110.541)"/><path class="a" d="M49.142,111.219c-.032.059-.087.072-.131.1a29.359,29.359,0,0,0-6.033,4.833c-.092.1-.14.111-.23,0a6.758,6.758,0,0,0-.477-.519c-.088-.087-.086-.138,0-.227a29.728,29.728,0,0,1,2.677-2.445,28.782,28.782,0,0,1,3-2.115.342.342,0,0,1,.4-.023C48.611,110.966,48.878,111.086,49.142,111.219Z" transform="translate(-39.161 -102.779)"/><path class="a" d="M206.1,111.822c.42-.249.8-.482,1.19-.7q1.451-.84,2.971-1.55a.2.2,0,0,1,.245.019c.3.226.6.445.906.664.1.072.125.107-.005.18-1.281.721-2.52,1.515-3.737,2.341-.063.043-.114.087-.2.022-.417-.326-.852-.63-1.29-.926A.773.773,0,0,0,206.1,111.822Z" transform="translate(-191.232 -101.634)"/><path class="a" d="M189.3,97.759c-.4.185-.753.352-1.109.524q-1.584.77-3.1,1.687a.2.2,0,0,1-.244,0c-.4-.26-.8-.509-1.226-.778.224-.125.433-.243.641-.361a31.224,31.224,0,0,1,3.787-1.744c.053-.02.105-.052.166-.013C188.563,97.3,188.913,97.518,189.3,97.759Z" transform="translate(-170.374 -90.053)"/><path class="a" d="M113.9,85.708c-.387.208-.758.408-1.128.61-.068.037-.111-.014-.16-.041a30.148,30.148,0,0,0-3.917-1.8l-.48-.181a.107.107,0,0,0-.016-.037c.235-.126.482-.239.707-.386a.728.728,0,0,1,.7-.053,30.694,30.694,0,0,1,4.13,1.79Z" transform="translate(-100.394 -77.717)"/><path class="a" d="M357.374,28.622A10.885,10.885,0,0,1,353.5,27.53a1.336,1.336,0,0,1-.433-.327v-.216c.517-1.01.86-2.085,1.273-3.131.149-.378.289-.438.673-.307a14.81,14.81,0,0,0,6.853.7,3.562,3.562,0,0,0,1.094-.338,1.742,1.742,0,0,0,.406-3.014,6.711,6.711,0,0,0-1.844-1.059c-1.172-.5-2.356-.984-3.514-1.515a8.716,8.716,0,0,1-2.832-2.03,5.714,5.714,0,0,1,1.456-8.764,11.14,11.14,0,0,1,6.1-1.153,14.561,14.561,0,0,1,5.233,1.28c.317.144.348.263.216.558-.41.938-.809,1.876-1.175,2.828-.14.361-.307.393-.653.289a13.905,13.905,0,0,0-5.448-.709,2.867,2.867,0,0,0-1.391.449,1.378,1.378,0,0,0-.216,2.175,4.431,4.431,0,0,0,1.363.9c1.128.513,2.267,1.006,3.395,1.52a12.226,12.226,0,0,1,3.412,2.152,5.85,5.85,0,0,1-.87,9.287,10.89,10.89,0,0,1-4.81,1.515A24.856,24.856,0,0,1,357.374,28.622Z" transform="translate(-327.6 -5.889)"/><path class="a" d="M960.895,24.587c-.186-4.5-.04-8.993-.1-13.489,0-.368.114-.459.468-.454,1.443.019,2.885.022,4.333,0,.382-.006.44.133.44.469q-.013,10.366,0,20.733c0,.379-.094.491-.481.487q-2.632-.032-5.266,0a.759.759,0,0,1-.76-.464q-3.766-6.613-7.558-13.214c-.109-.19-.222-.377-.345-.586-.166.136-.086.309-.079.449.2,4.4.043,8.811.109,13.216.007.488-.12.613-.6.6-1.407-.034-2.813-.021-4.223-.006-.33,0-.433-.092-.433-.433q.013-10.422,0-20.843c0-.3.076-.411.4-.409,1.774.014,3.547.022,5.32-.005.366-.006.466.2.6.439l7.947,13.87.11.188c.056-.032.089.2.135.027A.984.984,0,0,0,960.895,24.587Z" transform="translate(-878.13 -9.871)"/><path class="a" d="M1622.671,32.718c.241-1.142.61-2.249.957-3.36.144-.47.106-.677-.423-.814a8.328,8.328,0,0,1-3.885-2.147c-.824-.829-1.6-1.711-2.4-2.556-.2-.211-.158-.3.072-.44a6.509,6.509,0,0,0,3.15-6.526,6.1,6.1,0,0,0-3.364-5.176,9.03,9.03,0,0,0-4.112-1.021c-2.958-.041-5.922-.017-8.884-.037-.349,0-.42.109-.42.436q.013,10.392,0,20.784c0,.415.156.47.509.465,1.407-.017,2.813-.023,4.222,0,.421.008.553-.1.548-.537-.025-2.156,0-4.314-.02-6.471,0-.379.092-.509.483-.489a15.276,15.276,0,0,0,1.808-.01.861.861,0,0,1,.787.361c1.108,1.289,2.209,2.585,3.359,3.835a10.631,10.631,0,0,0,6.356,3.589A7.133,7.133,0,0,0,1622.671,32.718Zm-10.8-11.646a19.581,19.581,0,0,1-2.951.126c-.321.006-.288-.184-.288-.388V17.96c0-.913.012-1.826-.007-2.741-.007-.333.051-.491.439-.476a20.785,20.785,0,0,1,3.71.185,2.259,2.259,0,0,1,1.984,2.1A3.213,3.213,0,0,1,1611.867,21.071Z" transform="translate(-1487.7 -9.872)"/><path class="a" d="M621.523,31.844q-3.506-10.361-6.977-20.735a.532.532,0,0,0-.618-.433c-1.919.017-3.839.021-5.759,0a.628.628,0,0,0-.7.494q-3.37,8.812-6.768,17.615c-.449,1.169-.891,2.34-1.36,3.571,1.6,0,3.137-.013,4.67.009a.643.643,0,0,0,.744-.5c.638-1.8,1.33-3.591,1.984-5.39a.562.562,0,0,1,.623-.449q3.209.026,6.42,0a.531.531,0,0,1,.6.453c.577,1.826,1.178,3.644,1.752,5.469a.5.5,0,0,0,.577.421c1.481-.018,2.962-.023,4.443,0C621.6,32.371,621.667,32.268,621.523,31.844Zm-8.873-9.616c-1.333-.011-2.669-.006-4,0-.211,0-.355-.005-.266-.3.812-2.621,1.605-5.246,2.444-7.987.51,1.948.99,3.778,1.469,5.609.2.775.392,1.554.61,2.324.072.268.025.35-.26.348Z" transform="translate(-556.105 -9.906)"/><path class="a" d="M1279.507,31.846q-3.515-10.387-7-20.788a.5.5,0,0,0-.577-.41c-1.938.014-3.876.019-5.814,0a.589.589,0,0,0-.662.466c-.775,2.066-1.576,4.122-2.368,6.181l-5.554,14.45c-.224.581-.223.582.361.583,1.371,0,2.741-.014,4.112.009a.616.616,0,0,0,.708-.48c.643-1.8,1.329-3.591,1.981-5.391a.593.593,0,0,1,.663-.473q3.181.035,6.362,0c.392,0,.53.138.638.484.568,1.809,1.172,3.607,1.731,5.417a.523.523,0,0,0,.614.442c.731-.024,1.463-.007,2.194-.007.749,0,1.5-.02,2.248.008C1279.579,32.349,1279.641,32.242,1279.507,31.846Zm-8.834-9.646c-1.443-.009-2.88,0-4.393,0l2.525-8.29c.715,2.747,1.392,5.355,2.077,7.96C1270.939,22.083,1270.965,22.2,1270.673,22.2Z" transform="translate(-1166.692 -9.88)"/></g></svg>