<svg xmlns="http://www.w3.org/2000/svg" width="32" height="32" viewBox="0 0 32 32"><defs><style>.a,.d{fill:none;}.a{stroke:#fff;stroke-miterlimit:10;}.b{fill:rgba(255,255,255,0.85);}.c{stroke:none;}</style></defs><g class="a" transform="translate(0 0)"><ellipse class="c" cx="16" cy="16" rx="16" ry="16"/><ellipse class="d" cx="16" cy="16" rx="15.5" ry="15.5"/></g><g transform="translate(10.244 9.882)"><path class="b" d="M131.6,135.33a5.89,5.89,0,0,1,5.864-6.13c3.247,0,6.144,2.043,5.7,6.683h-10.4a4.591,4.591,0,0,0,4.7,4.4,5.356,5.356,0,0,0,4.158-1.8l.818.673a6.267,6.267,0,0,1-4.976,2.284A5.744,5.744,0,0,1,131.6,135.33Zm10.536-.481a4.291,4.291,0,0,0-4.672-4.568,4.669,4.669,0,0,0-4.7,4.568Z" transform="translate(-131.6 -129.2)"/></g></svg>