<svg xmlns="http://www.w3.org/2000/svg" width="32" height="32" viewBox="0 0 32 32"><defs><style>.a{fill:#fff;}</style></defs><path class="a" d="M16,2.095A13.909,13.909,0,1,1,2.095,16,13.909,13.909,0,0,1,16,2.095M16,0A16,16,0,1,0,32,16,16,16,0,0,0,16,0Z"/><path class="a" d="M93.552,54.77a12.054,12.054,0,0,0,1.195.43,38.916,38.916,0,0,1,4.933,2.159c.072.037.136.077.243.136a10.045,10.045,0,0,0-1.006.477.763.763,0,0,1-.858-.011,36.563,36.563,0,0,0-5.723-2.441.5.5,0,0,1-.235-.106l1.317-.641Z" transform="translate(-79.612 -47.344)"/><path class="a" d="M94.755,109.85c.05.031.095.057.136.085a57.057,57.057,0,0,1,8.522,6.715c.381.369.75.747,1.131,1.115.107.1.111.171,0,.282-.542.551-1.073,1.109-1.6,1.669-.088.092-.136.136-.255.016a70.578,70.578,0,0,0-9.721-8.207c-.247-.178-.249-.18,0-.363q.822-.61,1.649-1.22C94.657,109.914,94.706,109.883,94.755,109.85Z" transform="translate(-80.197 -94.955)"/><path class="a" d="M112.646,98.79c.05.031.1.057.136.083a47.925,47.925,0,0,1,6.46,4.716q1.44,1.252,2.778,2.613c.115.117.136.182.008.309q-.652.655-1.28,1.338c-.114.121-.171.1-.271-.008a53.947,53.947,0,0,0-8.814-7.233c-.252-.168-.5-.334-.757-.495-.1-.062-.153-.1-.015-.191.557-.357,1.109-.72,1.662-1.085A.982.982,0,0,1,112.646,98.79Z" transform="translate(-95.784 -85.395)"/><path class="a" d="M49.71,87.859l-.489.306A44.376,44.376,0,0,0,42.4,93.373q-.895.837-1.74,1.721c-.108.113-.169.117-.271,0q-.428-.488-.88-.949c-.1-.107-.11-.167,0-.279a42.544,42.544,0,0,1,3.338-3.108,41.573,41.573,0,0,1,5.1-3.652.308.308,0,0,1,.357-.009C48.765,87.35,49.223,87.6,49.71,87.859Z" transform="translate(-34.085 -75.242)"/><path class="a" d="M40.36,81.537a.364.364,0,0,1-.18.136,40.243,40.243,0,0,0-8.285,6.644c-.127.136-.193.152-.316,0a9.066,9.066,0,0,0-.656-.713c-.121-.119-.117-.188,0-.312A41.054,41.054,0,0,1,34.6,83.933a39.636,39.636,0,0,1,4.121-2.9A.471.471,0,0,1,39.275,81C39.626,81.192,40,81.357,40.36,81.537Z" transform="translate(-26.653 -69.948)"/><path class="a" d="M150.58,83.167c.576-.343,1.1-.662,1.635-.967q1.992-1.155,4.079-2.13a.279.279,0,0,1,.336.027c.407.309.826.61,1.243.911.136.094.172.146,0,.247-1.763.994-3.462,2.079-5.134,3.216-.087.06-.156.119-.271.031-.574-.449-1.17-.865-1.771-1.273A1.064,1.064,0,0,0,150.58,83.167Z" transform="translate(-130.162 -69.176)"/><path class="a" d="M141.991,71.868c-.542.255-1.033.484-1.521.72q-2.18,1.056-4.254,2.316a.271.271,0,0,1-.335,0c-.542-.357-1.1-.7-1.681-1.068.308-.172.593-.334.88-.491a42.711,42.711,0,0,1,5.195-2.395c.075-.028.145-.072.228-.019C140.982,71.24,141.466,71.544,141.991,71.868Z" transform="translate(-116.003 -61.292)"/><path class="a" d="M86.889,63.866c-.532.286-1.041.559-1.55.837-.094.05-.153-.02-.22-.056a41.459,41.459,0,0,0-5.38-2.469l-.658-.247a.143.143,0,0,0-.022-.052c.323-.174.66-.328.971-.53a.99.99,0,0,1,.959-.073,42.265,42.265,0,0,1,5.672,2.462C86.732,63.775,86.8,63.816,86.889,63.866Z" transform="translate(-68.34 -52.891)"/></svg>