<svg xmlns="http://www.w3.org/2000/svg" width="104" height="17.822" viewBox="0 0 104 17.822"><defs><style>.a{fill:#ebeef2;}</style></defs><g transform="translate(0 0)"><path class="a" d="M8.9,1.167A7.744,7.744,0,1,1,1.157,8.911,7.754,7.754,0,0,1,8.9,1.167M8.9,0a8.911,8.911,0,1,0,8.91,8.911A8.911,8.911,0,0,0,8.9,0Z" transform="translate(0.01 0)"/><path class="a" d="M126.9,75a6.568,6.568,0,0,0,.665.239,21.711,21.711,0,0,1,2.749,1.2c.04.02.078.043.135.074a5.578,5.578,0,0,0-.561.266.425.425,0,0,1-.478-.007,20.32,20.32,0,0,0-3.187-1.359.276.276,0,0,1-.13-.06l.733-.356Z" transform="translate(-119.134 -70.863)"/><path class="a" d="M128.085,150.35c.028.018.055.032.077.047a31.956,31.956,0,0,1,4.744,3.739c.211.205.418.415.629.621.06.055.062.095,0,.157-.3.307-.6.617-.894.929-.049.051-.077.074-.141.009a39.265,39.265,0,0,0-5.413-4.57c-.138-.1-.14-.1,0-.2q.458-.34.918-.677Z" transform="translate(-119.978 -142.056)"/><path class="a" d="M152.578,135.22c.028.017.055.031.078.046a26.652,26.652,0,0,1,3.594,2.626q.8.7,1.545,1.455c.065.065.076.1,0,.172-.243.243-.48.493-.713.745-.063.068-.1.055-.153,0a30.076,30.076,0,0,0-4.909-4.027c-.14-.093-.28-.185-.421-.276-.055-.035-.085-.055-.009-.106.311-.2.618-.4.927-.6A.551.551,0,0,1,152.578,135.22Z" transform="translate(-143.188 -127.761)"/><path class="a" d="M59.714,119.588l-.273.17a24.69,24.69,0,0,0-3.795,2.9c-.331.309-.655.63-.969.958-.06.063-.094.065-.152,0q-.239-.271-.49-.532c-.055-.06-.061-.093,0-.156a23.77,23.77,0,0,1,1.86-1.73,23.044,23.044,0,0,1,2.841-2.028.169.169,0,0,1,.2,0C59.188,119.305,59.443,119.441,59.714,119.588Z" transform="translate(-51.013 -112.563)"/><path class="a" d="M47.51,111.113c-.025.045-.066.055-.1.078a22.451,22.451,0,0,0-4.613,3.7c-.071.073-.107.085-.176,0a5.167,5.167,0,0,0-.365-.4c-.067-.067-.066-.105,0-.174a22.731,22.731,0,0,1,2.047-1.87,22.011,22.011,0,0,1,2.3-1.617.261.261,0,0,1,.308-.018C47.1,110.92,47.308,111.012,47.51,111.113Z" transform="translate(-39.877 -104.659)"/><path class="a" d="M206.1,111.284c.321-.19.613-.368.91-.538q1.109-.642,2.272-1.185a.156.156,0,0,1,.187.014c.228.173.46.34.693.507.073.055.1.082,0,.138-.98.552-1.927,1.158-2.858,1.791-.049.033-.087.067-.151.017-.319-.249-.651-.482-.986-.708A.594.594,0,0,0,206.1,111.284Z" transform="translate(-194.73 -103.494)"/><path class="a" d="M187.962,97.593c-.3.141-.576.269-.848.4q-1.211.589-2.37,1.29a.15.15,0,0,1-.186,0c-.3-.2-.612-.389-.938-.6l.49-.276a23.878,23.878,0,0,1,2.9-1.334c.041-.015.081-.04.127-.01C187.4,97.24,187.668,97.409,187.962,97.593Z" transform="translate(-173.491 -91.7)"/><path class="a" d="M112.559,85.249c-.3.159-.58.312-.863.466-.052.028-.085-.011-.122-.031a23.054,23.054,0,0,0-3-1.374l-.367-.138a.082.082,0,0,0-.012-.028c.18-.1.368-.183.541-.3a.556.556,0,0,1,.535-.041,23.472,23.472,0,0,1,3.158,1.369Z" transform="translate(-102.231 -79.138)"/><path class="a" d="M356.361,23.381a8.324,8.324,0,0,1-2.96-.836,1.022,1.022,0,0,1-.331-.25V22.13c.395-.772.658-1.594.974-2.394.114-.289.221-.335.515-.234a11.325,11.325,0,0,0,5.24.532,2.724,2.724,0,0,0,.836-.259,1.332,1.332,0,0,0,.311-2.3,5.131,5.131,0,0,0-1.41-.81c-.9-.386-1.8-.752-2.688-1.158a6.665,6.665,0,0,1-2.166-1.552,4.369,4.369,0,0,1,1.113-6.7,8.519,8.519,0,0,1,4.668-.881,11.135,11.135,0,0,1,4,.979c.243.11.266.2.165.427-.313.717-.618,1.434-.9,2.162-.107.276-.234.3-.5.221a10.633,10.633,0,0,0-4.166-.542A2.193,2.193,0,0,0,358,9.957a1.054,1.054,0,0,0-.165,1.663,3.389,3.389,0,0,0,1.042.691c.863.392,1.733.77,2.6,1.162a9.349,9.349,0,0,1,2.609,1.645,4.474,4.474,0,0,1-.665,7.1,8.328,8.328,0,0,1-3.678,1.158A19.007,19.007,0,0,1,356.361,23.381Z" transform="translate(-333.593 -5.997)"/><path class="a" d="M957.484,21.3c-.142-3.438-.03-6.877-.073-10.315,0-.281.087-.351.357-.348,1.1.014,2.206.017,3.313,0,.292,0,.336.1.336.359q-.01,7.927,0,15.855c0,.29-.072.376-.368.372q-2.012-.024-4.027,0a.58.58,0,0,1-.581-.355q-2.88-5.057-5.779-10.1c-.083-.145-.17-.288-.264-.448-.127.1-.066.237-.061.343.153,3.365.033,6.738.083,10.106.006.373-.092.469-.461.46-1.076-.026-2.151-.016-3.229,0-.253,0-.331-.07-.331-.331q.01-7.97,0-15.939c0-.232.058-.314.3-.313,1.356.01,2.712.017,4.068,0,.28,0,.356.156.46.335l6.077,10.607.084.144c.043-.025.068.155.1.02A.753.753,0,0,0,957.484,21.3Z" transform="translate(-894.194 -10.052)"/><path class="a" d="M1618.127,27.523c.184-.873.467-1.72.731-2.569.11-.36.081-.517-.324-.623a6.368,6.368,0,0,1-2.971-1.642c-.63-.634-1.22-1.308-1.838-1.955-.154-.161-.121-.226.055-.336a4.978,4.978,0,0,0,2.409-4.991,4.663,4.663,0,0,0-2.572-3.958,6.905,6.905,0,0,0-3.144-.781c-2.262-.031-4.529-.013-6.793-.028-.267,0-.322.083-.321.334q.01,7.947,0,15.893c0,.317.119.359.389.356,1.076-.013,2.151-.018,3.229,0,.322.006.423-.073.419-.41-.019-1.649,0-3.3-.015-4.948,0-.29.071-.389.37-.374a11.681,11.681,0,0,0,1.383-.008.658.658,0,0,1,.6.276c.847.986,1.689,1.976,2.568,2.933a8.13,8.13,0,0,0,4.861,2.744A5.454,5.454,0,0,0,1618.127,27.523Zm-8.262-8.906a14.973,14.973,0,0,1-2.257.1c-.245,0-.221-.141-.221-.3V16.238c0-.7.009-1.4-.005-2.1-.005-.255.039-.375.336-.364a15.9,15.9,0,0,1,2.838.142,1.728,1.728,0,0,1,1.517,1.6A2.457,2.457,0,0,1,1609.865,18.617Z" transform="translate(-1514.914 -10.053)"/><path class="a" d="M616.3,26.864q-2.681-7.924-5.335-15.856a.407.407,0,0,0-.473-.331c-1.468.013-2.936.016-4.4,0a.48.48,0,0,0-.536.378q-2.577,6.739-5.176,13.47c-.344.894-.681,1.789-1.04,2.731,1.226,0,2.4-.01,3.571.007a.492.492,0,0,0,.569-.386c.488-1.379,1.017-2.746,1.517-4.122a.429.429,0,0,1,.477-.343q2.454.02,4.909,0a.406.406,0,0,1,.461.346c.441,1.4.9,2.786,1.34,4.182a.385.385,0,0,0,.441.322c1.133-.014,2.265-.018,3.4,0C616.36,27.267,616.414,27.188,616.3,26.864Zm-6.785-7.353c-1.019-.008-2.041,0-3.058,0-.161,0-.271,0-.2-.226.621-2,1.227-4.011,1.869-6.108.39,1.489.757,2.889,1.123,4.289.154.592.3,1.188.466,1.777.055.2.019.268-.2.266Z" transform="translate(-566.278 -10.088)"/><path class="a" d="M1274.3,26.859q-2.688-7.943-5.351-15.9a.385.385,0,0,0-.441-.314c-1.482.011-2.964.015-4.446,0a.451.451,0,0,0-.506.356c-.592,1.58-1.205,3.152-1.81,4.727l-4.247,11.05c-.171.444-.171.445.276.446,1.048,0,2.1-.01,3.144.007a.471.471,0,0,0,.542-.367c.491-1.379,1.016-2.746,1.515-4.123a.454.454,0,0,1,.507-.362q2.433.026,4.865,0c.3,0,.4.105.488.37.434,1.383.9,2.758,1.324,4.143a.4.4,0,0,0,.469.338c.559-.018,1.119-.006,1.678-.006s1.147-.015,1.719.006C1274.36,27.243,1274.407,27.161,1274.3,26.859Zm-6.755-7.376c-1.1-.007-2.2,0-3.359,0l1.931-6.34c.547,2.1,1.064,4.095,1.588,6.087C1267.752,19.392,1267.772,19.484,1267.549,19.482Z" transform="translate(-1188.035 -10.061)"/></g></svg>