<svg xmlns="http://www.w3.org/2000/svg" width="16" height="16" viewBox="0 0 16 16"><defs><style>.a,.b{fill:#0f44b8;}.a{opacity:0;}</style></defs><g transform="translate(0 0)"><rect class="a" width="16" height="16"/><g transform="translate(1.75 1.75)"><path class="b" d="M14.625,2.625H3.125a.5.5,0,0,0-.5.5v11.5a.5.5,0,0,0,.5.5h11.5a.5.5,0,0,0,.5-.5V3.125A.5.5,0,0,0,14.625,2.625ZM13.181,6.273h-1c-.783,0-.934.372-.934.919V8.4h1.869l-.244,1.886H11.248v4.842H9.3V10.284H7.67V8.4H9.3V7.006a2.273,2.273,0,0,1,2.427-2.494,13.188,13.188,0,0,1,1.456.075V6.273Z" transform="translate(-2.625 -2.625)"/></g></g></svg>