<svg xmlns="http://www.w3.org/2000/svg" width="16" height="16" viewBox="0 0 16 16"><defs><style>.a,.b{fill:#0f44b8;}.a{opacity:0;}</style></defs><g transform="translate(0 0)"><rect class="a" width="16" height="16"/><g transform="translate(1 1)"><path class="b" d="M8.5,1.5a7,7,0,1,0,7,7A7,7,0,0,0,8.5,1.5Zm2.609,9.9a3.658,3.658,0,0,1-2.533.928,3.829,3.829,0,0,1,0-7.658,3.683,3.683,0,0,1,2.561,1l-1.1,1.1a2.066,2.066,0,0,0-1.462-.572,2.307,2.307,0,1,0,1.294,4.247,1.759,1.759,0,0,0,.764-1.156H8.577V7.8h3.6a4.408,4.408,0,0,1,.069.783A3.734,3.734,0,0,1,11.109,11.4Z" transform="translate(-1.5 -1.5)"/></g></g></svg>