<svg xmlns="http://www.w3.org/2000/svg" width="50.884" height="61.476" viewBox="0 0 50.884 61.476"><defs><style>.a{fill:rgba(232,232,232,0.6);}.b{fill:#e8e8e8;stroke:#cecece;stroke-miterlimit:10;stroke-width:2px;}.c{fill:none;stroke:#f7f7f7;stroke-linecap:round;stroke-linejoin:round;stroke-width:3px;}.d{fill:#cecece;}</style></defs><g transform="translate(-937.616 -868.826)"><path class="a" d="M970.805,741.62h-2.459a.524.524,0,1,1,0-1.047h2.459a.524.524,0,1,1,0,1.047Z" transform="translate(17.17 188.205)"/><path class="a" d="M923.343,741.62H877.875a.524.524,0,1,1,0-1.047h45.469a.524.524,0,1,1,0,1.047Z" transform="translate(60.265 188.205)"/><g transform="translate(938.663 869.826)"><path class="b" d="M912.2,628h-2.27a13.967,13.967,0,0,0-13.967,13.967v30.421h30.2V641.964A13.967,13.967,0,0,0,912.2,628Zm9.166,28.968a8.9,8.9,0,0,1-8.9,8.9h-2.8a8.9,8.9,0,0,1-8.9-8.9V641.873a8.9,8.9,0,0,1,8.9-8.9h2.8a8.9,8.9,0,0,1,8.9,8.9Z" transform="translate(-887.264 -627.997)"/><g transform="translate(0 24.524)"><path class="b" d="M5.71,0H41.893A5.71,5.71,0,0,1,47.6,5.71v8.065A21.177,21.177,0,0,1,26.426,34.952H21.177A21.177,21.177,0,0,1,0,13.775V5.71A5.71,5.71,0,0,1,5.71,0Z"/><path class="c" d="M951.438,718.9a8.588,8.588,0,0,1-5.891,6.236" transform="translate(-910.882 -695.823)"/></g><path class="d" d="M925.127,705.182l-2.141-6.832a3.55,3.55,0,1,0-3.189-.032l-1.9,6.867a.082.082,0,0,0,.079.1h7.069A.082.082,0,0,0,925.127,705.182Z" transform="translate(-897.7 -658.299)"/></g></g></svg>