<svg xmlns="http://www.w3.org/2000/svg" xmlns:xlink="http://www.w3.org/1999/xlink" width="8" height="18" viewBox="0 0 8 18"><defs><style>.a{fill:none;}.b{clip-path:url(#a);}.c{fill:#82d968;}</style><clipPath id="a"><rect class="a" width="8" height="18"/></clipPath></defs><g class="b"><g transform="translate(-1014 -487)"><circle class="c" cx="1.5" cy="1.5" r="1.5" transform="translate(1014 487)"/></g><g transform="translate(-1010 -487)"><circle class="c" cx="1.5" cy="1.5" r="1.5" transform="translate(1014 487)"/></g><g transform="translate(-1014 -483)"><circle class="c" cx="1.5" cy="1.5" r="1.5" transform="translate(1014 487)"/></g><g transform="translate(-1010 -483)"><circle class="c" cx="1.5" cy="1.5" r="1.5" transform="translate(1014 487)"/></g><g transform="translate(-1014 -479)"><circle class="c" cx="1.5" cy="1.5" r="1.5" transform="translate(1014 487)"/></g><g transform="translate(-1010 -479)"><circle class="c" cx="1.5" cy="1.5" r="1.5" transform="translate(1014 487)"/></g><g transform="translate(-1014 -475)"><circle class="c" cx="1.5" cy="1.5" r="1.5" transform="translate(1014 487)"/></g><g transform="translate(-1010 -475)"><circle class="c" cx="1.5" cy="1.5" r="1.5" transform="translate(1014 487)"/></g><g transform="translate(-1014 -471)"><circle class="c" cx="1.5" cy="1.5" r="1.5" transform="translate(1014 487)"/></g><g transform="translate(-1010 -471)"><circle class="c" cx="1.5" cy="1.5" r="1.5" transform="translate(1014 487)"/></g></g></svg>