<svg xmlns="http://www.w3.org/2000/svg" width="24" height="24" viewBox="0 0 24 24"><defs><style>.a,.c{fill:rgba(17,19,23,0.65);}.a{opacity:0;}.b{fill:#efc9c7;}</style></defs><g transform="translate(-0.011 0)"><rect class="a" width="24" height="24" transform="translate(0.011 0)"/><path class="b" d="M-7301-1021a3,3,0,0,1-3-3v-12a3,3,0,0,1,3-3h12a1,1,0,0,1,1,1v16a1,1,0,0,1-1,1Z" transform="translate(7305 1045)"/><path class="c" d="M19,3H7A3,3,0,0,0,4,6V18a3,3,0,0,0,3,3H19a1,1,0,0,0,1-1V4A1,1,0,0,0,19,3ZM7,5H18V15H7a3,3,0,0,0-1,.18V6A1,1,0,0,1,7,5ZM7,19a1,1,0,0,1,0-2H18v2Z"/></g></svg>