<svg xmlns="http://www.w3.org/2000/svg" width="24" height="24" viewBox="0 0 24 24"><defs><style>.a,.c{fill:rgba(17,19,23,0.65);}.a{opacity:0;}.b{fill:#efc9c7;}</style></defs><rect class="a" width="24" height="24"/><path class="b" d="M11.043,0H2.1A2.081,2.081,0,0,0,0,2.053V14.378a2.08,2.08,0,0,0,2.1,2.053H7.855a.828.828,0,0,0,.609-.271l4.467-4.929a.831.831,0,0,0,.216-.552V2.053A2.081,2.081,0,0,0,11.067,0ZM6.574,14.783v.007H2.1a.427.427,0,0,1-.1-.007Z" transform="translate(15.001 23.432) rotate(180)"/><path class="c" d="M9,16h6a1,1,0,0,1,0,2H9a1,1,0,0,1,0-2Z"/><path class="c" d="M12,14H9a1,1,0,0,1,0-2h3a1,1,0,0,1,0,2Z" transform="translate(3)"/><path class="c" d="M4.26,8.33l5.44-6A1,1,0,0,1,10.44,2h7A2.53,2.53,0,0,1,20,4.5v15A2.53,2.53,0,0,1,17.44,22H6.56A2.53,2.53,0,0,1,4,19.5V9a1,1,0,0,1,.26-.67ZM10,5,7.26,8h2A.79.79,0,0,0,10,7.15ZM6.56,20H17.44a.53.53,0,0,0,.56-.5V4.5a.53.53,0,0,0-.56-.5H12V7.15A2.79,2.79,0,0,1,9.29,10H6v9.5a.53.53,0,0,0,.56.5Z" transform="translate(0)"/></svg>