<svg xmlns="http://www.w3.org/2000/svg" width="24" height="24" viewBox="0 0 24 24"><defs><style>.a{fill:rgba(0,0,0,0);}.b{fill:#efc9c7;}.c{fill:rgba(17,19,23,0.65);}</style></defs><g transform="translate(-231 -81)"><rect class="a" width="24" height="24" transform="translate(231 81)"/><path class="b" d="M233.2,97.552v6.089h7.622V97.552Z"/><path class="b" d="M233.2,97.552v6.089h7.622V97.552Z" transform="translate(10)"/><path class="b" d="M233.2,97.552v5.418h12.811V97.552Z" transform="translate(1 -11.329)"/><path class="c" d="M251,95h-1.6l-4-4H249a.945.945,0,0,0,1-1V85a.945.945,0,0,0-1-1H237a.945.945,0,0,0-1,1v5a.945.945,0,0,0,1,1h3.6l-4,4H235a.945.945,0,0,0-1,1v5a.945.945,0,0,0,1,1h6a.945.945,0,0,0,1-1V96a.945.945,0,0,0-1-1h-1.6l3.6-3.6,3.6,3.6H245a.945.945,0,0,0-1,1v5a.945.945,0,0,0,1,1h6a.945.945,0,0,0,1-1V96A.945.945,0,0,0,251,95Zm-11,2.3v2.4a.265.265,0,0,1-.3.3h-3.4a.265.265,0,0,1-.3-.3V97.3a.265.265,0,0,1,.3-.3h3.4A.265.265,0,0,1,240,97.3Zm-2-8.6V86.3a.265.265,0,0,1,.3-.3h9.4a.265.265,0,0,1,.3.3v2.4a.265.265,0,0,1-.3.3h-9.4A.265.265,0,0,1,238,88.7ZM249.7,100h-3.4a.265.265,0,0,1-.3-.3V97.3a.265.265,0,0,1,.3-.3h3.4a.265.265,0,0,1,.3.3v2.4A.265.265,0,0,1,249.7,100Z"/></g></svg>