<svg xmlns="http://www.w3.org/2000/svg" width="24" height="24.099" viewBox="0 0 24 24.099"><defs><style>.a{fill:rgba(0,0,0,0);}.b{fill:#efc9c7;stroke:rgba(0,0,0,0);}.c{fill:rgba(17,19,23,0.65);}</style></defs><g transform="translate(-199 -81)"><rect class="a" width="24" height="24" transform="translate(199 81)"/><path class="b" d="M-4231.29,308.409a3.153,3.153,0,0,1-2.111.791,3.459,3.459,0,0,1-3.253-1.935,3.092,3.092,0,0,1-1.759-1.231,4.006,4.006,0,0,1-.528-1.935,3.8,3.8,0,0,1-.967-1.759,3.38,3.38,0,0,1,.176-2.111,4.406,4.406,0,0,1-.176-1.935,3.184,3.184,0,0,1,2.11-2.462,3.948,3.948,0,0,1,.616-1.583,5.919,5.919,0,0,1,1.055-1.055,1.418,1.418,0,0,1,.352-.616,2.322,2.322,0,0,1,.579-.6l.525-.88h4.764l3.07-1.035,5.359,5.689.8,3.776-1.893,4.665-1.191,1.008a2.631,2.631,0,0,1-.4.836,2.833,2.833,0,0,1-1.758,1.231,3.462,3.462,0,0,1-3.254,1.935A3.152,3.152,0,0,1-4231.29,308.409Zm-2.6-1.279-1.042-1.145A1.9,1.9,0,0,0-4233.888,307.13Zm-2.854-2.239a1.542,1.542,0,0,0,1.231.528h.065l-1.5-1.644A1.5,1.5,0,0,0-4236.742,304.891Zm-1.319-2.815a1.363,1.363,0,0,0,.376.774l-.248-1.845A1.476,1.476,0,0,0-4238.062,302.076Z" transform="translate(4439.796 -204.6)"/><path class="c" d="M220.7,92.4a3.873,3.873,0,0,0,.2-2.2,3.623,3.623,0,0,0-2.4-2.8,3.4,3.4,0,0,0-.7-1.8,6.789,6.789,0,0,0-1.2-1.2,2.507,2.507,0,0,0-.4-.7,3.322,3.322,0,0,0-2.9-1.3,3.583,3.583,0,0,0-2.4.9,3.583,3.583,0,0,0-2.4-.9,3.188,3.188,0,0,0-2.9,1.3,1.612,1.612,0,0,0-.4.7,6.788,6.788,0,0,0-1.2,1.2,4.491,4.491,0,0,0-.7,1.8,3.623,3.623,0,0,0-2.4,2.8,5.011,5.011,0,0,0,.2,2.2,3.843,3.843,0,0,0-.2,2.4,4.333,4.333,0,0,0,1.1,2,4.559,4.559,0,0,0,.6,2.2,3.524,3.524,0,0,0,2,1.4,3.937,3.937,0,0,0,3.7,2.2,3.583,3.583,0,0,0,2.4-.9,3.583,3.583,0,0,0,2.4.9,3.937,3.937,0,0,0,3.7-2.2,3.228,3.228,0,0,0,2-1.4,3.5,3.5,0,0,0,.6-2.2,3.88,3.88,0,0,0,1.1-2A2.348,2.348,0,0,0,220.7,92.4ZM210,85.6V99.3c0,1.1-1.4,1.1-1.4,1.1a2.273,2.273,0,0,1-2.2-2.1h-.5a1.5,1.5,0,0,1-1.6-2l.1-.1h0a4.377,4.377,0,0,1,1.9-1c.3,0,.7,0,.8.2.2.3,0,1.1-.1,1.5-.1.3,0,.5.3.7a.517.517,0,0,0,.7-.3,2.755,2.755,0,0,0,0-2.4,1.708,1.708,0,0,0-1.7-.6,1.854,1.854,0,0,0-.7.2,1.268,1.268,0,0,0,.1-.6.6.6,0,0,0-.1-.4c-.1-.2-.4-.2-.6-.2a1,1,0,0,0-.4.5,2.593,2.593,0,0,1-.9,1.8,1.526,1.526,0,0,1-.7-1.1,1.728,1.728,0,0,1,.8-1.9,1.764,1.764,0,0,1-.8-1.9c.2-1.2,1.5-1.4,2.2-1.5a.908.908,0,0,1,.7.3c.8.7.1,1.4,0,1.6a.483.483,0,0,0,0,.7c.1.1.2.1.4.1a.6.6,0,0,0,.4-.1,3.073,3.073,0,0,0,.6-.9,1.788,1.788,0,0,0-.6-2.1l-.1-.1.6-.3a2.211,2.211,0,0,0,.8-1.5.5.5,0,0,0-1,0,.827.827,0,0,1-.4.7,1.52,1.52,0,0,1-1.1.2,1.929,1.929,0,0,1,.3-1,2.639,2.639,0,0,1,1.4-1.1s-.4-1.1,1.4-1.1c0-.1,1.4-.1,1.4,1Zm8.9,8.8a1.526,1.526,0,0,1-.7,1.1,2.593,2.593,0,0,1-.9-1.8.664.664,0,0,0-.4-.5c-.2-.1-.4,0-.6.2a.6.6,0,0,0-.1.4c0,.2.1.4.1.6a1.854,1.854,0,0,0-.7-.2,1.708,1.708,0,0,0-1.7.6,2.719,2.719,0,0,0,0,2.4.539.539,0,1,0,1-.4c-.1-.3-.4-1.1-.1-1.5.1-.2.5-.2.8-.2a3.909,3.909,0,0,1,1.9,1h0l.1.1a1.807,1.807,0,0,1-.2,1.4,1.755,1.755,0,0,1-1.4.6h-.5a2.273,2.273,0,0,1-2.2,2.1s-1.4,0-1.4-1.1V85.5h0c0-1.1,1.4-1.1,1.4-1.1,1.8,0,1.4,1.1,1.4,1.1a3.48,3.48,0,0,1,1.4,1.1,1.689,1.689,0,0,1,.3,1,2.332,2.332,0,0,1-1.1-.2.946.946,0,0,1-.4-.7.5.5,0,1,0-1,0,1.894,1.894,0,0,0,.8,1.5l.6.3-.1.1a2.084,2.084,0,0,0-.6,2.1c.2.5.5.9.6.9.1.1.2.1.4.1a.6.6,0,0,0,.4-.1.483.483,0,0,0,0-.7,1.048,1.048,0,0,1,0-1.6.908.908,0,0,1,.7-.3c.7.1,2,.3,2.2,1.5a1.891,1.891,0,0,1-.8,1.9A1.811,1.811,0,0,1,218.9,94.4Z"/></g></svg>