<svg xmlns="http://www.w3.org/2000/svg" width="24" height="24" viewBox="0 0 24 24"><defs><style>.a,.c{fill:rgba(17,19,23,0.75);}.a{opacity:0;}.b{fill:#efc9c7;}</style></defs><g transform="translate(0 -0.295)"><g transform="translate(0 0.295)"><rect class="a" width="24" height="24"/><circle class="b" cx="9" cy="9" r="9" transform="translate(5.25 4.5)"/><path class="c" d="M12,2A10,10,0,1,0,22,12,10,10,0,0,0,12,2Zm0,18a8,8,0,1,1,8-8A8,8,0,0,1,12,20Z" transform="translate(0 0)"/><path class="c" d="M12.34,7.45a1.7,1.7,0,0,0-1.85-.3,1.6,1.6,0,0,0-1,1.48v6.74a1.6,1.6,0,0,0,1,1.48,1.68,1.68,0,0,0,.69.15,1.74,1.74,0,0,0,1.16-.45L16,13.18a1.6,1.6,0,0,0,0-2.36ZM11.5,14.6V9.4L14.31,12Z" transform="translate(0 0)"/></g></g></svg>