<svg xmlns="http://www.w3.org/2000/svg" width="16" height="16" viewBox="0 0 16 16"><defs><style>.a,.b{fill:#393f4d;}.a{opacity:0;}</style></defs><g transform="translate(-932 -484)"><rect class="a" width="16" height="16" transform="translate(932 484)"/><path class="b" d="M13.908,9.557a2.419,2.419,0,0,1,1.34.879A2.539,2.539,0,0,1,15.724,12a2.408,2.408,0,0,1-.915,2,3.958,3.958,0,0,1-2.518.723H7.752v-10h4.4a3.9,3.9,0,0,1,2.447.688,2.294,2.294,0,0,1,.887,1.922,2.293,2.293,0,0,1-.418,1.376A2.393,2.393,0,0,1,13.908,9.557ZM9.539,8.933h2.312q1.887,0,1.887-1.4a1.211,1.211,0,0,0-.468-1.05,2.413,2.413,0,0,0-1.418-.34H9.539ZM12.092,13.3a2.358,2.358,0,0,0,1.447-.355,1.317,1.317,0,0,0,.454-1.106,1.349,1.349,0,0,0-.461-1.121,2.293,2.293,0,0,0-1.44-.369H9.539V13.3Z" transform="translate(928.248 482.28)"/></g></svg>