<svg xmlns="http://www.w3.org/2000/svg" width="16" height="16" viewBox="0 0 16 16"><defs><style>.a,.b{fill:#393f4d;}.a{opacity:0;}</style></defs><rect class="a" width="16" height="16" transform="translate(16) rotate(90)"/><path class="b" d="M6.428,5.153a.667.667,0,0,0-.94.087l-3.333,4a.667.667,0,0,0,0,.847l3.22,4a.668.668,0,1,0,1.04-.84L3.528,9.666,6.514,6.093a.667.667,0,0,0-.087-.94Z" transform="translate(-0.668 -1.666)"/><path class="b" d="M19.519,9.245l-3.187-4a.668.668,0,1,0-1.04.84l2.847,3.58-2.987,3.58a.665.665,0,0,0,1.027.847l3.333-4a.667.667,0,0,0,.007-.847Z" transform="translate(-4.999 -1.665)"/></svg>