<svg xmlns="http://www.w3.org/2000/svg" width="16" height="16" viewBox="0 0 16 16"><defs><style>.a,.b{fill:#393f4d;}.a{opacity:0;}</style></defs><rect class="a" width="16" height="16"/><path class="b" d="M11.858,9.192,9.191,11.859a.669.669,0,1,0,.947.947L12.8,10.139a.669.669,0,0,0-.947-.947Z" transform="translate(-2.998 -2.999)"/><path class="b" d="M8.856,14.931,8,15.778a2.8,2.8,0,0,1-3.72.267,2.667,2.667,0,0,1-.18-3.953l.947-.953a.669.669,0,1,0-.947-.947l-.847.853a4.1,4.1,0,0,0-.447,5.38,4.04,4.04,0,0,0,6.047.4l.947-.947a.669.669,0,1,0-.947-.947Z" transform="translate(-0.669 -3.331)"/><path class="b" d="M16.44,2.815a4.12,4.12,0,0,0-5.42.453L10.3,4a.727.727,0,0,0-.113,1.073.667.667,0,0,0,.947,0L12,4.2a2.78,2.78,0,0,1,3.713-.267,2.667,2.667,0,0,1,.18,3.967l-.947.953a.669.669,0,1,0,.947.947l.947-.947a4.04,4.04,0,0,0-.4-6.04Z" transform="translate(-3.334 -0.669)"/></svg>