<svg xmlns="http://www.w3.org/2000/svg" width="292" height="612" viewBox="0 0 292 612"><defs><style>.a{fill:#ffe6f0;}.b{fill:#e094b3;}.c{fill:#fff;}</style></defs><g transform="translate(-1168 -136)"><path class="a" d="M0,0H288a4,4,0,0,1,4,4V608a4,4,0,0,1-4,4H0a0,0,0,0,1,0,0V0A0,0,0,0,1,0,0Z" transform="translate(1168 136)"/><g transform="translate(-15 4)"><path class="b" d="M704.618,100.987H651.2V66.648A15.278,15.278,0,0,0,635.94,51.386H567.262A15.28,15.28,0,0,0,552,66.648v64.863a15.278,15.278,0,0,0,15.262,15.262h20.985l10.3,13.734a3.812,3.812,0,0,0,6.1,0l10.3-13.734h5.723v34.339a15.278,15.278,0,0,0,15.262,15.262h20.985l10.3,13.733a3.811,3.811,0,0,0,6.1,0l10.3-13.733h20.985a15.277,15.277,0,0,0,15.262-15.262V116.249A15.278,15.278,0,0,0,704.618,100.987Zm-83.94,15.262v22.893h-7.631A3.811,3.811,0,0,0,610,140.67L601.6,151.859l-8.394-11.189a3.813,3.813,0,0,0-3.053-1.528H567.262a7.639,7.639,0,0,1-7.631-7.631V66.648a7.638,7.638,0,0,1,7.631-7.63H635.94a7.64,7.64,0,0,1,7.631,7.63v34.339H635.94A15.28,15.28,0,0,0,620.678,116.249Zm91.57,64.863a7.641,7.641,0,0,1-7.63,7.63H681.725a3.815,3.815,0,0,0-3.053,1.529l-8.394,11.188-8.394-11.188a3.813,3.813,0,0,0-3.052-1.529H635.94a7.64,7.64,0,0,1-7.631-7.63V116.249a7.639,7.639,0,0,1,7.631-7.631h68.678a7.64,7.64,0,0,1,7.63,7.631Zm-45.785-19.078h7.631V123.88h-7.631Zm0,15.262h7.631v-7.63h-7.631Zm-68.678-45.785h7.631v-7.63h-7.631ZM601.6,70.464c-8.64,0-17.885,5.791-19.063,18.732l7.6.688c1.019-11.221,9.727-11.79,11.462-11.79,2.684,0,11.446.7,11.446,9.778,0,4.786-2.554,7.114-6.72,10.511-3.806,3.1-8.541,6.963-8.541,14.051v3.815h7.631v-3.815c0-3.3,2.071-5.153,5.731-8.139,4.246-3.46,9.531-7.77,9.531-16.423C620.678,77.459,613.011,70.464,601.6,70.464Z" transform="translate(693 176.365)"/><g transform="translate(1314.704 172.772)"><circle class="b" cx="45.161" cy="45.161" r="45.161" transform="translate(0 0)"/><g transform="translate(15.708 15.708)"><path class="c" d="M802.589,54.6a2.121,2.121,0,0,0-2.119,2.119V73.743a1.956,1.956,0,0,0,.877,1.681l9.72,7.308a1.984,1.984,0,0,0,1.242.438,1.955,1.955,0,0,0,1.681-.877,2.121,2.121,0,0,0-.438-3l-8.843-6.577V56.714A2.121,2.121,0,0,0,802.589,54.6Z" transform="translate(-773.795 -42.098)"/><path class="c" d="M794.153,97.861a30.047,30.047,0,0,0,23.9-11.766,2.134,2.134,0,0,0-3.362-2.631,25.9,25.9,0,1,1,5.189-19.148l-3.069-3a2.119,2.119,0,0,0-3,3L820.1,70.6a2.033,2.033,0,0,0,1.535.585,2.359,2.359,0,0,0,1.535-.585l6.285-6.285a2.119,2.119,0,0,0-3-3l-2.339,2.339a30.206,30.206,0,1,0-29.964,34.2Z" transform="translate(-763.97 -37.495)"/></g></g></g></g></svg>