<svg xmlns="http://www.w3.org/2000/svg" width="129.867" height="110.466" viewBox="0 0 129.867 110.466"><defs><style>.a{fill:#e8e8e8;opacity:0.6;}.b{fill:#cecece;}.c{fill:#b5b5b5;}.d{fill:#ddd;}.e,.f,.h,.j{fill:none;}.e,.h{stroke:#cecece;}.e{stroke-linecap:round;stroke-linejoin:round;stroke-dasharray:4;}.f{stroke:#fff;}.f,.h{stroke-miterlimit:10;}.g{fill:#fafafa;}.i{stroke:none;}</style></defs><g transform="translate(-668.982 -1607.97)"><path class="a" d="M770.784,1635.335c-9.672-.584-14.958.628-28.677-11.344s-22.438-14.766-31.227-13.748c-14.449,1.675-24.715,10.091-27.11,26.938-1.808,12.72-.411,14.3-11.827,37.04s13.859,35.6,13.859,35.6,12.582,9.415,34.806,9.018c16.082-.288,26.88-11.643,42.63-14.6,26.561-4.993,34.068-31.388,34.068-31.388C805.242,1640.43,780.456,1635.92,770.784,1635.335Z" transform="translate(0 -0.419)"/><path class="b" d="M794.607,1658.119a1.461,1.461,0,1,1,1.461-1.46A1.463,1.463,0,0,1,794.607,1658.119Zm0-2.478a1.017,1.017,0,1,0,1.017,1.017A1.019,1.019,0,0,0,794.607,1655.641Z" transform="translate(-25.01 -9.513)"/><g transform="translate(733.916 1607.97)"><path class="b" d="M752.319,1611.294a.222.222,0,0,1-.222-.222v-2.88a.222.222,0,1,1,.444,0v2.88A.221.221,0,0,1,752.319,1611.294Z" transform="translate(-750.657 -1607.97)"/><path class="b" d="M753.4,1610.217h-2.88a.222.222,0,0,1,0-.444h2.88a.222.222,0,0,1,0,.444Z" transform="translate(-750.294 -1608.333)"/></g><g transform="translate(753.487 1711.346)"><path class="b" d="M776.828,1740.745a.222.222,0,0,1-.222-.222v-2.88a.222.222,0,0,1,.444,0v2.88A.222.222,0,0,1,776.828,1740.745Z" transform="translate(-775.165 -1737.421)"/><path class="b" d="M777.9,1739.668h-2.88a.222.222,0,0,1,0-.444h2.88a.222.222,0,1,1,0,.444Z" transform="translate(-774.802 -1737.784)"/></g><g transform="translate(699.871 1689.451)"><path class="b" d="M709.132,1712.44a.222.222,0,0,1-.222-.222v-1.993a.222.222,0,0,1,.444,0v1.993A.221.221,0,0,1,709.132,1712.44Z" transform="translate(-707.913 -1710.003)"/><path class="b" d="M709.877,1711.7h-1.993a.222.222,0,1,1,0-.444h1.993a.222.222,0,1,1,0,.444Z" transform="translate(-707.662 -1710.254)"/></g><path class="b" d="M695.219,1717.841a1.548,1.548,0,1,1,1.548-1.548A1.55,1.55,0,0,1,695.219,1717.841Zm0-2.607a1.06,1.06,0,1,0,1.06,1.06A1.061,1.061,0,0,0,695.219,1715.234Z" transform="translate(-4.973 -21.507)"/><g transform="translate(692.114 1687.862)"><path class="b" d="M699.315,1710.258a.15.15,0,0,1-.15-.15v-1.944a.15.15,0,1,1,.3,0v1.944A.15.15,0,0,1,699.315,1710.258Z" transform="translate(-698.193 -1708.013)"/><path class="b" d="M700.043,1709.53H698.1a.15.15,0,1,1,0-.3h1.945a.15.15,0,1,1,0,.3Z" transform="translate(-697.948 -1708.258)"/></g><g transform="translate(698.233 1620.36)"><path class="c" d="M711.53,1664.707h62.633a3.3,3.3,0,0,1,3.276,3.733l-5.742,43.78a2.436,2.436,0,0,1-2.416,2.12h-58.79a2.437,2.437,0,0,1-2.436-2.493l1.04-44.759A2.436,2.436,0,0,1,711.53,1664.707Z" transform="translate(-706.103 -1631.788)"/><rect class="d" width="48.618" height="59.4" rx="3.503" transform="translate(9.96 7.98)"/><g class="e" transform="translate(14.559 14.352)"><rect class="i" width="48.618" height="59.4" rx="3.503"/><rect class="j" x="0.5" y="0.5" width="47.618" height="58.4" rx="3.003"/></g><path class="f" d="M705.611,1669.6a1.891,1.891,0,0,1,1.667-1.88,42.952,42.952,0,0,1,11.234.134c3.377.547,3.405,6.182,10.572,6.182h40.3a1.894,1.894,0,0,1,1.894,1.893v37.066a1.894,1.894,0,0,1-1.894,1.893H707.505a1.894,1.894,0,0,1-1.894-1.893Z" transform="translate(-705.611 -1632.333)"/><path class="g" d="M705.611,1669.6a1.891,1.891,0,0,1,1.667-1.88,42.952,42.952,0,0,1,11.234.134c3.377.547,3.405,6.182,10.572,6.182h40.3a1.894,1.894,0,0,1,1.894,1.893v37.066a1.894,1.894,0,0,1-1.894,1.893H707.505a1.894,1.894,0,0,1-1.894-1.893Z" transform="translate(-705.611 -1632.333)"/><path class="h" d="M705.611,1669.6a1.891,1.891,0,0,1,1.667-1.88,42.952,42.952,0,0,1,11.234.134c3.377.547,3.405,6.182,10.572,6.182h40.3a1.894,1.894,0,0,1,1.894,1.893v37.066a1.894,1.894,0,0,1-1.894,1.893H707.505a1.894,1.894,0,0,1-1.894-1.893Z" transform="translate(-705.611 -1632.333)"/><g transform="translate(1.889)"><path class="b" d="M712.815,1630.661l-2.625-1.878q-.766-.55-1.085-.807a1.381,1.381,0,0,1-.527-.734.773.773,0,0,1,.157-.7.628.628,0,0,1,.715-.251,3.191,3.191,0,0,1,1,.6q.346.278.679.595l2.435,2.264a3.032,3.032,0,0,1,.6.7.441.441,0,0,1-.019.529.423.423,0,0,1-.5.135A3.556,3.556,0,0,1,712.815,1630.661Z" transform="translate(-708.093 -1624.045)"/><path class="b" d="M715.739,1628.057l-.875-2.416q-.255-.706-.349-1.019a1.1,1.1,0,0,1-.014-.719.612.612,0,0,1,.416-.386.5.5,0,0,1,.582.158,2.533,2.533,0,0,1,.388.842c.068.226.127.458.177.7l.577,2.583a2.447,2.447,0,0,1,.081.73.352.352,0,0,1-.252.339.338.338,0,0,1-.391-.137A2.838,2.838,0,0,1,715.739,1628.057Z" transform="translate(-709.28 -1623.485)"/><path class="b" d="M711.368,1634.087l-1.871.253q-.547.073-.787.092a.814.814,0,0,1-.52-.1.451.451,0,0,1-.212-.359.366.366,0,0,1,.2-.394,1.866,1.866,0,0,1,.666-.148c.172-.014.348-.02.527-.019l1.946-.013a1.817,1.817,0,0,1,.537.056.257.257,0,0,1,.2.234.246.246,0,0,1-.159.259A2.063,2.063,0,0,1,711.368,1634.087Z" transform="translate(-707.977 -1625.482)"/></g></g><g transform="translate(724.837 1671.211)"><path class="b" d="M744.858,1703.417a.994.994,0,0,1-.216-.68,7.122,7.122,0,0,1,.7-3.276,17.559,17.559,0,0,1,1.993-2.966,17.271,17.271,0,0,0,1.561-2.256,4.218,4.218,0,0,0,.509-2.07,2.516,2.516,0,0,0-.957-2.087,4.082,4.082,0,0,0-2.6-.756,6.065,6.065,0,0,0-2.565.541,15.074,15.074,0,0,0-2.657,1.653,1.642,1.642,0,0,1-.866.371.709.709,0,0,1-.6-.324,1.265,1.265,0,0,1-.232-.757,1.44,1.44,0,0,1,.494-1.081,9.172,9.172,0,0,1,3.013-1.87,9.661,9.661,0,0,1,3.538-.695,6.724,6.724,0,0,1,4.342,1.329,4.267,4.267,0,0,1,1.653,3.491,5.5,5.5,0,0,1-.7,2.828,18.6,18.6,0,0,1-2.116,2.8,21.468,21.468,0,0,0-2.055,2.673,6.118,6.118,0,0,0-.881,2.674.75.75,0,0,1-.248.525.825.825,0,0,1-.557.185A.7.7,0,0,1,744.858,1703.417Zm-.634,5.438a1.708,1.708,0,0,1-.478-1.236,1.763,1.763,0,0,1,.478-1.251,1.718,1.718,0,0,1,2.442,0,1.762,1.762,0,0,1,.478,1.251,1.708,1.708,0,0,1-.478,1.236,1.755,1.755,0,0,1-2.442,0Z" transform="translate(-738.925 -1687.163)"/></g></g></svg>