<svg xmlns="http://www.w3.org/2000/svg" xmlns:xlink="http://www.w3.org/1999/xlink" width="19.6" height="40" viewBox="0 0 19.6 40"><defs><style>.a{fill:#c4fcb3;}.b{fill:none;}.c{opacity:0.6;clip-path:url(#a);}.d{clip-path:url(#b);}</style><clipPath id="a"><path class="a" d="M19.6,0h0a0,0,0,0,1,0,0V40a0,0,0,0,1,0,0h0A19.6,19.6,0,0,1,0,20.4v-.8A19.6,19.6,0,0,1,19.6,0Z"/></clipPath><clipPath id="b"><rect class="b" width="11.4" height="40"/></clipPath></defs><g class="c"><g class="d"><g transform="translate(-1014 -487)"><circle class="a" cx="1.5" cy="1.5" r="1.5" transform="translate(1014 487)"/></g><g transform="translate(-1010 -487)"><circle class="a" cx="1.5" cy="1.5" r="1.5" transform="translate(1014 487)"/></g><g transform="translate(-1006 -487)"><circle class="a" cx="1.5" cy="1.5" r="1.5" transform="translate(1014 487)"/></g><g transform="translate(-1014 -483)"><circle class="a" cx="1.5" cy="1.5" r="1.5" transform="translate(1014 487)"/></g><g transform="translate(-1010 -483)"><circle class="a" cx="1.5" cy="1.5" r="1.5" transform="translate(1014 487)"/></g><g transform="translate(-1006 -483)"><circle class="a" cx="1.5" cy="1.5" r="1.5" transform="translate(1014 487)"/></g><g transform="translate(-1014 -479)"><circle class="a" cx="1.5" cy="1.5" r="1.5" transform="translate(1014 487)"/></g><g transform="translate(-1010 -479)"><circle class="a" cx="1.5" cy="1.5" r="1.5" transform="translate(1014 487)"/></g><g transform="translate(-1006 -479)"><circle class="a" cx="1.5" cy="1.5" r="1.5" transform="translate(1014 487)"/></g><g transform="translate(-1014 -475)"><circle class="a" cx="1.5" cy="1.5" r="1.5" transform="translate(1014 487)"/></g><g transform="translate(-1010 -475)"><circle class="a" cx="1.5" cy="1.5" r="1.5" transform="translate(1014 487)"/></g><g transform="translate(-1006 -475)"><circle class="a" cx="1.5" cy="1.5" r="1.5" transform="translate(1014 487)"/></g><g transform="translate(-1014 -471)"><circle class="a" cx="1.5" cy="1.5" r="1.5" transform="translate(1014 487)"/></g><g transform="translate(-1010 -471)"><circle class="a" cx="1.5" cy="1.5" r="1.5" transform="translate(1014 487)"/></g><g transform="translate(-1006 -471)"><circle class="a" cx="1.5" cy="1.5" r="1.5" transform="translate(1014 487)"/></g><g transform="translate(-1014 -467)"><circle class="a" cx="1.5" cy="1.5" r="1.5" transform="translate(1014 487)"/></g><g transform="translate(-1010 -467)"><circle class="a" cx="1.5" cy="1.5" r="1.5" transform="translate(1014 487)"/></g><g transform="translate(-1006 -467)"><circle class="a" cx="1.5" cy="1.5" r="1.5" transform="translate(1014 487)"/></g><g transform="translate(-1014 -463)"><circle class="a" cx="1.5" cy="1.5" r="1.5" transform="translate(1014 487)"/></g><g transform="translate(-1010 -463)"><circle class="a" cx="1.5" cy="1.5" r="1.5" transform="translate(1014 487)"/></g><g transform="translate(-1006 -463)"><circle class="a" cx="1.5" cy="1.5" r="1.5" transform="translate(1014 487)"/></g><g transform="translate(-1014 -459)"><circle class="a" cx="1.5" cy="1.5" r="1.5" transform="translate(1014 487)"/></g><g transform="translate(-1010 -459)"><circle class="a" cx="1.5" cy="1.5" r="1.5" transform="translate(1014 487)"/></g><g transform="translate(-1006 -459)"><circle class="a" cx="1.5" cy="1.5" r="1.5" transform="translate(1014 487)"/></g><g transform="translate(-1014 -455)"><circle class="a" cx="1.5" cy="1.5" r="1.5" transform="translate(1014 487)"/></g><g transform="translate(-1010 -455)"><circle class="a" cx="1.5" cy="1.5" r="1.5" transform="translate(1014 487)"/></g><g transform="translate(-1006 -455)"><circle class="a" cx="1.5" cy="1.5" r="1.5" transform="translate(1014 487)"/></g><g transform="translate(-1014 -451)"><circle class="a" cx="1.5" cy="1.5" r="1.5" transform="translate(1014 487)"/></g><g transform="translate(-1010 -451)"><circle class="a" cx="1.5" cy="1.5" r="1.5" transform="translate(1014 487)"/></g><g transform="translate(-1006 -451)"><circle class="a" cx="1.5" cy="1.5" r="1.5" transform="translate(1014 487)"/></g></g></g></svg>