<svg xmlns="http://www.w3.org/2000/svg" xmlns:xlink="http://www.w3.org/1999/xlink" width="19.6" height="40" viewBox="0 0 19.6 40"><defs><style>.a{fill:#ffbdbd;}.b{fill:none;}.c{opacity:0.6;clip-path:url(#a);}.d{clip-path:url(#b);}.e{clip-path:url(#c);}</style><clipPath id="a"><path class="a" d="M19.6,0h0a0,0,0,0,1,0,0V40a0,0,0,0,1,0,0h0A19.6,19.6,0,0,1,0,20.4v-.8A19.6,19.6,0,0,1,19.6,0Z"/></clipPath><clipPath id="b"><rect class="b" width="12.4" height="41"/></clipPath><clipPath id="c"><rect class="a" width="8" height="8"/></clipPath></defs><g class="c"><g class="d" transform="translate(0 -1)"><g transform="translate(-1136 -1065)"><g class="e" transform="translate(1136 1065)"><g transform="translate(-1.66 0)"><rect class="a" width="2" height="14" transform="matrix(0.454, 0.891, -0.891, 0.454, 13.134, -1.037)"/><rect class="a" width="2" height="23" transform="matrix(0.438, 0.899, -0.899, 0.438, 19.332, -7.88)"/><rect class="a" width="2" height="20" transform="matrix(0.438, 0.899, -0.899, 0.438, 18.636, 0.435)"/></g></g></g><g transform="translate(-1128 -1065)"><g class="e" transform="translate(1136 1065)"><g transform="translate(-1.66 0)"><rect class="a" width="2" height="14" transform="matrix(0.454, 0.891, -0.891, 0.454, 13.134, -1.037)"/><rect class="a" width="2" height="23" transform="matrix(0.438, 0.899, -0.899, 0.438, 19.332, -7.88)"/><rect class="a" width="2" height="20" transform="matrix(0.438, 0.899, -0.899, 0.438, 18.636, 0.435)"/></g></g></g><g transform="translate(-1136 -1057)"><g class="e" transform="translate(1136 1065)"><g transform="translate(-1.66 0)"><rect class="a" width="2" height="14" transform="matrix(0.454, 0.891, -0.891, 0.454, 13.134, -1.037)"/><rect class="a" width="2" height="23" transform="matrix(0.438, 0.899, -0.899, 0.438, 19.332, -7.88)"/><rect class="a" width="2" height="20" transform="matrix(0.438, 0.899, -0.899, 0.438, 18.636, 0.435)"/></g></g></g><g transform="translate(-1128 -1057)"><g class="e" transform="translate(1136 1065)"><g transform="translate(-1.66 0)"><rect class="a" width="2" height="14" transform="matrix(0.454, 0.891, -0.891, 0.454, 13.134, -1.037)"/><rect class="a" width="2" height="23" transform="matrix(0.438, 0.899, -0.899, 0.438, 19.332, -7.88)"/><rect class="a" width="2" height="20" transform="matrix(0.438, 0.899, -0.899, 0.438, 18.636, 0.435)"/></g></g></g><g transform="translate(-1136 -1049)"><g class="e" transform="translate(1136 1065)"><g transform="translate(-1.66 0)"><rect class="a" width="2" height="14" transform="matrix(0.454, 0.891, -0.891, 0.454, 13.134, -1.037)"/><rect class="a" width="2" height="23" transform="matrix(0.438, 0.899, -0.899, 0.438, 19.332, -7.88)"/><rect class="a" width="2" height="20" transform="matrix(0.438, 0.899, -0.899, 0.438, 18.636, 0.435)"/></g></g></g><g transform="translate(-1128 -1049)"><g class="e" transform="translate(1136 1065)"><g transform="translate(-1.66 0)"><rect class="a" width="2" height="14" transform="matrix(0.454, 0.891, -0.891, 0.454, 13.134, -1.037)"/><rect class="a" width="2" height="23" transform="matrix(0.438, 0.899, -0.899, 0.438, 19.332, -7.88)"/><rect class="a" width="2" height="20" transform="matrix(0.438, 0.899, -0.899, 0.438, 18.636, 0.435)"/></g></g></g><g transform="translate(-1136 -1041)"><g class="e" transform="translate(1136 1065)"><g transform="translate(-1.66 0)"><rect class="a" width="2" height="14" transform="matrix(0.454, 0.891, -0.891, 0.454, 13.134, -1.037)"/><rect class="a" width="2" height="23" transform="matrix(0.438, 0.899, -0.899, 0.438, 19.332, -7.88)"/><rect class="a" width="2" height="20" transform="matrix(0.438, 0.899, -0.899, 0.438, 18.636, 0.435)"/></g></g></g><g transform="translate(-1128 -1041)"><g class="e" transform="translate(1136 1065)"><g transform="translate(-1.66 0)"><rect class="a" width="2" height="14" transform="matrix(0.454, 0.891, -0.891, 0.454, 13.134, -1.037)"/><rect class="a" width="2" height="23" transform="matrix(0.438, 0.899, -0.899, 0.438, 19.332, -7.88)"/><rect class="a" width="2" height="20" transform="matrix(0.438, 0.899, -0.899, 0.438, 18.636, 0.435)"/></g></g></g><g transform="translate(-1136 -1033)"><g class="e" transform="translate(1136 1065)"><g transform="translate(-1.66 0)"><rect class="a" width="2" height="14" transform="matrix(0.454, 0.891, -0.891, 0.454, 13.134, -1.037)"/><rect class="a" width="2" height="23" transform="matrix(0.438, 0.899, -0.899, 0.438, 19.332, -7.88)"/><rect class="a" width="2" height="20" transform="matrix(0.438, 0.899, -0.899, 0.438, 18.636, 0.435)"/></g></g></g><g transform="translate(-1128 -1033)"><g class="e" transform="translate(1136 1065)"><g transform="translate(-1.66 0)"><rect class="a" width="2" height="14" transform="matrix(0.454, 0.891, -0.891, 0.454, 13.134, -1.037)"/><rect class="a" width="2" height="23" transform="matrix(0.438, 0.899, -0.899, 0.438, 19.332, -7.88)"/><rect class="a" width="2" height="20" transform="matrix(0.438, 0.899, -0.899, 0.438, 18.636, 0.435)"/></g></g></g><g transform="translate(-1136 -1025)"><g class="e" transform="translate(1136 1065)"><g transform="translate(-1.66 0)"><rect class="a" width="2" height="14" transform="matrix(0.454, 0.891, -0.891, 0.454, 13.134, -1.037)"/><rect class="a" width="2" height="23" transform="matrix(0.438, 0.899, -0.899, 0.438, 19.332, -7.88)"/><rect class="a" width="2" height="20" transform="matrix(0.438, 0.899, -0.899, 0.438, 18.636, 0.435)"/></g></g></g><g transform="translate(-1128 -1025)"><g class="e" transform="translate(1136 1065)"><g transform="translate(-1.66 0)"><rect class="a" width="2" height="14" transform="matrix(0.454, 0.891, -0.891, 0.454, 13.134, -1.037)"/><rect class="a" width="2" height="23" transform="matrix(0.438, 0.899, -0.899, 0.438, 19.332, -7.88)"/><rect class="a" width="2" height="20" transform="matrix(0.438, 0.899, -0.899, 0.438, 18.636, 0.435)"/></g></g></g></g></g></svg>