<svg xmlns="http://www.w3.org/2000/svg" xmlns:xlink="http://www.w3.org/1999/xlink" width="531.583" height="326.106" viewBox="0 0 531.583 326.106"><defs><style>.a{fill:#f9eaf0;}.b{fill:#e094b3;}.c{opacity:0.2;}.d,.n{fill:#fff;}.e{fill:#94355b;}.f{fill:#333;opacity:0.25;}.g{fill:#600f30;}.h{fill:#ffdf78;}.i,.k{fill:#e6b43e;}.i{stroke:#ffdf78;stroke-miterlimit:10;stroke-width:1.5px;}.j{opacity:0.4;fill:url(#a);}.l,.m,.n{opacity:0.6;}.m{fill:url(#b);}</style><linearGradient id="a" x1="1.309" y1="0.582" x2="-0.423" y2="0.399" gradientUnits="objectBoundingBox"><stop offset="0" stop-color="#ffdf78"/><stop offset="1" stop-color="#e6b43e"/></linearGradient><linearGradient id="b" x1="0" y1="0.5" x2="1" y2="0.5" xlink:href="#a"/></defs><g transform="translate(-728.249 -27.517)"><path class="a" d="M1099.486,92.69c-24.931-1.5-38.556,1.616-73.917-29.239s-57.836-38.062-80.486-35.437c-37.243,4.316-63.706,26.012-69.878,69.435-4.661,32.786-1.06,36.854-30.486,95.474s35.724,91.77,35.724,91.77,32.431,24.268,89.714,23.243c41.45-.742,69.284-30.01,109.882-37.643,68.462-12.871,87.811-80.9,87.811-80.9C1188.3,105.819,1124.417,94.2,1099.486,92.69Z" transform="translate(-2.478 0)"/><path class="b" d="M1035.21,317H1028.3a1.144,1.144,0,0,1,0-2.289h6.865a1.165,1.165,0,0,1,1.168,1.144A1.124,1.124,0,0,1,1035.21,317Zm-13.778,0h-6.865a1.144,1.144,0,0,1,0-2.289h6.865a1.144,1.144,0,1,1,0,2.289Zm-13.731,0h-6.865a1.144,1.144,0,0,1,0-2.289h6.865a1.144,1.144,0,0,1,0,2.289Zm-13.731,0H987.1a1.144,1.144,0,1,1,0-2.289h6.865a1.144,1.144,0,1,1,0,2.289Zm-13.731,0h-6.865a1.144,1.144,0,1,1,0-2.289h6.865a1.144,1.144,0,0,1,0,2.289Zm-13.731,0h-6.865a1.144,1.144,0,0,1,0-2.289h6.865a1.144,1.144,0,0,1,0,2.289Zm-13.731,0h-6.865a1.144,1.144,0,1,1,0-2.289h6.865a1.144,1.144,0,0,1,0,2.289Zm-13.731,0H932.18a1.144,1.144,0,0,1,0-2.289h6.865a1.144,1.144,0,0,1,0,2.289Zm-13.73,0h-6.866a1.144,1.144,0,0,1,0-2.289h6.866a1.144,1.144,0,1,1,0,2.289Zm-13.731,0h0a5.159,5.159,0,0,1-5.153-5.154v-.562a1.144,1.144,0,0,1,2.289,0v.562a2.868,2.868,0,0,0,2.864,2.865,1.144,1.144,0,1,1,0,2.289Zm127.589-4.62a1.144,1.144,0,0,1-1.144-1.144v-6.865a1.144,1.144,0,0,1,2.289,0v6.865A1.144,1.144,0,0,1,1039.173,312.378Zm-131.6-6.817a1.144,1.144,0,0,1-1.144-1.144v-6.865a1.144,1.144,0,0,1,2.289,0v6.865A1.144,1.144,0,0,1,907.572,305.561Zm131.6-6.914a1.144,1.144,0,0,1-1.144-1.144v-6.865a1.144,1.144,0,0,1,2.289,0V297.5A1.143,1.143,0,0,1,1039.173,298.647Zm-131.6-6.817a1.144,1.144,0,0,1-1.144-1.144v-6.865a1.144,1.144,0,0,1,2.289,0v6.865A1.144,1.144,0,0,1,907.572,291.83Zm131.6-6.914a1.144,1.144,0,0,1-1.144-1.144v-6.865a1.144,1.144,0,0,1,2.289,0v6.865A1.143,1.143,0,0,1,1039.173,284.916Zm-131.6-6.817a1.144,1.144,0,0,1-1.144-1.144V270.09a1.144,1.144,0,0,1,2.289,0v6.865A1.144,1.144,0,0,1,907.572,278.1Zm131.6-6.914a1.144,1.144,0,0,1-1.144-1.144v-6.865a1.144,1.144,0,1,1,2.289,0v6.865A1.143,1.143,0,0,1,1039.173,271.185Zm-131.6-6.817a1.144,1.144,0,0,1-1.144-1.144v-6.865a1.144,1.144,0,0,1,2.289,0v6.865A1.144,1.144,0,0,1,907.572,264.368Zm131.6-6.914a1.144,1.144,0,0,1-1.144-1.144v-6.865a1.144,1.144,0,0,1,2.289,0v6.865A1.143,1.143,0,0,1,1039.173,257.454Zm-131.6-6.816a1.144,1.144,0,0,1-1.144-1.144v-6.866a1.144,1.144,0,0,1,2.289,0v6.866A1.144,1.144,0,0,1,907.572,250.638Zm131.6-6.915a1.144,1.144,0,0,1-1.144-1.144v-6.865a1.144,1.144,0,0,1,2.289,0v6.865A1.143,1.143,0,0,1,1039.173,243.723Zm-131.6-6.816a1.144,1.144,0,0,1-1.144-1.144V228.9a1.144,1.144,0,0,1,2.289,0v6.866A1.144,1.144,0,0,1,907.572,236.906Zm131.6-6.915a1.144,1.144,0,0,1-1.144-1.144v-6.865a1.144,1.144,0,0,1,2.289,0v6.865A1.143,1.143,0,0,1,1039.173,229.992Zm-131.6-6.816a1.144,1.144,0,0,1-1.144-1.144v-6.866a1.144,1.144,0,0,1,2.289,0v6.866A1.144,1.144,0,0,1,907.572,223.175Zm131.6-6.915a1.144,1.144,0,0,1-1.144-1.144v-6.865a1.144,1.144,0,0,1,2.289,0v6.865A1.143,1.143,0,0,1,1039.173,216.26Zm-131.6-6.816a1.144,1.144,0,0,1-1.144-1.144v-6.866a1.144,1.144,0,0,1,2.289,0V208.3A1.144,1.144,0,0,1,907.572,209.444Zm131.6-6.914a1.144,1.144,0,0,1-1.144-1.144V194.52a1.144,1.144,0,0,1,2.289,0v6.866A1.143,1.143,0,0,1,1039.173,202.53Zm-131.6-6.817a1.144,1.144,0,0,1-1.144-1.144V187.7a1.144,1.144,0,0,1,2.289,0v6.866A1.144,1.144,0,0,1,907.572,195.713Zm131.6-6.914a1.144,1.144,0,0,1-1.144-1.144v-6.866a1.144,1.144,0,0,1,2.289,0v6.866A1.143,1.143,0,0,1,1039.173,188.8Zm-131.6-6.817a1.144,1.144,0,0,1-1.144-1.144v-6.866a1.144,1.144,0,0,1,2.289,0v6.866A1.144,1.144,0,0,1,907.572,181.982Zm131.6-6.914a1.144,1.144,0,0,1-1.144-1.144v-6.866a1.144,1.144,0,0,1,2.289,0v6.866A1.143,1.143,0,0,1,1039.173,175.068Zm-131.6-6.817a1.144,1.144,0,0,1-1.144-1.144V160.24a1.144,1.144,0,0,1,2.289,0v6.866A1.144,1.144,0,0,1,907.572,168.251Zm131.6-6.914a1.144,1.144,0,0,1-1.144-1.144v-6.866a1.144,1.144,0,0,1,2.289,0v6.866A1.143,1.143,0,0,1,1039.173,161.337Zm-131.6-6.817a1.144,1.144,0,0,1-1.144-1.144v-6.866a1.144,1.144,0,0,1,2.289,0v6.866A1.144,1.144,0,0,1,907.572,154.52Zm131.6-6.914a1.144,1.144,0,0,1-1.144-1.144V139.6a1.144,1.144,0,0,1,2.289,0v6.866A1.143,1.143,0,0,1,1039.173,147.606Zm-131.6-6.817a1.144,1.144,0,0,1-1.144-1.144v-.589a5.166,5.166,0,0,1,5.124-5.154h.007a1.144,1.144,0,0,1,.007,2.289,2.873,2.873,0,0,0-2.849,2.865v.589A1.144,1.144,0,0,1,907.572,140.789Zm127.565-4.6h-6.865a1.144,1.144,0,0,1,0-2.289h6.865a1.144,1.144,0,1,1,0,2.289Zm-13.731,0h-6.865a1.144,1.144,0,1,1,0-2.289h6.865a1.144,1.144,0,1,1,0,2.289Zm-13.731,0h-6.865a1.144,1.144,0,0,1,0-2.289h6.865a1.144,1.144,0,1,1,0,2.289Zm-13.731,0h-6.865a1.144,1.144,0,0,1,0-2.289h6.865a1.144,1.144,0,1,1,0,2.289Zm-13.731,0h-6.865a1.144,1.144,0,0,1,0-2.289h6.865a1.144,1.144,0,0,1,0,2.289Zm-13.73,0h-6.866a1.144,1.144,0,0,1,0-2.289h6.866a1.144,1.144,0,1,1,0,2.289Zm-13.731,0h-6.866a1.144,1.144,0,1,1,0-2.289h6.866a1.144,1.144,0,1,1,0,2.289Zm-13.731,0h-6.866a1.144,1.144,0,0,1,0-2.289h6.866a1.144,1.144,0,0,1,0,2.289Zm-13.731,0h-6.866a1.144,1.144,0,0,1,0-2.289h6.866a1.144,1.144,0,1,1,0,2.289Z" transform="translate(-4.056 -2.422)"/><g class="c" transform="translate(728.248 116.467)"><path class="b" d="M749.664,123.077q10.5-4.821,19.99-4.016a30.39,30.39,0,0,1,16.962,6.882,45.441,45.441,0,0,1,12.338,16.673,49.653,49.653,0,0,1,4.414,15.207,33.905,33.905,0,0,1-1.261,14.019A30.575,30.575,0,0,1,795,183.806a45.166,45.166,0,0,1-28.361,12.936,30.966,30.966,0,0,1-13.766-2.41,33.889,33.889,0,0,1-11.473-8.286,49.751,49.751,0,0,1-8.634-13.159,48.059,48.059,0,0,1-4.32-15.305,33.7,33.7,0,0,1,1.4-14.027,30.8,30.8,0,0,1,7.114-11.715A40.916,40.916,0,0,1,749.664,123.077Zm35.382,25.81a34.858,34.858,0,0,0-8.295-11.752,19.685,19.685,0,0,0-10.615-5.083,20.69,20.69,0,0,0-11.482,1.9,20.32,20.32,0,0,0-6.869,5.021,18.318,18.318,0,0,0-3.927,7.241,23.591,23.591,0,0,0-.505,9.349,37.466,37.466,0,0,0,3.276,10.963,38.361,38.361,0,0,0,6.229,9.743A23.461,23.461,0,0,0,760.5,182.1a18.933,18.933,0,0,0,8.184,1.792,21.139,21.139,0,0,0,16.675-8.993,19.973,19.973,0,0,0,3.281-11.322A34.5,34.5,0,0,0,785.046,148.886Z" transform="translate(-728.248 -118.548)"/><path class="b" d="M871.782,143.443A32.705,32.705,0,0,1,871.226,155a25.2,25.2,0,0,1-4.469,9.572,24.606,24.606,0,0,1-7.971,6.749,30.856,30.856,0,0,1-11.086,3.344,29.948,29.948,0,0,1-11.464-.668,24.945,24.945,0,0,1-15.918-12.922A32.592,32.592,0,0,1,817.077,150a33,33,0,0,1,.543-11.654,25.023,25.023,0,0,1,4.424-9.514,24.361,24.361,0,0,1,7.977-6.7,33.006,33.006,0,0,1,22.55-2.677,24.53,24.53,0,0,1,15.966,12.892A32.86,32.86,0,0,1,871.782,143.443Zm-13.79,1.653q-1.007-8.4-5.266-12.642a12.1,12.1,0,0,0-10.5-3.489,12.4,12.4,0,0,0-6.846,2.939,13.335,13.335,0,0,0-3.992,6.732,28.182,28.182,0,0,0,2.242,18.924,13.574,13.574,0,0,0,5.42,5.6,12.241,12.241,0,0,0,7.428,1.28,12.075,12.075,0,0,0,9.375-5.9Q858.988,153.4,857.992,145.1Z" transform="translate(-730.264 -118.539)"/><path class="b" d="M938.185,153.521a32.727,32.727,0,0,1-3.945,10.872,25.181,25.181,0,0,1-7.1,7.823,24.61,24.61,0,0,1-9.61,4.093,30.842,30.842,0,0,1-11.578-.081A29.99,29.99,0,0,1,895.2,172.2a24.949,24.949,0,0,1-11.389-17.05,32.623,32.623,0,0,1,.176-11.535,32.993,32.993,0,0,1,3.964-10.972,25.029,25.029,0,0,1,7.038-7.782,24.352,24.352,0,0,1,9.6-4.042,33,33,0,0,1,22.333,4.106,24.52,24.52,0,0,1,11.443,17.034A32.824,32.824,0,0,1,938.185,153.521Zm-13.661-2.5q1.52-8.328-1.3-13.633a12.1,12.1,0,0,0-9-6.437,12.4,12.4,0,0,0-7.409.784,13.327,13.327,0,0,0-5.8,5.252,28.174,28.174,0,0,0-3.452,18.743,13.581,13.581,0,0,0,3.521,6.955,12.223,12.223,0,0,0,6.717,3.417,12.071,12.071,0,0,0,10.7-2.862Q923.021,159.251,924.525,151.025Z" transform="translate(-731.78 -118.579)"/><path class="b" d="M998.518,182.819a32.727,32.727,0,0,1-6.836,9.329,25.207,25.207,0,0,1-9.007,5.518A24.614,24.614,0,0,1,972.3,198.9a30.812,30.812,0,0,1-11.092-3.326,29.943,29.943,0,0,1-9.193-6.881,24.949,24.949,0,0,1-6.15-19.559,32.627,32.627,0,0,1,3.406-11.022,32.99,32.99,0,0,1,6.882-9.421,25.024,25.024,0,0,1,8.939-5.5,24.363,24.363,0,0,1,10.35-1.185,32.984,32.984,0,0,1,20.284,10.206,24.517,24.517,0,0,1,6.205,19.559A32.794,32.794,0,0,1,998.518,182.819ZM986.1,176.59q3.8-7.565,2.582-13.45a12.1,12.1,0,0,0-6.834-8.7,12.394,12.394,0,0,0-7.331-1.325,13.32,13.32,0,0,0-7.042,3.413,28.16,28.16,0,0,0-8.57,17.022,13.584,13.584,0,0,0,1.428,7.664,12.243,12.243,0,0,0,5.489,5.164,12.076,12.076,0,0,0,11.074.254Q982.354,184.065,986.1,176.59Z" transform="translate(-733.198 -119.071)"/><path class="b" d="M1053.07,218.258a32.711,32.711,0,0,1-7.685,8.643,25.2,25.2,0,0,1-9.488,4.644,24.615,24.615,0,0,1-10.442.247,30.848,30.848,0,0,1-10.727-4.357,29.94,29.94,0,0,1-8.5-7.719,24.95,24.95,0,0,1-4.275-20.052,32.615,32.615,0,0,1,4.429-10.652,33.053,33.053,0,0,1,7.74-8.73,25.053,25.053,0,0,1,9.418-4.627,24.36,24.36,0,0,1,10.415-.2,33.01,33.01,0,0,1,19.231,12.075,24.533,24.533,0,0,1,4.332,20.059A32.806,32.806,0,0,1,1053.07,218.258Zm-11.77-7.372q4.494-7.172,3.84-13.146a12.1,12.1,0,0,0-5.983-9.309,12.4,12.4,0,0,0-7.172-2.01,13.327,13.327,0,0,0-7.335,2.732,28.18,28.18,0,0,0-10.138,16.138,13.581,13.581,0,0,0,.7,7.764,12.242,12.242,0,0,0,4.977,5.66,12.073,12.073,0,0,0,11,1.3Q1036.862,217.975,1041.3,210.886Z" transform="translate(-734.466 -119.824)"/><path class="b" d="M1112.467,247.874a32.653,32.653,0,0,1-6.586,9.507,25.186,25.186,0,0,1-8.855,5.757,24.593,24.593,0,0,1-10.336,1.506,30.8,30.8,0,0,1-11.176-3.028,29.935,29.935,0,0,1-9.374-6.634,24.941,24.941,0,0,1-6.666-19.389,32.589,32.589,0,0,1,3.109-11.109,33,33,0,0,1,6.629-9.6,25.033,25.033,0,0,1,8.789-5.73,24.357,24.357,0,0,1,10.315-1.462,32.99,32.99,0,0,1,20.548,9.663,24.534,24.534,0,0,1,6.724,19.388A32.814,32.814,0,0,1,1112.467,247.874Zm-12.574-5.9q3.594-7.663,2.223-13.513a12.106,12.106,0,0,0-7.063-8.519,12.4,12.4,0,0,0-7.364-1.13,13.326,13.326,0,0,0-6.95,3.6,28.162,28.162,0,0,0-8.114,17.243,13.572,13.572,0,0,0,1.632,7.622,12.243,12.243,0,0,0,5.625,5.018,12.074,12.074,0,0,0,11.075-.042Q1096.343,249.549,1099.893,241.977Z" transform="translate(-735.786 -120.567)"/><path class="b" d="M1144.709,237.169l-.5,1.6a27.338,27.338,0,0,1,9.845-4.342,19.859,19.859,0,0,1,9.768.677,22.079,22.079,0,0,1,10.25,6.641,22.712,22.712,0,0,1,5.245,11.717,33.647,33.647,0,0,1-1.482,15.252,36.582,36.582,0,0,1-5.2,10.669,26.347,26.347,0,0,1-7.384,7.1,21.573,21.573,0,0,1-8.747,3.116,21.915,21.915,0,0,1-9.364-.87,19.286,19.286,0,0,1-8.8-5.234,28.456,28.456,0,0,1-5.253-8.96l-6.175,19.843q-2.712,8.712-9.05,6.739-3.729-1.161-4.238-3.788a14.854,14.854,0,0,1,.831-6.934l17.741-57.011q1.175-3.775,3.4-5.126a5.962,5.962,0,0,1,5.081-.463,6.223,6.223,0,0,1,3.978,3.335A8.177,8.177,0,0,1,1144.709,237.169Zm19.913,27.272a23.913,23.913,0,0,0,1.2-9.476,13.8,13.8,0,0,0-2.635-7.137,11.106,11.106,0,0,0-5.642-3.959,12.317,12.317,0,0,0-10.561,1.44q-5.091,3.14-7.7,11.513-2.453,7.888-.09,13.428a12.206,12.206,0,0,0,7.88,7.256,11.111,11.111,0,0,0,6.693-.015,13.772,13.772,0,0,0,6.284-4.334A23.826,23.826,0,0,0,1164.623,264.441Z" transform="translate(-737.018 -121.018)"/><path class="b" d="M1234.462,290.328a16.048,16.048,0,0,1-13.74,13.729,36.929,36.929,0,0,1-13.417-.334,32.333,32.333,0,0,1-12.147-4.557,18.6,18.6,0,0,1-6.693-7.033,11.481,11.481,0,0,1-1.247-7.212,5.317,5.317,0,0,1,2.3-3.545,5.563,5.563,0,0,1,4.331-.85,4.791,4.791,0,0,1,3.1,1.652,11.645,11.645,0,0,1,1.652,3.345,15.161,15.161,0,0,0,4.008,6.357,15.356,15.356,0,0,0,7.619,3.259,11.673,11.673,0,0,0,7.039-.583q2.954-1.337,3.385-3.679a5.762,5.762,0,0,0-1.752-5.735,34.157,34.157,0,0,0-8.369-4.788,75.308,75.308,0,0,1-10.764-5.773,19.126,19.126,0,0,1-6.12-6.36,11.779,11.779,0,0,1-1.219-8.213,13.85,13.85,0,0,1,3.867-7.276,17.017,17.017,0,0,1,8.273-4.479,28.022,28.022,0,0,1,11.888-.052,38.461,38.461,0,0,1,9.294,2.847,24.149,24.149,0,0,1,6.486,4.236,14.776,14.776,0,0,1,3.534,4.878,8.129,8.129,0,0,1,.662,4.657,5.154,5.154,0,0,1-2.277,3.549,6.328,6.328,0,0,1-4.738.673,5.56,5.56,0,0,1-3.342-1.853,23.876,23.876,0,0,1-2.7-4.209,12.518,12.518,0,0,0-3.051-3.861,11.647,11.647,0,0,0-5.461-2.244,11.312,11.312,0,0,0-6.42.44,4.656,4.656,0,0,0-3.164,3.463,4.306,4.306,0,0,0,1.147,3.844,15.114,15.114,0,0,0,4.417,3.159q2.873,1.458,7.969,3.737a45.533,45.533,0,0,1,9.665,5.595,17.5,17.5,0,0,1,5.148,6.179A11.412,11.412,0,0,1,1234.462,290.328Z" transform="translate(-738.693 -121.477)"/><path class="b" d="M1257.985,275.431l-2.2-24.233q-.625-7.082-.7-10.174a9.226,9.226,0,0,1,2.048-6.613,7.572,7.572,0,0,1,5.746-2.495q4.357-.1,5.9,2.878t1.675,8.655a66.356,66.356,0,0,1-.193,6.8l-1.587,25.033a19.572,19.572,0,0,1-1.358,6.877,3.981,3.981,0,0,1-3.795,2.473,3.834,3.834,0,0,1-3.855-2.216A22.963,22.963,0,0,1,1257.985,275.431Zm6.415,33.21a7.986,7.986,0,0,1-5.444-1.874,7.017,7.017,0,0,1-2.437-5.545,7.528,7.528,0,0,1,7.421-7.73,7.511,7.511,0,0,1,5.5,2.075,7.2,7.2,0,0,1,2.381,5.293,7.076,7.076,0,0,1-2.148,5.628A7.764,7.764,0,0,1,1264.4,308.642Z" transform="translate(-740.242 -121.12)"/></g><rect class="b" width="131.601" height="180.808" rx="3.503" transform="translate(956.909 91.613)"/><g transform="translate(926.834 111.89)"><path class="d" d="M1031.75,115.355H936.97a4.01,4.01,0,0,0-4.01,4.01v172.79a4.009,4.009,0,0,0,4.01,4.009h123.582a4.008,4.008,0,0,0,4.008-4.009V147.664Z" transform="translate(-931.494 -113.889)"/><path class="e" d="M1060.517,297.595H936.934a5.481,5.481,0,0,1-5.474-5.475V119.33a5.481,5.481,0,0,1,5.474-5.475h95.382l33.676,33.162v145.1A5.481,5.481,0,0,1,1060.517,297.595ZM936.934,116.787a2.546,2.546,0,0,0-2.543,2.544V292.119a2.546,2.546,0,0,0,2.543,2.544h123.583a2.545,2.545,0,0,0,2.543-2.544V148.244l-31.946-31.457Z" transform="translate(-931.46 -113.855)"/><g transform="translate(100.256 1.466)"><path class="f" d="M1065.483,160.91l-27.745-12.492h27.647Z" transform="translate(-1034.135 -116.108)"/><path class="e" d="M1066.862,147.664h-28.8a4.009,4.009,0,0,1-4.01-4.009v-28.3" transform="translate(-1034.051 -115.355)"/></g></g><path class="b" d="M1138.724,198.439a3.766,3.766,0,1,1,3.764-3.766A3.771,3.771,0,0,1,1138.724,198.439Zm0-6.387a2.621,2.621,0,1,0,2.62,2.621A2.624,2.624,0,0,0,1138.724,192.051Z" transform="translate(-9.259 -3.72)"/><g transform="translate(1041.012 325.809)"><path class="b" d="M1052.669,341.325a.572.572,0,0,1-.573-.572v-7.423a.572.572,0,1,1,1.144,0v7.423A.572.572,0,0,1,1052.669,341.325Z" transform="translate(-1048.384 -332.758)"/><path class="b" d="M1056.295,337.7h-7.424a.572.572,0,1,1,0-1.144h7.424a.572.572,0,0,1,0,1.144Z" transform="translate(-1048.298 -332.844)"/></g><g transform="translate(1106.101 166.121)"><path class="b" d="M1119.275,177.918a.572.572,0,0,1-.573-.573v-7.423a.572.572,0,1,1,1.144,0v7.423A.572.572,0,0,1,1119.275,177.918Z" transform="translate(-1114.99 -169.35)"/><path class="b" d="M1122.9,174.292h-7.423a.572.572,0,1,1,0-1.144h7.423a.572.572,0,1,1,0,1.144Z" transform="translate(-1114.903 -169.436)"/></g><g transform="translate(960.636 74.777)"><path class="b" d="M970.42,84.446a.572.572,0,0,1-.573-.572V76.451a.572.572,0,1,1,1.144,0v7.424A.571.571,0,0,1,970.42,84.446Z" transform="translate(-966.136 -75.878)"/><path class="b" d="M974.045,80.821h-7.424a.572.572,0,0,1,0-1.144h7.424a.572.572,0,0,1,0,1.144Z" transform="translate(-966.049 -75.964)"/></g><g transform="translate(876.576 219.501)"><path class="b" d="M883.233,230.254a.572.572,0,0,1-.573-.572v-5.137a.572.572,0,0,1,1.144,0v5.137A.572.572,0,0,1,883.233,230.254Z" transform="translate(-880.091 -223.973)"/><path class="b" d="M885.741,227.745H880.6a.572.572,0,1,1,0-1.144h5.137a.572.572,0,0,1,0,1.144Z" transform="translate(-880.031 -224.033)"/></g><path class="b" d="M864.607,250.176a3.989,3.989,0,1,1,3.989-3.988A3.993,3.993,0,0,1,864.607,250.176Zm0-6.719a2.731,2.731,0,1,0,2.731,2.731A2.735,2.735,0,0,0,864.607,243.457Z" transform="translate(-3.013 -4.887)"/><g transform="translate(906.153 90.469)"><path class="e" d="M922.5,109.121l-6.764-4.84q-1.975-1.417-2.8-2.081a3.577,3.577,0,0,1-1.358-1.895,1.986,1.986,0,0,1,.406-1.791,1.616,1.616,0,0,1,1.842-.647A8.236,8.236,0,0,1,916.4,99.4q.893.717,1.749,1.533l6.277,5.835a7.87,7.87,0,0,1,1.554,1.8,1.134,1.134,0,0,1-.05,1.364,1.092,1.092,0,0,1-1.293.35A9.2,9.2,0,0,1,922.5,109.121Z" transform="translate(-910.324 -92.068)"/><path class="e" d="M927.255,103.718,925,97.494q-.655-1.821-.9-2.627a2.849,2.849,0,0,1-.037-1.856,1.586,1.586,0,0,1,1.074-.993,1.287,1.287,0,0,1,1.5.407,6.539,6.539,0,0,1,1,2.17q.262.872.456,1.794l1.487,6.659a6.24,6.24,0,0,1,.206,1.883.9.9,0,0,1-.648.873.868.868,0,0,1-1.005-.354A7.335,7.335,0,0,1,927.255,103.718Z" transform="translate(-910.607 -91.935)"/><path class="e" d="M919.038,114.592l-4.823.652q-1.41.188-2.027.236a2.09,2.09,0,0,1-1.339-.262,1.167,1.167,0,0,1-.547-.926.947.947,0,0,1,.526-1.014,4.82,4.82,0,0,1,1.715-.381q.669-.053,1.36-.048l5.015-.032a4.61,4.61,0,0,1,1.386.144.664.664,0,0,1,.526.6.639.639,0,0,1-.41.667A5.4,5.4,0,0,1,919.038,114.592Z" transform="translate(-910.297 -92.411)"/></g><g transform="translate(966.063 164.851)"><circle class="e" cx="3.915" cy="3.915" r="3.915" transform="translate(47.099)"/><circle class="e" cx="3.915" cy="3.915" r="3.915"/><path class="e" d="M1008.589,182.3a1.564,1.564,0,0,0-.956-.734c-9.052-2.428-16.55,3.506-16.866,3.759a1.574,1.574,0,0,0,1.969,2.456c.067-.052,6.651-5.167,14.082-3.175a1.573,1.573,0,0,0,1.771-2.306Z" transform="translate(-972.026 -168.345)"/></g><g transform="translate(939.653 123.624)"><path class="b" d="M947.672,131.934V131.1h-2.244a.923.923,0,0,1-.637-.192.669.669,0,0,1-.213-.524.514.514,0,0,1,.031-.172.954.954,0,0,1,.094-.183c.042-.064.085-.126.13-.186l.165-.219,2.37-3.169a3.63,3.63,0,0,1,.382-.454.507.507,0,0,1,.359-.141q.679,0,.679.778v3.46h.192a1.361,1.361,0,0,1,.552.094.4.4,0,0,1,.208.411.429.429,0,0,1-.17.377.892.892,0,0,1-.51.118h-.273v.832a.74.74,0,0,1-.152.512.524.524,0,0,1-.406.167.514.514,0,0,1-.4-.172A.732.732,0,0,1,947.672,131.934ZM945.75,130.1h1.922v-2.6Z" transform="translate(-944.578 -125.863)"/><path class="b" d="M955.047,129.288a7.779,7.779,0,0,1-.089,1.261,2.926,2.926,0,0,1-.331.957,2.2,2.2,0,0,1-.786.814,2.14,2.14,0,0,1-2.291-.1,2.345,2.345,0,0,1-.811-1.064,3.961,3.961,0,0,1-.2-.82,6.856,6.856,0,0,1-.065-.972,9.315,9.315,0,0,1,.071-1.216,4.009,4.009,0,0,1,.224-.93,2,2,0,0,1,1.967-1.318,2.239,2.239,0,0,1,.836.15,1.922,1.922,0,0,1,.66.438,2.513,2.513,0,0,1,.48.713A5.107,5.107,0,0,1,955.047,129.288Zm-1.224-.089a7.356,7.356,0,0,0-.1-1.339,1.637,1.637,0,0,0-.33-.787.811.811,0,0,0-.644-.267.826.826,0,0,0-.82.6,5.415,5.415,0,0,0-.23,1.832,7.792,7.792,0,0,0,.1,1.377,1.722,1.722,0,0,0,.33.811.863.863,0,0,0,1.274-.011,1.776,1.776,0,0,0,.326-.818A8.319,8.319,0,0,0,953.823,129.2Z" transform="translate(-944.712 -125.864)"/><path class="b" d="M958.806,131.934V131.1h-2.245a.927.927,0,0,1-.637-.192.672.672,0,0,1-.212-.524.492.492,0,0,1,.031-.172.954.954,0,0,1,.094-.183c.042-.064.085-.126.13-.186l.165-.219,2.37-3.169a3.525,3.525,0,0,1,.382-.454.5.5,0,0,1,.359-.141q.679,0,.679.778v3.46h.192a1.363,1.363,0,0,1,.552.094.4.4,0,0,1,.207.411.429.429,0,0,1-.169.377.893.893,0,0,1-.51.118h-.272v.832a.74.74,0,0,1-.152.512.525.525,0,0,1-.408.167.518.518,0,0,1-.4-.172A.737.737,0,0,1,958.806,131.934Zm-1.922-1.832h1.922v-2.6Z" transform="translate(-944.831 -125.863)"/></g><g transform="translate(945.612 247.996)"><g transform="translate(0 0)"><g transform="translate(0 0)"><path class="g" d="M96.355,16.142l-3.774-6.75,3.774-6.749a1.581,1.581,0,0,0-.019-1.572,1.6,1.6,0,0,0-1.373-.78h-5.14a1.6,1.6,0,0,0-1.38.792l-.259.446L87.947,1.1A1.6,1.6,0,0,0,86.554.29H76.089A1.59,1.59,0,0,0,74.5,1.873V11.942a1.606,1.606,0,0,0-.249-.019H72.036V1.583A1.59,1.59,0,0,0,70.444,0H67.018a1.591,1.591,0,0,0-1.067.409A1.592,1.592,0,0,0,64.884,0H57.655a1.59,1.59,0,0,0-1.593,1.583V16.911a1.59,1.59,0,0,0,1.593,1.583H61.08a1.59,1.59,0,0,0,1.593-1.583V12.678H64.3a1.593,1.593,0,0,0,1.126-.465v4.7a1.59,1.59,0,0,0,1.593,1.583h7.229a1.591,1.591,0,0,0,.921-.292,1.591,1.591,0,0,0,.921.292H86.555a1.6,1.6,0,0,0,1.392-.814l.238-.425.259.446a1.6,1.6,0,0,0,1.38.792h5.14a1.6,1.6,0,0,0,1.373-.78A1.581,1.581,0,0,0,96.355,16.142ZM64.834,4.565a.413.413,0,0,1-.413.413H61.03V7.612h2.805a.413.413,0,0,1,.413.413V10.71a.413.413,0,0,1-.413.413H61.03v5.439a.413.413,0,0,1-.413.413H57.932a.413.413,0,0,1-.413-.413V1.88a.413.413,0,0,1,.413-.413h6.489a.413.413,0,0,1,.413.413Zm9.363,12a.413.413,0,0,1-.413.413H67.3a.413.413,0,0,1-.413-.413V1.88a.413.413,0,0,1,.413-.413H69.98a.413.413,0,0,1,.413.413V13.464h3.391a.413.413,0,0,1,.413.413Zm20.043.413h-4.3a.413.413,0,0,1-.358-.207l-1.52-2.635L86.6,16.763a.413.413,0,0,1-.362.213H76.366a.413.413,0,0,1-.413-.413V2.173a.413.413,0,0,1,.413-.413h9.878a.413.413,0,0,1,.362.213L88.066,4.6l1.52-2.635a.413.413,0,0,1,.358-.207h4.3a.414.414,0,0,1,.362.614L90.715,9.368,94.6,16.361A.413.413,0,0,1,94.241,16.975ZM81.22,3.163a.511.511,0,0,0-.891.343V15.3a.511.511,0,0,0,.913.317l4.645-5.867a1.148,1.148,0,0,0-.049-1.482ZM52.015,10.411A7.407,7.407,0,0,0,52.108,2.4,5.051,5.051,0,0,0,47.731.31H43.846a.413.413,0,0,0-.413.413V15.816L39.391.617a.413.413,0,0,0-.4-.307H36.313l.03.116a.412.412,0,0,0-.112.19L32.206,15.662,32.19.723A.413.413,0,0,0,31.777.31H29.3a.413.413,0,0,0-.413.414l.019,8.954L22.075.172A.413.413,0,0,0,21.74,0h-.3a.413.413,0,0,0-.413.413V15.856L16.97.617a.413.413,0,0,0-.4-.307H14.209a.413.413,0,0,0-.4.306L10.432,13.242A4.608,4.608,0,0,0,9.066,9.621,11.164,11.164,0,0,0,6.119,7.69a8.133,8.133,0,0,1-2.03-1.232,1.829,1.829,0,0,1-.633-1.6C3.609,3.94,4.512,3.51,5.42,3.306a6.264,6.264,0,0,1,2.81.266.413.413,0,0,0,.522-.256c.2-.587.558-1.626.756-2.2A.413.413,0,0,0,9.232.587c-2.094-.611-4.458-.942-6.466.1A5.541,5.541,0,0,0,.359,4.58c-.415,3.014,1.793,4.678,4.2,5.908A8.569,8.569,0,0,1,6.66,11.8a1.913,1.913,0,0,1,.163,2.332,2.663,2.663,0,0,1-2.361,1.009,7.09,7.09,0,0,1-2.7-.59.413.413,0,0,0-.522.177L.066,16.8a.413.413,0,0,0,.184.577,10.254,10.254,0,0,0,4.283,1.113h.036a6.243,6.243,0,0,0,3.87-1.328,5.313,5.313,0,0,0,1.394-1.684L9.25,17.665a.413.413,0,0,0,.4.52H11.92a.413.413,0,0,0,.4-.309l.87-3.335h4.372l.9,3.334a.413.413,0,0,0,.4.309H23.71a.413.413,0,0,0,.413-.413L24.114,9.2l6.35,8.817a.413.413,0,0,0,.335.172h3.541a.413.413,0,0,0,.4-.309l.87-3.335h4.372l.9,3.334a.413.413,0,0,0,.4.309h4.839a.413.413,0,0,0,.413-.413v-5.3c.226.018.452.027.678.027s.456-.009.677-.028q.2-.017.4-.045l1.425,5.447a.413.413,0,0,0,.4.309h2.553a.413.413,0,0,0,.4-.52l-1.74-6.526A4.61,4.61,0,0,0,52.015,10.411Zm-38.02,1.046L15.339,6.3l1.391,5.155Zm22.421,0L37.76,6.3l1.391,5.155ZM49.095,8.172c-.778.76-2.562.437-2.562.437V4s1.871-.238,2.562.375A2.656,2.656,0,0,1,49.095,8.172Z" transform="translate(-0.013 0)"/></g></g></g><g transform="translate(1025.931 235.456)"><circle class="d" cx="28.609" cy="28.609" r="28.609" transform="translate(10.245 10.204)"/><path class="b" d="M1071.725,279H1105.2s.75-13.614-9.441-23.79c-8.732-8.719-23.611-7.723-23.611-7.723Z" transform="translate(-1033.75 -240.463)"/><g transform="translate(7.196 6.873)"><path class="d" d="M1047.62,301.122h31.112V247.481s-36.041-3.994-38.407,29.61C1039.252,292.325,1047.62,301.122,1047.62,301.122Z" transform="translate(-1040.23 -247.333)"/><path class="e" d="M1047.758,301.122c8.216.091,15.056,1.052,23.272,1.126l3.9.024a15.9,15.9,0,0,0,2.209-.071,5.661,5.661,0,0,0,4.23-3.182,5.7,5.7,0,0,0,.433-1.308,5.81,5.81,0,0,0,.089-.683c.015-.234.023-.47.021-.606l.01-3.9.04-15.6-.085-29.373-3.26-.216-.086,29.589.04,15.6.011,3.9c0,.189-.007.278-.01.368a2.7,2.7,0,0,1-.033.283,2.394,2.394,0,0,1-.176.538,2.3,2.3,0,0,1-.71.883c-.661.517-1.2.5-2.722.489l-3.9.024c-8.481.076-16.266.113-24.748.21" transform="translate(-1040.367 -247.333)"/></g><path class="h" d="M1071.473,240.3a38.607,38.607,0,1,0,38.608,38.607A38.607,38.607,0,0,0,1071.473,240.3Zm0,71.451a32.844,32.844,0,1,1,32.845-32.844A32.844,32.844,0,0,1,1071.473,311.751Z" transform="translate(-1032.866 -240.3)"/><g transform="translate(2.807 2.665)"><path class="i" d="M1141.788,349.345l-35.3-39.89-1.132,1-5.987-6.763-6.3,5.575,5.986,6.763-1.408,1.247,35.3,39.89a5.9,5.9,0,0,0,8.84-7.824Z" transform="translate(-1037.043 -244.408)"/><path class="j" d="M0,0H5.579a0,0,0,0,1,0,0V46.273a2.437,2.437,0,0,1-2.437,2.437h-.7A2.437,2.437,0,0,1,0,46.273V0A0,0,0,0,1,0,0Z" transform="translate(65.086 73.241) rotate(-41.51)"/><path class="k" d="M1071.785,243.027a36.047,36.047,0,1,0,36.047,36.047A36.047,36.047,0,0,0,1071.785,243.027Zm0,64.656a28.609,28.609,0,1,1,28.609-28.609A28.609,28.609,0,0,1,1071.785,307.683Z" transform="translate(-1035.738 -243.027)"/><g class="l" transform="translate(7.438 7.333)"><circle class="m" cx="28.609" cy="28.609" r="28.609"/><path class="n" d="M1070.383,307.862l24.254-46.661a24.658,24.658,0,0,0-2.083-2.279l-25.234,48.548S1069.205,307.8,1070.383,307.862Z" transform="translate(-1043.895 -250.721)"/><path class="n" d="M1083.779,305.818l16.847-32.412a28.2,28.2,0,0,0-3.758-9.2l-22.779,43.822A27.335,27.335,0,0,0,1083.779,305.818Z" transform="translate(-1044.05 -250.842)"/></g></g></g></g></svg>