<svg xmlns="http://www.w3.org/2000/svg" xmlns:xlink="http://www.w3.org/1999/xlink" width="381.476" height="284.866" viewBox="0 0 381.476 284.866"><defs><style>.a{fill:#f9eaf0;}.b{fill:#94355b;}.c{fill:#fac3d9;}.d{fill:#c76f92;}.e,.h,.l{fill:none;stroke-miterlimit:10;}.e{stroke:#e094b3;stroke-linecap:round;}.f{fill:#fff;}.g{fill:#e6b43e;}.h{stroke:#ffdf78;stroke-width:2px;}.i{fill:url(#a);}.j{fill:url(#b);}.k{fill:#ffdf78;}.l{stroke:#94355b;stroke-width:2.3px;}.m{fill:#0f44b8;}.n{fill:#600f30;}</style><linearGradient id="a" x1="12.724" y1="-49.122" x2="13.424" y2="-49.122" gradientUnits="objectBoundingBox"><stop offset="0" stop-color="#ffdf78"/><stop offset="1" stop-color="#e6b43e"/></linearGradient><linearGradient id="b" x1="96.456" y1="-59.077" x2="97.456" y2="-59.077" xlink:href="#a"/></defs><g transform="translate(-831.5 -405.208)"><g transform="translate(832 405.207)"><path class="a" d="M1222.781,923.727c-27.152-1.64-41.99,1.76-80.5-31.844s-62.987-41.453-87.656-38.594c-40.559,4.7-69.38,28.329-76.1,75.62-5.075,35.706-1.155,40.136-33.2,103.979-21.592,43.016,3.574,73.436,22.292,88.707h217.031a130.067,130.067,0,0,1,16.959-4.446c74.561-14.018,95.633-88.111,95.633-88.111C1319.511,938.025,1249.932,925.366,1222.781,923.727Z" transform="translate(-920.589 -852.748)"/><path class="b" d="M1275.4,1139.736H966.587a1.082,1.082,0,0,1,0-2.163H1275.4a1.082,1.082,0,0,1,0,2.163Z" transform="translate(-922.295 -869.802)"/><path class="b" d="M952.232,1139.736H936.356a1.082,1.082,0,0,1,0-2.163h15.876a1.082,1.082,0,0,1,0,2.163Z" transform="translate(-920.485 -869.802)"/><g transform="translate(200.886 98.356)"><path class="c" d="M1134.373,1127.929h113.292a8.337,8.337,0,0,0,8.337-8.337v-98.244a4.015,4.015,0,0,0-1.04-2.694l-52.073-57.432a8.5,8.5,0,0,0-12.422-.178l-54.976,57.248a4.011,4.011,0,0,0-1.119,2.78Z" transform="translate(-1133.292 -957.432)"/><path class="b" d="M1246.531,1128.946H1143.705a10.494,10.494,0,0,1-10.482-10.482v-97.456a5.069,5.069,0,0,1,1.42-3.528l54.771-57.036a9.752,9.752,0,0,1,14.407.208l51.873,57.211a5.085,5.085,0,0,1,1.32,3.422v97.179A10.494,10.494,0,0,1,1246.531,1128.946Zm-50.01-169.416a7.641,7.641,0,0,0-5.549,2.412l-54.771,57.035a2.917,2.917,0,0,0-.817,2.03v97.456a8.329,8.329,0,0,0,8.32,8.319h102.826a8.329,8.329,0,0,0,8.32-8.319v-97.179a2.924,2.924,0,0,0-.76-1.969L1202.219,962.1a7.638,7.638,0,0,0-5.587-2.572Z" transform="translate(-1133.223 -957.368)"/></g><g transform="translate(189.193 98.356)"><path class="d" d="M1121.936,1127.926h121.628V1021.348a4.022,4.022,0,0,0-1.041-2.7l-52.144-57.51a8.4,8.4,0,0,0-12.274-.177l-55.049,57.326a4.015,4.015,0,0,0-1.12,2.783Z" transform="translate(-1120.855 -957.428)"/><path class="b" d="M1234.094,1128.946H1131.268a10.494,10.494,0,0,1-10.482-10.482V1021.01a5.074,5.074,0,0,1,1.421-3.532l54.769-57.033a9.753,9.753,0,0,1,14.408.208l51.871,57.21a5.089,5.089,0,0,1,1.321,3.425v97.177A10.494,10.494,0,0,1,1234.094,1128.946Zm-50.01-169.416a7.64,7.64,0,0,0-5.548,2.412l-54.77,57.034a2.92,2.92,0,0,0-.818,2.033v97.454a8.329,8.329,0,0,0,8.32,8.319h102.825a8.329,8.329,0,0,0,8.32-8.319v-97.177a2.927,2.927,0,0,0-.76-1.972L1189.781,962.1a7.635,7.635,0,0,0-5.586-2.572Z" transform="translate(-1120.786 -957.368)"/></g><path class="b" d="M1136.2,1009.118l47.406-.372,21.505,14.744h22.607l-40.587-32.636-38.736,5.464Z" transform="translate(-932.516 -861.017)"/><g transform="translate(151.823 126.107)"><rect class="c" width="102.238" height="13.891" rx="6.946" transform="translate(1.081 1.082)"/><path class="b" d="M1177.745,1002.94h-89.018a7.7,7.7,0,0,1-7.691-7.692v-.67a7.7,7.7,0,0,1,7.691-7.692h89.018a7.7,7.7,0,0,1,7.691,7.692v.67A7.7,7.7,0,0,1,1177.745,1002.94Zm-89.018-13.891a5.534,5.534,0,0,0-5.529,5.529v.67a5.534,5.534,0,0,0,5.529,5.529h89.018a5.534,5.534,0,0,0,5.529-5.529v-.67a5.534,5.534,0,0,0-5.529-5.529Z" transform="translate(-1081.036 -986.886)"/></g><g transform="translate(67.447 98.355)"><path class="c" d="M992.436,1127.914h121.629V1020.153a.955.955,0,0,0-.247-.64l-53.224-58.7a8,8,0,0,0-11.692-.168l-55.345,57.633a4.018,4.018,0,0,0-1.12,2.782Z" transform="translate(-991.355 -957.415)"/><path class="b" d="M1104.595,1128.946H1001.768a10.494,10.494,0,0,1-10.482-10.482V1021.01a5.073,5.073,0,0,1,1.421-3.532l54.77-57.034a9.752,9.752,0,0,1,14.407.208l52.666,58.086a2.03,2.03,0,0,1,.527,1.366v98.36A10.494,10.494,0,0,1,1104.595,1128.946Zm-50.01-169.416a7.641,7.641,0,0,0-5.549,2.412l-54.77,57.034a2.922,2.922,0,0,0-.818,2.033v97.454a8.329,8.329,0,0,0,8.32,8.319h102.826a8.328,8.328,0,0,0,8.32-8.319V1020.1l-52.634-58a7.637,7.637,0,0,0-5.586-2.572Z" transform="translate(-991.286 -957.366)"/></g><circle class="e" cx="2.624" cy="2.624" r="2.624" transform="translate(252.519 47.077)"/><circle class="e" cx="2.624" cy="2.624" r="2.624" transform="translate(223.536 100.547)"/><circle class="e" cx="3.713" cy="3.713" r="3.713" transform="translate(74.406 91.82)"/><g transform="translate(333.944 244.63)"><line class="e" y2="6.099" transform="translate(3.049)"/><line class="e" x1="6.099" transform="translate(0 3.049)"/></g><g transform="translate(0 211.596)"><line class="e" y2="6.099" transform="translate(3.049)"/><line class="e" x1="6.099" transform="translate(0 3.049)"/></g><path class="f" d="M981.232,1127.153h118.755a1.436,1.436,0,0,0,1.436-1.437V1021.127a5.447,5.447,0,0,0-1.412-3.66l-49.8-54.931a11.13,11.13,0,0,0-16.273-.233L981.316,1017.1a5.465,5.465,0,0,0-1.521,3.782v104.838A1.436,1.436,0,0,0,981.232,1127.153Z" transform="translate(-923.151 -859.103)"/><path class="c" d="M1102.875,1110.536l-.177-89.563-.694-1.794-52.312-57.7a8.643,8.643,0,0,0-12.637-.181l-38.963,40.574a.734.734,0,0,0,.022,1.039l103.459,109.208C1103.762,1112.273,1102.875,1110.754,1102.875,1110.536Z" transform="translate(-924.234 -859.088)"/><path class="b" d="M1092.157,1128.946H989.33a10.494,10.494,0,0,1-10.482-10.482v-97.452a5.081,5.081,0,0,1,1.422-3.537l54.768-57.032a9.752,9.752,0,0,1,14.407.208l51.873,57.212a5.078,5.078,0,0,1,1.32,3.421v97.179A10.494,10.494,0,0,1,1092.157,1128.946Zm-50.01-169.416a7.64,7.64,0,0,0-5.548,2.412l-54.768,57.032a2.927,2.927,0,0,0-.821,2.038v97.452a8.328,8.328,0,0,0,8.32,8.319h102.826a8.328,8.328,0,0,0,8.32-8.319v-97.179a2.926,2.926,0,0,0-.759-1.969L1047.844,962.1a7.639,7.639,0,0,0-5.587-2.572Z" transform="translate(-923.094 -859.012)"/><g transform="translate(177.559 161.392)"><path class="f" d="M.014,0H144.941a.014.014,0,0,1,.014.014V95.873a10.507,10.507,0,0,1-10.507,10.507H0a0,0,0,0,1,0,0V.014A.014.014,0,0,1,.014,0Z" transform="translate(1.081 1.082)"/><path class="c" d="M1244.924,1125.735h-125.83a9.533,9.533,0,0,1-9.533-9.534v11.634a9.533,9.533,0,0,0,9.533,9.534h125.83a9.533,9.533,0,0,0,9.533-9.534V1116.2A9.533,9.533,0,0,1,1244.924,1125.735Z" transform="translate(-1108.48 -1029.914)"/><path class="b" d="M1244.987,1132.961H1118.894a10.494,10.494,0,0,1-10.482-10.482v-98.047l1.094-.013h145.951l.013,1.094v96.966A10.494,10.494,0,0,1,1244.987,1132.961Zm-134.414-106.379v95.9a8.329,8.329,0,0,0,8.32,8.319h126.093a8.329,8.329,0,0,0,8.32-8.319v-95.9Z" transform="translate(-1108.411 -1024.419)"/></g><g transform="translate(119.336 232.676)"><path class="g" d="M1050.657,1109.634l24.37,6.259-2.654,11.993-6.043,3.1-19.85-4.752a22.861,22.861,0,0,0,38.644,13.2,23.068,23.068,0,0,0,2.163-2.448l69.316,14.246a8.835,8.835,0,0,0,10.433-6.876l.2-.965a8.836,8.836,0,0,0-6.876-10.433l-68.776-14.134a22.86,22.86,0,0,0-38.455-12.053A23.069,23.069,0,0,0,1050.657,1109.634Z" transform="translate(-1046.48 -1100.243)"/><path class="h" d="M1051.07,1109.744l23.961,6.154-2.654,11.993-6.043,3.1-19.441-4.655a.285.285,0,0,0-.348.318,22.862,22.862,0,0,0,38.583,12.785,23.109,23.109,0,0,0,2.163-2.448l69.316,14.246a8.835,8.835,0,0,0,10.432-6.876l.2-.965a8.836,8.836,0,0,0-6.876-10.433l-68.776-14.134a22.775,22.775,0,0,0-6.992-12.56,23.073,23.073,0,0,0-26.647-3.069,22.2,22.2,0,0,0-7.035,6.1A.283.283,0,0,0,1051.07,1109.744Z" transform="translate(-1046.484 -1100.247)"/><rect class="i" width="56.02" height="7.168" rx="2.811" transform="matrix(0.979, 0.205, -0.205, 0.979, 47.987, 25.37)"/><circle class="j" cx="3.29" cy="3.29" r="3.29" transform="translate(106.824 38.734)"/><line class="h" y1="13.782" x2="3.156" transform="translate(28.547 1.868)"/></g><g transform="translate(109.743 126.228)"><circle class="g" cx="7.906" cy="7.906" r="7.906" transform="translate(0 0)"/><path class="k" d="M1039.361,999.037a7.905,7.905,0,0,1,12.345-6.542,7.905,7.905,0,1,0-11.961,8.969A7.909,7.909,0,0,1,1039.361,999.037Z" transform="translate(-1036.276 -987.015)"/><circle class="l" cx="7.906" cy="7.906" r="7.906" transform="translate(0 0)"/></g><path class="b" d="M1307.624,1139.729h-7.756a1.081,1.081,0,0,1,0-2.162h7.756a1.081,1.081,0,1,1,0,2.162Z" transform="translate(-942.25 -869.801)"/><path class="b" d="M961.941,1139.729h-3.478a1.081,1.081,0,1,1,0-2.162h3.478a1.081,1.081,0,1,1,0,2.162Z" transform="translate(-921.809 -869.801)"/><g transform="translate(118.5 98.466)"><line class="m" x2="12.515" transform="translate(0 1.006)"/><rect class="b" width="12.515" height="2.013"/></g><g transform="translate(193.186 203.367)"><g transform="translate(0 0)"><path class="n" d="M117.5,19.685l-4.6-8.231,4.6-8.23a1.928,1.928,0,0,0-.024-1.917A1.952,1.952,0,0,0,115.8.355h-6.268a1.949,1.949,0,0,0-1.682.966l-.316.544-.29-.518a1.945,1.945,0,0,0-1.7-.993H92.785a1.939,1.939,0,0,0-1.942,1.931V14.563a1.959,1.959,0,0,0-.3-.024h-2.7V1.93A1.938,1.938,0,0,0,85.9,0H81.723a1.94,1.94,0,0,0-1.3.5,1.942,1.942,0,0,0-1.3-.5H70.305A1.939,1.939,0,0,0,68.363,1.93V20.622a1.939,1.939,0,0,0,1.942,1.931h4.177a1.939,1.939,0,0,0,1.942-1.931V15.46h1.983a1.942,1.942,0,0,0,1.373-.567v5.729a1.939,1.939,0,0,0,1.942,1.931h8.816a1.94,1.94,0,0,0,1.123-.356,1.94,1.94,0,0,0,1.123.356h12.763a1.945,1.945,0,0,0,1.7-.993l.29-.518.316.544a1.95,1.95,0,0,0,1.683.966H115.8a1.952,1.952,0,0,0,1.674-.952A1.928,1.928,0,0,0,117.5,19.685ZM79.06,5.567a.5.5,0,0,1-.5.5H74.421V9.282h3.421a.5.5,0,0,1,.5.5V13.06a.5.5,0,0,1-.5.5H74.421V20.2a.5.5,0,0,1-.5.5H70.643a.5.5,0,0,1-.5-.5V2.293a.5.5,0,0,1,.5-.5h7.913a.5.5,0,0,1,.5.5ZM90.478,20.2a.5.5,0,0,1-.5.5H82.061a.5.5,0,0,1-.5-.5V2.293a.5.5,0,0,1,.5-.5h3.274a.5.5,0,0,1,.5.5V16.419h4.135a.5.5,0,0,1,.5.5Zm24.442.5H109.68a.5.5,0,0,1-.437-.252l-1.854-3.213-1.782,3.206a.5.5,0,0,1-.441.259H93.122a.5.5,0,0,1-.5-.5V2.65a.5.5,0,0,1,.5-.5h12.046a.5.5,0,0,1,.441.259l1.782,3.206L109.244,2.4a.5.5,0,0,1,.437-.252h5.239a.5.5,0,0,1,.441.749l-4.74,8.528,4.74,8.529A.5.5,0,0,1,114.92,20.7ZM99.042,3.857a.624.624,0,0,0-1.086.418V18.656a.624.624,0,0,0,1.113.387l5.664-7.155a1.4,1.4,0,0,0-.059-1.807ZM63.427,12.7a9.033,9.033,0,0,0,.113-9.765A6.16,6.16,0,0,0,58.2.378H53.465a.5.5,0,0,0-.5.5V19.287L48.033.752a.5.5,0,0,0-.487-.375H44.28l.037.141a.5.5,0,0,0-.137.232L39.271,19.1,39.251.882a.5.5,0,0,0-.5-.5H35.733a.5.5,0,0,0-.5.505L35.252,11.8,26.917.21A.5.5,0,0,0,26.508,0h-.371a.5.5,0,0,0-.5.5V19.336L20.692.752A.5.5,0,0,0,20.2.378h-2.88a.5.5,0,0,0-.487.374l-4.119,15.4a5.619,5.619,0,0,0-1.666-4.415A13.614,13.614,0,0,0,7.459,9.378a9.918,9.918,0,0,1-2.475-1.5,2.231,2.231,0,0,1-.772-1.954C4.4,4.8,5.5,4.28,6.606,4.032a7.639,7.639,0,0,1,3.426.325.5.5,0,0,0,.637-.312c.246-.716.68-1.983.922-2.68a.5.5,0,0,0-.337-.649C8.7-.029,5.818-.434,3.37.836,1.775,1.663.668,3.9.435,5.585c-.507,3.676,2.187,5.7,5.126,7.2a10.449,10.449,0,0,1,2.558,1.6,2.333,2.333,0,0,1,.2,2.844,3.247,3.247,0,0,1-2.879,1.23,8.645,8.645,0,0,1-3.294-.719.5.5,0,0,0-.636.216L.078,20.493a.5.5,0,0,0,.224.7,12.5,12.5,0,0,0,5.223,1.357h.044a7.613,7.613,0,0,0,4.72-1.619,6.479,6.479,0,0,0,1.7-2.054l-.711,2.66a.5.5,0,0,0,.486.634h2.77a.5.5,0,0,0,.488-.376l1.061-4.066h5.332l1.1,4.066a.5.5,0,0,0,.488.377H28.91a.5.5,0,0,0,.5-.5L29.4,11.214l7.744,10.753a.5.5,0,0,0,.409.209h4.318a.5.5,0,0,0,.488-.376l1.061-4.066h5.332l1.1,4.066a.5.5,0,0,0,.488.377h5.9a.5.5,0,0,0,.5-.5V15.213c.276.022.552.033.827.033s.557-.011.826-.034q.245-.021.49-.055L60.624,21.8a.5.5,0,0,0,.488.376h3.113a.5.5,0,0,0,.487-.634L62.59,13.584A5.621,5.621,0,0,0,63.427,12.7ZM17.063,13.972,18.7,7.686l1.7,6.286Zm27.342,0,1.64-6.286,1.7,6.286ZM59.866,9.966c-.948.926-3.125.533-3.125.533V4.874s2.282-.29,3.125.457A3.239,3.239,0,0,1,59.866,9.966Z" transform="translate(-0.013 0)"/></g></g><g transform="translate(252.387 98.393)"><line class="m" x2="12.515" transform="translate(0 1.006)"/><rect class="b" width="12.515" height="2.013" transform="translate(0)"/></g></g></g></svg>