<svg xmlns="http://www.w3.org/2000/svg" xmlns:xlink="http://www.w3.org/1999/xlink" width="129.351" height="97.055" viewBox="0 0 129.351 97.055"><defs><style>.a{fill:#f1f1f1;}.b{fill:#cecece;}.c{fill:#b5b5b5;}.d{fill:#e8e8e8;}.e,.g,.i{fill:none;stroke-miterlimit:10;}.e{stroke:#cecece;stroke-linecap:round;}.f{fill:#fff;}.g,.i{stroke:#e8e8e8;}.g{stroke-width:2px;}.h{fill:url(#a);}.i{stroke-width:2.3px;}.j{fill:#0f44b8;}</style><linearGradient id="a" x1="12.724" y1="-49.122" x2="13.424" y2="-49.122" gradientUnits="objectBoundingBox"><stop offset="0" stop-color="#cecece"/><stop offset="1" stop-color="#e6b43e"/></linearGradient></defs><g transform="translate(-831.5 -405.207)"><g transform="translate(832 405.207)"><path class="a" d="M1033.662,876.754c-9.183-.555-14.2.6-27.226-10.77s-21.3-14.02-29.646-13.053c-13.717,1.59-23.465,9.581-25.738,25.575-1.716,12.076-.391,13.574-11.229,35.167-7.3,14.549,1.209,24.837,7.539,30h73.4a43.988,43.988,0,0,1,5.736-1.5c25.217-4.741,32.344-29.8,32.344-29.8C1066.377,881.589,1042.845,877.308,1033.662,876.754Z" transform="translate(-931.458 -852.748)"/><path class="b" d="M1070.335,1138.3H965.892a.366.366,0,0,1,0-.732h104.443a.366.366,0,0,1,0,.732Z" transform="translate(-950.912 -1047.01)"/><path class="b" d="M941.03,1138.3h-5.369a.366.366,0,0,1,0-.732h5.369a.366.366,0,0,1,0,.732Z" transform="translate(-930.293 -1047.01)"/><g transform="translate(67.941 33.265)"><path class="b" d="M1134.373,1015.759h38.316a2.82,2.82,0,0,0,2.82-2.82V979.712a1.358,1.358,0,0,0-.352-.911l-17.612-19.424a2.875,2.875,0,0,0-4.2-.06l-18.593,19.362a1.356,1.356,0,0,0-.378.94Z" transform="translate(-1134.007 -958.095)"/><path class="c" d="M1171.544,1015.4h-34.777a3.549,3.549,0,0,1-3.545-3.545v-32.96a1.713,1.713,0,0,1,.48-1.193l18.524-19.29a3.3,3.3,0,0,1,4.873.07l17.544,19.349a1.72,1.72,0,0,1,.446,1.157v32.867A3.549,3.549,0,0,1,1171.544,1015.4Zm-16.914-57.3a2.584,2.584,0,0,0-1.877.816L1134.23,978.2a.987.987,0,0,0-.276.687v32.96a2.817,2.817,0,0,0,2.814,2.814h34.777a2.817,2.817,0,0,0,2.814-2.814V978.985a.989.989,0,0,0-.257-.666l-17.543-19.351a2.584,2.584,0,0,0-1.89-.87Z" transform="translate(-1133.223 -957.368)"/></g><g transform="translate(63.987 33.265)"><path class="d" d="M1121.936,1015.724h41.136V979.679a1.36,1.36,0,0,0-.352-.913l-17.636-19.45a2.841,2.841,0,0,0-4.151-.06l-18.618,19.388a1.358,1.358,0,0,0-.379.941Z" transform="translate(-1121.57 -958.061)"/><path class="c" d="M1159.108,1015.4h-34.777a3.549,3.549,0,0,1-3.545-3.545v-32.96a1.716,1.716,0,0,1,.481-1.195l18.523-19.289a3.3,3.3,0,0,1,4.873.07l17.543,19.349a1.722,1.722,0,0,1,.447,1.158v32.866A3.549,3.549,0,0,1,1159.108,1015.4Zm-16.914-57.3a2.584,2.584,0,0,0-1.876.816L1121.794,978.2a.987.987,0,0,0-.276.688v32.96a2.817,2.817,0,0,0,2.814,2.814h34.776a2.817,2.817,0,0,0,2.814-2.814V978.986a.99.99,0,0,0-.257-.667l-17.544-19.35a2.582,2.582,0,0,0-1.889-.87Z" transform="translate(-1120.786 -957.369)"/></g><path class="b" d="M1136.2,997.031l16.033-.126,7.273,4.987h7.646l-13.727-11.038-13.1,1.848Z" transform="translate(-1067.312 -946.942)"/><g transform="translate(51.348 42.65)"><rect class="b" width="34.578" height="4.698" rx="2.349" transform="translate(0.366 0.366)"/><path class="c" d="M1113.744,992.316h-30.107a2.6,2.6,0,0,1-2.6-2.6v-.227a2.6,2.6,0,0,1,2.6-2.6h30.107a2.6,2.6,0,0,1,2.6,2.6v.227A2.6,2.6,0,0,1,1113.744,992.316Zm-30.107-4.7a1.872,1.872,0,0,0-1.87,1.87v.227a1.872,1.872,0,0,0,1.87,1.87h30.107a1.872,1.872,0,0,0,1.87-1.87v-.227a1.872,1.872,0,0,0-1.87-1.87Z" transform="translate(-1081.036 -986.886)"/></g><g transform="translate(22.811 33.265)"><path class="b" d="M992.436,1015.591h41.136V979.146a.323.323,0,0,0-.083-.216l-18-19.853a2.706,2.706,0,0,0-3.954-.057l-18.718,19.492a1.359,1.359,0,0,0-.379.941Z" transform="translate(-992.07 -957.928)"/><path class="c" d="M1029.608,1015.4H994.831a3.549,3.549,0,0,1-3.545-3.545v-32.96a1.715,1.715,0,0,1,.481-1.195l18.524-19.289a3.3,3.3,0,0,1,4.873.07l17.812,19.645a.685.685,0,0,1,.178.462v33.266A3.549,3.549,0,0,1,1029.608,1015.4Zm-16.914-57.3a2.584,2.584,0,0,0-1.877.816L992.294,978.2a.989.989,0,0,0-.277.688v32.96a2.817,2.817,0,0,0,2.814,2.814h34.777a2.817,2.817,0,0,0,2.814-2.814V978.585l-17.8-19.616a2.583,2.583,0,0,0-1.889-.87Z" transform="translate(-991.286 -957.368)"/></g><circle class="e" cx="0.887" cy="0.887" r="0.887" transform="translate(85.404 15.922)"/><circle class="e" cx="0.887" cy="0.887" r="0.887" transform="translate(75.602 34.006)"/><circle class="e" cx="1.256" cy="1.256" r="1.256" transform="translate(25.165 31.054)"/><g transform="translate(112.943 82.736)"><line class="e" y2="2.063" transform="translate(1.031)"/><line class="e" x1="2.063" transform="translate(0 1.031)"/></g><g transform="translate(0 71.564)"><line class="e" y2="2.063" transform="translate(1.031)"/><line class="e" x1="2.063" transform="translate(0 1.031)"/></g><path class="f" d="M980.281,1015.793h40.164a.486.486,0,0,0,.486-.486V979.934a1.841,1.841,0,0,0-.478-1.238l-16.842-18.578a3.765,3.765,0,0,0-5.5-.079l-17.8,18.533a1.848,1.848,0,0,0-.514,1.279v35.457A.486.486,0,0,0,980.281,1015.793Z" transform="translate(-960.637 -925.136)"/><path class="d" d="M1033.4,1010.014l-.06-30.291-.235-.607L1015.408,959.6a2.923,2.923,0,0,0-4.274-.061l-13.178,13.722a.249.249,0,0,0,.008.352l34.991,36.935C1033.7,1010.6,1033.4,1010.087,1033.4,1010.014Z" transform="translate(-972.977 -924.972)"/><path class="c" d="M1017.17,1015.4H982.393a3.549,3.549,0,0,1-3.545-3.545V978.892a1.718,1.718,0,0,1,.481-1.2l18.523-19.289a3.3,3.3,0,0,1,4.873.07l17.544,19.35a1.717,1.717,0,0,1,.447,1.157v32.867A3.549,3.549,0,0,1,1017.17,1015.4Zm-16.914-57.3a2.585,2.585,0,0,0-1.876.816L979.857,978.2a.99.99,0,0,0-.278.689v32.959a2.817,2.817,0,0,0,2.814,2.814h34.777a2.817,2.817,0,0,0,2.814-2.814V978.985a.99.99,0,0,0-.257-.666l-17.544-19.351a2.585,2.585,0,0,0-1.89-.87Z" transform="translate(-959.991 -924.103)"/><g transform="translate(60.052 54.584)"><path class="f" d="M0,0H49.02a0,0,0,0,1,0,0v32.42a3.554,3.554,0,0,1-3.554,3.554H0V0A0,0,0,0,1,0,0Z" transform="translate(0.365 0.366)"/><path class="b" d="M1155.342,1119.425h-42.557a3.224,3.224,0,0,1-3.224-3.224v3.935a3.224,3.224,0,0,0,3.224,3.225h42.556a3.224,3.224,0,0,0,3.224-3.225V1116.2a3.224,3.224,0,0,1-3.225,3.225Z" transform="translate(-1109.196 -1087.017)"/><path class="c" d="M1154.6,1061.129h-42.646a3.549,3.549,0,0,1-3.545-3.545v-33.16l.37,0h49.362l0,.37v32.795a3.549,3.549,0,0,1-3.545,3.545Zm-45.46-35.978v32.434a2.817,2.817,0,0,0,2.814,2.813H1154.6a2.817,2.817,0,0,0,2.814-2.814v-32.434Z" transform="translate(-1108.412 -1024.419)"/></g><g transform="translate(40.36 78.692)"><path class="c" d="M1047.893,1103.417l8.242,2.117-.9,4.056-2.044,1.048-6.714-1.607a7.729,7.729,0,0,0,13.8,3.636l23.443,4.818a2.988,2.988,0,0,0,3.529-2.326l.067-.326a2.988,2.988,0,0,0-2.325-3.528l-23.261-4.78a7.729,7.729,0,0,0-13.842-3.108Z" transform="translate(-1046.48 -1100.239)"/><path class="g" d="M1048.073,1103.5l8.1,2.081-.9,4.056-2.044,1.048-6.575-1.574a.1.1,0,0,0-.118.108,7.732,7.732,0,0,0,13.049,4.324,7.812,7.812,0,0,0,.732-.828l23.443,4.818a2.988,2.988,0,0,0,3.528-2.325l.068-.327a2.989,2.989,0,0,0-2.326-3.529l-23.261-4.78a7.7,7.7,0,0,0-2.365-4.248,7.8,7.8,0,0,0-9.012-1.038,7.51,7.51,0,0,0-2.379,2.063.1.1,0,0,0,.053.15Z" transform="translate(-1046.522 -1100.289)"/><rect class="h" width="18.946" height="2.424" rx="1.212" transform="translate(16.23 8.582) rotate(11.827)"/><circle class="h" cx="1.113" cy="1.113" r="1.113" transform="translate(36.129 13.101)"/><line class="g" y1="4.661" x2="1.067" transform="translate(9.655 0.633)"/></g><g transform="translate(37.116 42.691)"><circle class="c" cx="2.674" cy="2.674" r="2.674" transform="translate(0 0)"/><path class="b" d="M1037.32,991.083a2.673,2.673,0,0,1,4.175-2.213,2.674,2.674,0,1,0-4.045,3.034,2.683,2.683,0,0,1-.13-.821Z" transform="translate(-1036.277 -987.017)"/><circle class="i" cx="2.674" cy="2.674" r="2.674" transform="translate(0 0)"/></g><path class="b" d="M1301.776,1138.3h-2.623a.366.366,0,0,1,0-.731h2.623a.366.366,0,0,1,0,.731Z" transform="translate(-1178.203 -1047.006)"/><path class="b" d="M958.924,1138.3h-1.176a.366.366,0,0,1,0-.731h1.176a.366.366,0,1,1,0,.731Z" transform="translate(-945.351 -1047.006)"/><g transform="translate(40.078 33.302)"><line class="j" x2="4.233" transform="translate(0 0.34)"/><rect class="c" width="4.233" height="0.681"/></g><g transform="translate(65.337 68.78)"><g transform="translate(0 0)"><path class="c" d="M39.748,6.658,38.192,3.874,39.748,1.09A.652.652,0,0,0,39.74.442.66.66,0,0,0,39.173.12h-2.12a.659.659,0,0,0-.569.327l-.107.184-.1-.175A.658.658,0,0,0,35.7.12H31.389a.656.656,0,0,0-.657.653V4.925a.662.662,0,0,0-.1-.008h-.913V.653A.655.655,0,0,0,29.061,0H27.648a.656.656,0,0,0-.44.169A.657.657,0,0,0,26.769,0H23.786a.656.656,0,0,0-.657.653V6.975a.656.656,0,0,0,.657.653H25.2a.656.656,0,0,0,.657-.653V5.229h.671a.657.657,0,0,0,.464-.192V6.975a.656.656,0,0,0,.657.653h2.982a.656.656,0,0,0,.38-.12.656.656,0,0,0,.38.12h4.317a.658.658,0,0,0,.575-.336l.1-.175.107.184a.66.66,0,0,0,.569.327h2.119a.66.66,0,0,0,.566-.322.652.652,0,0,0,.009-.648Zm-13-4.775a.169.169,0,0,1-.169.169h-1.4V3.139h1.157a.169.169,0,0,1,.169.169V4.417a.169.169,0,0,1-.169.169H25.178V6.832A.169.169,0,0,1,25.009,7H23.9a.169.169,0,0,1-.169-.169V.776A.169.169,0,0,1,23.9.606h2.676a.169.169,0,0,1,.169.169Zm3.862,4.949A.169.169,0,0,1,30.44,7H27.762a.169.169,0,0,1-.169-.169V.776a.169.169,0,0,1,.169-.169H28.87a.169.169,0,0,1,.169.169V5.553h1.4a.169.169,0,0,1,.169.169ZM38.875,7H37.1a.169.169,0,0,1-.148-.085l-.627-1.087-.6,1.084A.169.169,0,0,1,35.577,7H31.5a.169.169,0,0,1-.169-.169V.9A.169.169,0,0,1,31.5.727h4.074a.169.169,0,0,1,.149.088l.6,1.084L36.956.812A.169.169,0,0,1,37.1.726h1.772a.169.169,0,0,1,.149.253l-1.6,2.884,1.6,2.885A.169.169,0,0,1,38.875,7Zm-5.37-5.7a.211.211,0,0,0-.367.141V6.31a.211.211,0,0,0,.376.131l1.916-2.42a.473.473,0,0,0-.02-.611ZM21.46,4.3A3.055,3.055,0,0,0,21.5.993,2.083,2.083,0,0,0,19.692.128h-1.6A.169.169,0,0,0,17.922.3V6.523L16.254.254a.169.169,0,0,0-.165-.127h-1.1L15,.175a.169.169,0,0,0-.046.078L13.29,6.46,13.284.3a.169.169,0,0,0-.169-.169H12.094A.169.169,0,0,0,11.925.3l.006,3.691L9.112.071A.169.169,0,0,0,8.974,0H8.848a.169.169,0,0,0-.169.169V6.54L7.007.254A.169.169,0,0,0,6.84.128H5.866A.169.169,0,0,0,5.7.254L4.309,5.463A1.9,1.9,0,0,0,3.745,3.97a4.6,4.6,0,0,0-1.214-.8,3.354,3.354,0,0,1-.837-.507A.755.755,0,0,1,1.433,2c.064-.38.436-.556.81-.64a2.584,2.584,0,0,1,1.159.11.169.169,0,0,0,.215-.106c.083-.242.23-.671.312-.906A.169.169,0,0,0,3.815.242,3.6,3.6,0,0,0,1.148.283,2.285,2.285,0,0,0,.156,1.889C-.016,3.132.9,3.817,1.889,4.324a3.534,3.534,0,0,1,.865.541.789.789,0,0,1,.068.962,1.1,1.1,0,0,1-.974.416A2.924,2.924,0,0,1,.734,6a.169.169,0,0,0-.215.073l-.484.858a.169.169,0,0,0,.076.237,4.228,4.228,0,0,0,1.766.459h.015a2.575,2.575,0,0,0,1.6-.548,2.191,2.191,0,0,0,.575-.695l-.24.9a.169.169,0,0,0,.164.214h.937a.169.169,0,0,0,.165-.127L5.448,6h1.8l.372,1.375a.169.169,0,0,0,.165.128h2a.169.169,0,0,0,.169-.169l0-3.537,2.619,3.637a.169.169,0,0,0,.138.071h1.46a.169.169,0,0,0,.165-.127L14.694,6h1.8l.372,1.375a.169.169,0,0,0,.165.128h2a.169.169,0,0,0,.169-.169V5.145q.14.011.28.011c.093,0,.188,0,.279-.011q.083-.007.166-.019l.589,2.247a.169.169,0,0,0,.165.127H21.73a.169.169,0,0,0,.165-.214l-.718-2.691a1.9,1.9,0,0,0,.283-.3Zm-15.681.43L6.333,2.6l.575,2.126Zm9.247,0L15.581,2.6l.575,2.126Zm5.229-1.355c-.321.313-1.057.18-1.057.18v-1.9s.772-.1,1.057.155a1.1,1.1,0,0,1,0,1.568Z" transform="translate(-0.013 0)"/></g></g><g transform="translate(85.359 33.277)"><line class="j" x2="4.233" transform="translate(0 0.34)"/><rect class="c" width="4.233" height="0.681"/></g></g></g></svg>