<svg xmlns="http://www.w3.org/2000/svg" xmlns:xlink="http://www.w3.org/1999/xlink" width="20" height="20" viewBox="0 0 20 20"><defs><style>.a{fill:none;}.b{clip-path:url(#a);}.c,.d{fill:#fff;}.c{opacity:0;}</style><clipPath id="a"><rect class="a" width="20" height="20"/></clipPath></defs><g class="b"><rect class="c" width="20" height="20"/><path class="d" d="M17.417,11.687a.833.833,0,0,0-1.042.542,5.95,5.95,0,0,1-5.725,4.1A5.917,5.917,0,0,1,4.667,10.5,5.917,5.917,0,0,1,10.65,4.662a6.05,6.05,0,0,1,3.875,1.392l-1.808-.3A.836.836,0,1,0,12.45,7.4l3.533.583h.142a.833.833,0,0,0,.283-.05.275.275,0,0,0,.083-.05.65.65,0,0,0,.167-.092l.075-.092c0-.042.075-.075.108-.125s0-.083.042-.117a1.116,1.116,0,0,0,.058-.15l.625-3.333A.848.848,0,0,0,15.9,3.662L15.675,4.87A7.675,7.675,0,0,0,10.65,3,7.583,7.583,0,0,0,3,10.5,7.583,7.583,0,0,0,10.65,18,7.6,7.6,0,0,0,18,12.729a.833.833,0,0,0-.583-1.042Z" transform="translate(-0.5 -0.495)"/></g></svg>