<svg xmlns="http://www.w3.org/2000/svg" width="20" height="20" viewBox="0 0 20 20"><defs><style>.a{fill:none;}.b{fill:rgba(255,255,255,0.75);}</style></defs><path class="a" d="M0,0H20V20H0Z"/><path class="b" d="M17.222,4H4.778A1.806,1.806,0,0,0,3,5.833v11a1.806,1.806,0,0,0,1.778,1.833H17.222A1.812,1.812,0,0,0,19,16.833v-11A1.812,1.812,0,0,0,17.222,4Zm-7.111,6.417H8.778V9.958H7v2.75H8.778V12.25h1.333v.917a.906.906,0,0,1-.889.917H6.556a.906.906,0,0,1-.889-.917V9.5a.906.906,0,0,1,.889-.917H9.222a.906.906,0,0,1,.889.917Zm6.222,0H15V9.958H13.222v2.75H15V12.25h1.333v.917a.906.906,0,0,1-.889.917H12.778a.906.906,0,0,1-.889-.917V9.5a.906.906,0,0,1,.889-.917h2.667a.906.906,0,0,1,.889.917Z" transform="translate(-1 -1.333)"/></svg>