<svg xmlns="http://www.w3.org/2000/svg" xmlns:xlink="http://www.w3.org/1999/xlink" width="20" height="20" viewBox="0 0 20 20"><defs><style>.a{fill:none;}.b{clip-path:url(#a);}.c,.d{fill:rgba(255,255,255,0.75);}.c{opacity:0;}</style><clipPath id="a"><rect class="a" width="20" height="20"/></clipPath></defs><g class="b"><rect class="c" width="20" height="20" transform="translate(20 20) rotate(-180)"/><path class="d" d="M18.832,4.833A.833.833,0,0,0,18,4H13.832a.833.833,0,0,0,0,1.667h2.142L13.241,8.408a.837.837,0,1,0,1.183,1.183L17.166,6.85V9a.833.833,0,1,0,1.667,0Z" transform="translate(-2.166 -0.667)"/><path class="d" d="M9.592,13.241a.833.833,0,0,0-1.183,0L5.667,15.974V13.832a.833.833,0,0,0-1.667,0V18a.833.833,0,0,0,.833.833H9a.833.833,0,1,0,0-1.667H6.85l2.742-2.742a.833.833,0,0,0,0-1.183Z" transform="translate(-0.667 -2.166)"/></g></svg>