<svg xmlns="http://www.w3.org/2000/svg" xmlns:xlink="http://www.w3.org/1999/xlink" width="20" height="20" viewBox="0 0 20 20"><defs><style>.a{fill:none;}.b{clip-path:url(#a);}.c,.d{fill:rgba(255,255,255,0.75);}.c{opacity:0;}</style><clipPath id="a"><rect class="a" width="20" height="20"/></clipPath></defs><g class="b"><rect class="c" width="20" height="20"/><path class="d" d="M14.425,6a.833.833,0,0,0-.833.833v3.183l-.117-.125L9.225,6.383a1.75,1.75,0,0,0-1.842-.217A1.467,1.467,0,0,0,6.55,7.491v7.017a1.467,1.467,0,0,0,.833,1.325A1.858,1.858,0,0,0,8.142,16a1.717,1.717,0,0,0,1.083-.383l4.25-3.508.117-.125v3.183a.833.833,0,1,0,1.667,0V6.833A.833.833,0,0,0,14.425,6Z" transform="translate(-1.092 -1)"/></g></svg>