<svg xmlns="http://www.w3.org/2000/svg" xmlns:xlink="http://www.w3.org/1999/xlink" width="40" height="40" viewBox="0 0 40 40"><defs><style>.a{fill:none;}.b{clip-path:url(#a);}.c,.d{fill:rgba(255,255,255,0.75);}.c{opacity:0;}</style><clipPath id="a"><rect class="a" width="40" height="40"/></clipPath></defs><g class="b"><rect class="c" width="40" height="40"/><path class="d" d="M11.5,18.067l4.683-4.333L11.5,9.4Z" transform="translate(7.667 6.267)"/><path class="d" d="M18.667,2A16.667,16.667,0,1,0,35.333,18.667,16.667,16.667,0,0,0,18.667,2Zm6.667,18.633L19.267,26.25a2.9,2.9,0,0,1-1.933.75,2.8,2.8,0,0,1-1.15-.25,2.667,2.667,0,0,1-1.667-2.467V13.05a2.667,2.667,0,0,1,1.667-2.467,2.833,2.833,0,0,1,3.083.5L25.333,16.7a2.667,2.667,0,0,1,0,3.933Z" transform="translate(1.333 1.333)"/></g></svg>