<svg xmlns="http://www.w3.org/2000/svg" xmlns:xlink="http://www.w3.org/1999/xlink" width="20" height="20" viewBox="0 0 20 20"><defs><style>.a{fill:none;}.b{clip-path:url(#a);}.c,.d{fill:#fff;}.c{opacity:0;}</style><clipPath id="a"><rect class="a" width="20" height="20"/></clipPath></defs><g class="b"><rect class="c" width="20" height="20" transform="translate(20 20) rotate(-180)"/><path class="d" d="M14.875,6.166a1.75,1.75,0,0,0-1.842.217L8.783,9.891l-.117.125V6.833A.833.833,0,1,0,7,6.833v8.333a.833.833,0,1,0,1.667,0V11.983l.117.125,4.25,3.508A1.717,1.717,0,0,0,14.117,16a1.858,1.858,0,0,0,.758-.167,1.467,1.467,0,0,0,.875-1.325V7.491a1.467,1.467,0,0,0-.875-1.325Z" transform="translate(-1.167 -1)"/></g></svg>