<svg xmlns="http://www.w3.org/2000/svg" width="20" height="20" viewBox="0 0 20 20"><defs><style>.a,.b{fill:#fff;}.a{opacity:0;}</style></defs><rect class="a" width="20" height="20"/><path class="b" d="M3.618,11.687a.833.833,0,0,1,1.042.542,5.95,5.95,0,0,0,5.725,4.1A5.917,5.917,0,0,0,16.368,10.5a5.917,5.917,0,0,0-5.983-5.833A6.05,6.05,0,0,0,6.509,6.054l1.808-.3A.836.836,0,1,1,8.584,7.4l-3.533.583H4.909a.833.833,0,0,1-.283-.05.275.275,0,0,1-.083-.05A.65.65,0,0,1,4.376,7.8L4.3,7.7c0-.042-.075-.075-.108-.125s0-.083-.042-.117a1.116,1.116,0,0,1-.058-.15L3.468,3.979a.848.848,0,0,1,1.667-.317L5.359,4.87A7.675,7.675,0,0,1,10.384,3a7.583,7.583,0,0,1,7.65,7.5,7.583,7.583,0,0,1-7.65,7.5,7.6,7.6,0,0,1-7.35-5.267.833.833,0,0,1,.583-1.042Z" transform="translate(-0.534 -0.495)"/></svg>