<svg xmlns="http://www.w3.org/2000/svg" xmlns:xlink="http://www.w3.org/1999/xlink" width="20" height="20" viewBox="0 0 20 20"><defs><style>.a{fill:none;}.b{clip-path:url(#a);}.c,.d{fill:rgba(255,255,255,0.75);}.c{opacity:0;}</style><clipPath id="a"><rect class="a" width="20" height="20"/></clipPath></defs><g class="b"><rect class="c" width="20" height="20"/><path class="d" d="M20.483,8.308a.836.836,0,1,0-1.3,1.05,3.333,3.333,0,0,1,0,3.95.836.836,0,0,0,1.3,1.05,5,5,0,0,0,0-6.05Z" transform="translate(-3.166 -1.333)"/><path class="d" d="M14.225,3.1a.833.833,0,0,0-.833,0L8,6.806H3.833A.833.833,0,0,0,3,7.639v5.717a.833.833,0,0,0,.833.833H8l5.342,3.667a.883.883,0,0,0,.492.142.833.833,0,0,0,.833-.833V3.831a.833.833,0,0,0-.442-.733Z" transform="translate(-0.5 -0.498)"/></g></svg>