<svg xmlns="http://www.w3.org/2000/svg" xmlns:xlink="http://www.w3.org/1999/xlink" width="20" height="20" viewBox="0 0 20 20"><defs><style>.a{fill:none;}.b{clip-path:url(#a);}.c,.d{fill:#fff;}.c{opacity:0;}</style><clipPath id="a"><rect class="a" width="20" height="20"/></clipPath></defs><g class="b"><rect class="c" width="20" height="20"/><path class="d" d="M16.841,13.066l1.2,1.2a5,5,0,0,0-.058-5.958.836.836,0,1,0-1.3,1.05,3.333,3.333,0,0,1,.158,3.708Z" transform="translate(-2.75 -1.333)"/><path class="d" d="M20.5,10.833a5.425,5.425,0,0,1-1.483,3.658L20.2,15.675a7.108,7.108,0,0,0,1.967-4.842,7.292,7.292,0,0,0-2.8-5.642A.834.834,0,0,0,18.3,6.475,5.667,5.667,0,0,1,20.5,10.833Z" transform="translate(-3 -0.833)"/><path class="d" d="M14,10.64V3.832a.833.833,0,0,0-1.308-.692L9,5.665Z" transform="translate(-1.5 -0.499)"/><path class="d" d="M4.117,7.57H1.833A.833.833,0,0,0,1,8.4V14.12a.833.833,0,0,0,.833.833H6l5.342,3.667a.883.883,0,0,0,.492.142.833.833,0,0,0,.833-.833V16.12Z" transform="translate(-0.167 -1.262)"/><path class="d" d="M4.424,3.241A.837.837,0,1,0,3.241,4.424L16.574,17.758a.837.837,0,1,0,1.183-1.183Z" transform="translate(-0.499 -0.499)"/></g></svg>