<svg xmlns="http://www.w3.org/2000/svg" width="32" height="32" viewBox="0 0 32 32"><defs><style>.a,.c{fill:rgba(17,19,23,0.75);}.a{opacity:0;}.b{fill:rgba(173,199,255,0.5);}</style></defs><g transform="translate(0 0)"><rect class="a" width="32" height="32" transform="translate(32 32) rotate(180)"/><path class="b" d="M24.486,4.249a1.3,1.3,0,0,0-1.024-.224L13.975,5.982,4.488,4a1.3,1.3,0,0,0-1.042.226A1.082,1.082,0,0,0,3,5.121V18.759a1.141,1.141,0,0,0,.951,1.118l9.755,2.012h.537L24,19.877a1.141,1.141,0,0,0,.951-1.118V5.121A1.087,1.087,0,0,0,24.486,4.249Z" transform="translate(5 6.111)"/><path class="c" d="M26.493,4.3a1.333,1.333,0,0,0-1.12-.267L15,6.368,4.627,4.008A1.333,1.333,0,0,0,3,5.342V21.608a1.333,1.333,0,0,0,1.04,1.333l10.667,2.4h.587l10.667-2.4A1.333,1.333,0,0,0,27,21.608V5.342A1.333,1.333,0,0,0,26.493,4.3ZM5.667,7.008l8,1.8V22.342l-8-1.8ZM24.333,20.542l-8,1.8V8.808l8-1.8Z" transform="translate(1 1.325)"/></g></svg>