<svg xmlns="http://www.w3.org/2000/svg" width="60" height="60" viewBox="0 0 60 60"><defs><style>.a{fill:none;}.b{fill:rgba(17,19,23,0.05);}.c{fill:#a4adbf;}</style></defs><rect class="a" width="60" height="60"/><path class="b" d="M927.29,3310.969s2.238.015,1.973,3.562c-.08,1.068-.046,1.161.51,1.64.286.456,6.753,0,6.753,0h17.166s4.057.093,4.573-.32.287-1.919.287-1.919.231-2.231-1.6-2.963-9.231-.282-9.231-.282Z" transform="translate(-908.494 -3299.531)"/><rect class="b" width="5.769" height="5.769" rx="1" transform="translate(21.346 32.308)"/><rect class="b" width="5.769" height="5.769" rx="1" transform="translate(21.346 21.923)"/><rect class="b" width="5.769" height="5.769" rx="1" transform="translate(21.346 41.538)"/><g transform="translate(13.846 9.231)"><path class="c" d="M2.077,41.538H28.384a2.077,2.077,0,0,0,2.077-2.077V6.923h2.769a1.385,1.385,0,0,0,1.385-1.385V3.462A3.466,3.466,0,0,0,31.154,0H2.077A2.077,2.077,0,0,0,0,2.077V39.461A2.077,2.077,0,0,0,2.077,41.538ZM31.154,1.385a2.077,2.077,0,0,1,2.077,2.077V5.538H5.538V3.462a3.425,3.425,0,0,0-.71-2.077ZM1.385,2.077a.692.692,0,0,1,.692-.692A2.077,2.077,0,0,1,4.154,3.462V5.538A1.385,1.385,0,0,0,5.538,6.923H29.077V39.461a.692.692,0,0,1-.692.692H2.077a.692.692,0,0,1-.692-.692Zm0,0"/><path class="c" d="M52.584,134.923h4.154a1.385,1.385,0,0,0,1.385-1.385v-.692a.692.692,0,1,0-1.385,0v.692H52.584v-4.154h2.077a.692.692,0,0,0,0-1.385H52.584a1.385,1.385,0,0,0-1.385,1.385v4.154A1.385,1.385,0,0,0,52.584,134.923Zm0,0" transform="translate(-45.892 -117.615)"/><path class="c" d="M52.584,254.388h4.154A1.385,1.385,0,0,0,58.122,253V248.85a1.385,1.385,0,0,0-1.385-1.385H52.584A1.385,1.385,0,0,0,51.2,248.85V253A1.385,1.385,0,0,0,52.584,254.388Zm0-5.538h4.154V253H52.584Zm0,0" transform="translate(-45.892 -227.388)"/><path class="c" d="M52.584,373.857h4.154a1.385,1.385,0,0,0,1.385-1.385v-4.154a1.385,1.385,0,0,0-1.385-1.385H52.584a1.385,1.385,0,0,0-1.385,1.385v4.154A1.385,1.385,0,0,0,52.584,373.857Zm0-5.538h4.154v4.154H52.584Zm0,0" transform="translate(-45.892 -337.165)"/><path class="c" d="M246.549,264.535h-6.923a.692.692,0,0,0,0,1.385h6.923a.692.692,0,0,0,0-1.385Zm0,0" transform="translate(-221.857 -241.458)"/><path class="c" d="M246.549,264.535h-6.923a.692.692,0,0,0,0,1.385h6.923a.692.692,0,0,0,0-1.385Zm0,0" transform="translate(-221.857 -250.689)"/><path class="c" d="M246.549,384h-6.923a.692.692,0,0,0,0,1.385h6.923a.692.692,0,0,0,0-1.385Zm0,0" transform="translate(-221.857 -351.692)"/><path class="c" d="M78.078,114.619a.692.692,0,0,0-.979.979l1.385,1.385a.693.693,0,0,0,.489.2h.058a.693.693,0,0,0,.506-.288L83,112.051a.692.692,0,1,0-1.127-.8l-2.986,4.181Zm0,0" transform="translate(-69.512 -101.955)"/></g></svg>