<svg xmlns="http://www.w3.org/2000/svg" width="24" height="24" viewBox="0 0 24 24"><defs><style>.a{fill:#393f4d;opacity:0;}.b{fill:rgba(173,199,255,0.5);}.c{fill:rgba(17,19,23,0.75);}</style></defs><rect class="a" width="24" height="24"/><path class="b" d="M18.1,7.064,15.594,4.554a1.832,1.832,0,0,0-2.436-.064L4.915,12.732a1.832,1.832,0,0,0-.522,1.108L4,17.659a.914.914,0,0,0,.916,1H5l3.819-.348a1.832,1.832,0,0,0,1.108-.522l8.242-8.242A1.758,1.758,0,0,0,18.1,7.064Z" transform="translate(3.004 2.942)"/><path class="c" d="M19.4,7.34,16.66,4.6A2,2,0,0,0,14,4.53l-9,9a2,2,0,0,0-.57,1.21L4,18.91A1,1,0,0,0,5,20h.09l4.17-.38a2,2,0,0,0,1.21-.57l9-9a1.92,1.92,0,0,0-.07-2.71ZM9.08,17.62l-3,.28.27-3L12,9.32l2.7,2.7ZM16,10.68,13.32,8l1.95-2L18,8.73Z"/></svg>