
<svg xmlns="http://www.w3.org/2000/svg" width="32" height="32" viewBox="0 0 32 32"><defs><style>.a,.c{fill:rgba(17,19,23,0.75);}.a{opacity:0;}.b{fill:rgba(173,199,255,0.5);}</style></defs><g transform="translate(0 0)"><rect class="a" width="32" height="32"/><circle class="b" cx="12" cy="12" r="12" transform="translate(7 6)"/><path class="c" d="M15.333,2A13.333,13.333,0,1,0,28.667,15.333,13.333,13.333,0,0,0,15.333,2Zm0,24A10.667,10.667,0,1,1,26,15.333,10.667,10.667,0,0,1,15.333,26Z" transform="translate(0.667 0.667)"/><path class="c" d="M13.29,7.6a2.267,2.267,0,0,0-2.467-.4A2.133,2.133,0,0,0,9.49,9.173V18.16a2.133,2.133,0,0,0,1.333,1.973,2.24,2.24,0,0,0,.92.2,2.32,2.32,0,0,0,1.547-.6l4.88-4.493a2.133,2.133,0,0,0,0-3.147Zm-1.12,9.533V10.2l3.747,3.467Z" transform="translate(3.163 2.333)"/></g></svg>