<svg xmlns="http://www.w3.org/2000/svg" width="12" height="12" viewBox="0 0 12 12"><defs><style>.a,.b{fill:#393f4d;}.a{opacity:0;}</style></defs><g transform="translate(0)"><rect class="a" width="12" height="12" transform="translate(12 12) rotate(180)"/><path class="b" d="M12.225,8.4A2.915,2.915,0,0,0,9.3,11.31v2.94a.45.45,0,0,0,.45.45H10.8a.45.45,0,0,0,.45-.45V11.31a.97.97,0,0,1,1.075-.965,1,1,0,0,1,.875,1v2.9a.45.45,0,0,0,.45.45H14.7a.45.45,0,0,0,.45-.45V11.31A2.915,2.915,0,0,0,12.225,8.4Z" transform="translate(-4.65 -4.2)"/><rect class="b" width="2.25" height="5.85" rx="0.9" transform="translate(1.5 4.65)"/><circle class="b" cx="1.125" cy="1.125" r="1.125" transform="translate(1.5 1.5)"/></g></svg>