<svg xmlns="http://www.w3.org/2000/svg" width="72.223" height="25.365" viewBox="0 0 72.223 25.365"><defs><style>.a{fill:#5a6275;}</style></defs><g transform="translate(-391.087 -948.349)"><g transform="translate(443.777 948.349)"><path class="a" d="M1808.8,948.349a9.835,9.835,0,0,0,.986.355,32.248,32.248,0,0,1,4.079,1.783c.059.031.116.064.2.11a8.388,8.388,0,0,0-.832.395.629.629,0,0,1-.709-.01,30.142,30.142,0,0,0-4.728-2.016.408.408,0,0,1-.193-.088l1.087-.53Z" transform="translate(-1800.736 -948.349)"/><path class="a" d="M1810.98,1095.089c.043.026.079.047.114.07a47.492,47.492,0,0,1,7.039,5.55c.314.3.62.617.934.92.089.086.091.141,0,.233-.447.455-.887.916-1.325,1.379-.073.076-.115.111-.209.014a58.181,58.181,0,0,0-8.032-6.78c-.2-.147-.207-.149,0-.3q.68-.5,1.363-1.005C1810.9,1095.142,1810.94,1095.116,1810.98,1095.089Z" transform="translate(-1802.408 -1088.919)"/><path class="a" d="M1858.872,1065.641l.116.068a39.513,39.513,0,0,1,5.332,3.9q1.191,1.034,2.3,2.159c.095.1.112.15.007.255-.36.361-.712.731-1.058,1.106-.093.1-.141.08-.226-.007a44.646,44.646,0,0,0-7.279-5.976q-.311-.207-.625-.408c-.08-.051-.126-.085-.012-.158.46-.294.916-.595,1.374-.893C1858.82,1065.666,1858.847,1065.654,1858.872,1065.641Z" transform="translate(-1848.396 -1060.71)"/><path class="a" d="M1675.635,1035.007l-.4.252a36.653,36.653,0,0,0-5.634,4.3q-.74.69-1.438,1.421c-.089.093-.14.1-.226,0q-.355-.4-.728-.79c-.085-.088-.09-.138,0-.231a35.4,35.4,0,0,1,2.758-2.568,34.257,34.257,0,0,1,4.22-3.011.255.255,0,0,1,.3-.008C1674.854,1034.586,1675.233,1034.788,1675.635,1035.007Z" transform="translate(-1666.18 -1030.717)"/><path class="a" d="M1652.185,1018.471a.323.323,0,0,1-.149.117,33.317,33.317,0,0,0-6.845,5.485c-.1.109-.158.124-.261,0a7.575,7.575,0,0,0-.541-.591c-.1-.1-.1-.156,0-.258a33.715,33.715,0,0,1,3.037-2.776,32.757,32.757,0,0,1,3.407-2.4.391.391,0,0,1,.458-.026C1651.582,1018.186,1651.886,1018.322,1652.185,1018.471Z" transform="translate(-1644.316 -1015.033)"/><path class="a" d="M1963.356,1018.228c.476-.283.911-.546,1.351-.8q1.646-.953,3.37-1.759a.232.232,0,0,1,.278.021c.339.256.683.505,1.028.753.108.078.142.122-.006.2-1.454.821-2.861,1.717-4.24,2.657-.072.049-.129.1-.224.025-.473-.37-.966-.714-1.463-1.052C1963.43,1018.264,1963.407,1018.255,1963.356,1018.228Z" transform="translate(-1949.943 -1012.804)"/><path class="a" d="M1926.146,992.194c-.448.212-.854.4-1.257.594q-1.8.871-3.514,1.912a.222.222,0,0,1-.277,0c-.451-.293-.909-.577-1.389-.881.254-.142.49-.275.727-.4a35.417,35.417,0,0,1,4.289-1.981c.061-.023.119-.059.188-.015C1925.312,991.67,1925.712,991.921,1926.146,992.194Z" transform="translate(-1908.131 -989.586)"/><path class="a" d="M1779.259,967.662c-.439.237-.86.464-1.28.692-.077.042-.127-.016-.182-.047a34.294,34.294,0,0,0-4.444-2.039l-.544-.2s0-.01-.018-.04c.267-.144.548-.271.8-.438a.806.806,0,0,1,.793-.061,34.94,34.94,0,0,1,4.686,2.032C1779.129,967.587,1779.186,967.62,1779.259,967.662Z" transform="translate(-1767.39 -964.731)"/></g><g transform="translate(391.087 960.665)"><path class="a" d="M393.6,1254.27a6.331,6.331,0,0,1-2.257-.639.774.774,0,0,1-.252-.191v-.128c.3-.585.5-1.212.742-1.822.087-.22.17-.255.392-.179a8.631,8.631,0,0,0,4,.4,2.066,2.066,0,0,0,.637-.2,1.013,1.013,0,0,0,.236-1.754,3.912,3.912,0,0,0-1.075-.617c-.683-.293-1.373-.573-2.049-.884a5,5,0,0,1-1.652-1.18,3.33,3.33,0,0,1,.849-5.107,6.469,6.469,0,0,1,3.557-.671,8.491,8.491,0,0,1,3.05.746c.185.083.2.153.127.325-.239.545-.471,1.093-.685,1.648-.082.212-.179.229-.38.167a8.106,8.106,0,0,0-3.175-.413,1.672,1.672,0,0,0-.811.262.8.8,0,0,0-.127,1.268,2.561,2.561,0,0,0,.794.526c.658.3,1.321.587,1.978.886a7.116,7.116,0,0,1,1.989,1.254,3.41,3.41,0,0,1-.507,5.413,6.316,6.316,0,0,1-2.8.882A14.455,14.455,0,0,1,393.6,1254.27Z" transform="translate(-391.087 -1241.287)"/><path class="a" d="M992.855,1253.634c-.108-2.62-.023-5.242-.056-7.862,0-.215.066-.268.272-.265.842.011,1.684.013,2.525,0,.223,0,.256.078.256.273q-.007,6.042,0,12.084c0,.221-.055.286-.281.284q-1.534-.018-3.069,0a.441.441,0,0,1-.443-.27q-2.2-3.855-4.4-7.7c-.063-.111-.129-.22-.2-.342-.1.079-.05.18-.046.262.117,2.567.025,5.135.063,7.7,0,.284-.07.358-.351.351-.82-.02-1.641-.012-2.461,0-.193,0-.254-.053-.254-.252q.008-6.074,0-12.148c0-.177.044-.24.23-.238,1.034.008,2.067.012,3.1,0,.213,0,.272.119.35.256l4.632,8.087.064.11c.033-.019.052.118.079.015A.577.577,0,0,0,992.855,1253.634Z" transform="translate(-959.461 -1245.327)"/><path class="a" d="M1652.616,1258.428c.14-.666.355-1.311.558-1.958.085-.274.062-.394-.247-.474a4.853,4.853,0,0,1-2.264-1.251c-.48-.483-.93-1-1.4-1.49-.117-.123-.092-.172.04-.256a3.794,3.794,0,0,0,1.836-3.8,3.553,3.553,0,0,0-1.96-3.017,5.26,5.26,0,0,0-2.4-.595c-1.726-.024-3.452-.01-5.177-.021-.2,0-.245.063-.245.254q.008,6.057,0,12.113c0,.242.091.273.3.271.82-.01,1.641-.013,2.461,0,.245,0,.322-.056.319-.313-.014-1.257,0-2.514-.011-3.771,0-.221.054-.3.282-.285a8.8,8.8,0,0,0,1.054-.006.5.5,0,0,1,.459.21c.646.751,1.287,1.506,1.957,2.235a6.188,6.188,0,0,0,3.705,2.091A4.209,4.209,0,0,0,1652.616,1258.428Zm-6.3-6.788a11.436,11.436,0,0,1-1.72.073c-.187,0-.169-.107-.169-.227q0-.83,0-1.66c0-.532.007-1.064,0-1.6,0-.194.03-.286.256-.277a12.117,12.117,0,0,1,2.163.108,1.317,1.317,0,0,1,1.156,1.223A1.872,1.872,0,0,1,1646.318,1251.64Z" transform="translate(-1588.793 -1245.381)"/><path class="a" d="M650.289,1257.863q-2.043-6.039-4.066-12.085a.312.312,0,0,0-.36-.254c-1.119.009-2.238.012-3.356,0a.366.366,0,0,0-.408.288q-1.965,5.136-3.945,10.267c-.262.681-.519,1.364-.792,2.081.934,0,1.828-.008,2.722.005a.374.374,0,0,0,.434-.294c.372-1.052.775-2.093,1.156-3.141a.327.327,0,0,1,.364-.261q1.87.015,3.74,0a.31.31,0,0,1,.352.264c.335,1.064.686,2.123,1.021,3.188a.292.292,0,0,0,.335.245c.863-.01,1.726-.013,2.589,0C650.332,1258.168,650.373,1258.112,650.289,1257.863Zm-5.172-5.6c-.777-.006-1.554,0-2.33,0-.123,0-.207,0-.155-.172.471-1.528.937-3.057,1.425-4.654.3,1.135.577,2.2.856,3.269.118.452.229.906.356,1.355C645.312,1252.212,645.283,1252.26,645.117,1252.258Z" transform="translate(-627.006 -1245.344)"/><path class="a" d="M1308.333,1257.88q-2.048-6.055-4.078-12.116a.294.294,0,0,0-.338-.239c-1.13.008-2.259.011-3.389,0a.344.344,0,0,0-.386.272c-.452,1.2-.919,2.4-1.38,3.6l-3.235,8.422c-.13.338-.13.339.213.339.8,0,1.6-.008,2.4.005a.36.36,0,0,0,.413-.28c.374-1.051.774-2.093,1.155-3.142a.346.346,0,0,1,.386-.276q1.854.02,3.708,0c.228,0,.309.08.372.282.331,1.054.683,2.1,1.011,3.157a.3.3,0,0,0,.358.257c.426-.014.852,0,1.278,0s.874-.012,1.311,0C1308.375,1258.174,1308.411,1258.112,1308.333,1257.88Zm-5.148-5.622c-.839-.005-1.679,0-2.561,0l1.472-4.832c.417,1.6.811,3.121,1.21,4.64C1303.339,1252.19,1303.354,1252.26,1303.184,1252.259Z" transform="translate(-1257.425 -1245.345)"/></g></g></svg>