<?xml version="1.0" encoding="utf-8"?>
<!-- Generator: Adobe Illustrator 23.0.4, SVG Export Plug-In . SVG Version: 6.00 Build 0)  -->
<svg version="1.1" id="Layer_1" xmlns="http://www.w3.org/2000/svg" xmlns:xlink="http://www.w3.org/1999/xlink" x="0px" y="0px"
	 viewBox="0 0 260.5 194.7" style="enable-background:new 0 0 260.5 194.7;" xml:space="preserve">
<style type="text/css">
	.st0{opacity:0.2;fill:#C5C5C5;enable-background:new    ;}
	.st1{fill:#414141;}
	.st2{fill:#C5C5C5;}
	.st3{fill:#747474;}
	.st4{opacity:0.6;fill:#575757;enable-background:new    ;}
	.st5{fill:none;stroke:#C5C5C5;stroke-linecap:round;stroke-miterlimit:10;}
	.st6{fill:#FFFFFF;}
	.st7{opacity:0.8;fill:#C5C5C5;enable-background:new    ;}
	.st8{fill:#B6B6B6;}
	.st9{fill:none;stroke:#DDDDDD;stroke-width:2;stroke-miterlimit:10;}
	.st10{fill:url(#SVGID_1_);}
	.st11{fill:url(#SVGID_2_);}
	.st12{fill:#DDDDDD;}
	.st13{fill:none;stroke:#414141;stroke-width:2.3;stroke-miterlimit:10;}
	.st14{fill:none;}
	.st15{fill:#7D7D7D;}
	.st16{fill:#7C7C7C;}
	.st17{fill:#ACACAC;}
	.st18{fill:#3E3E3E;}
</style>
<g transform="translate(-919.043 -852.748)">
	<path class="st0" d="M1125.8,901.2c-18.5-1.1-28.7,1.2-54.9-21.7s-43-28.3-59.8-26.3c-27.7,3.2-47.3,19.3-51.9,51.6
		c-3.5,24.4-0.8,27.4-22.7,71c-14.7,29.4,2.4,50.1,15.2,60.5h148.1c3.8-1.3,7.7-2.3,11.6-3c50.9-9.6,65.3-60.1,65.3-60.1
		C1191.8,910.9,1144.3,902.3,1125.8,901.2z"/>
	<path class="st1" d="M1160.5,1037H949.8c-0.4,0-0.7-0.3-0.7-0.7c0-0.4,0.3-0.7,0.7-0.7h210.8c0.4,0,0.7,0.3,0.7,0.7
		C1161.3,1036.6,1160.9,1037,1160.5,1037z"/>
	<path class="st1" d="M941.2,1037h-10.8c-0.4,0-0.7-0.3-0.7-0.7c0-0.4,0.3-0.7,0.7-0.7h10.8c0.4,0,0.7,0.3,0.7,0.7
		C941.9,1036.6,941.6,1037,941.2,1037z"/>
	<g transform="translate(1056.643 919.873)">
		<path class="st2" d="M0.7,116.4h77.3c3.1,0,5.7-2.5,5.7-5.7v-67c0-0.7-0.3-1.3-0.7-1.8L47.5,2.6c-2.2-2.4-5.8-2.6-8.2-0.4
			c-0.1,0.1-0.2,0.2-0.3,0.3L1.5,41.5C1,42,0.7,42.7,0.7,43.4V116.4z"/>
		<path class="st1" d="M77.3,117.1H7.2c-3.9,0-7.1-3.2-7.2-7.2V43.4c0-0.9,0.3-1.8,1-2.4L38.3,2.1c2.5-2.7,6.7-2.8,9.4-0.3
			c0.1,0.1,0.3,0.3,0.4,0.4l35.4,39c0.6,0.6,0.9,1.5,0.9,2.3v66.3C84.5,113.9,81.3,117.1,77.3,117.1z M43.2,1.5
			c-1.4,0-2.8,0.6-3.8,1.6L2,42c-0.4,0.4-0.6,0.9-0.6,1.4v66.5c0,3.1,2.5,5.7,5.7,5.7h70.2c3.1,0,5.7-2.5,5.7-5.7V43.6
			c0-0.5-0.2-1-0.5-1.3l-35.4-39C46.1,2.1,44.7,1.5,43.2,1.5L43.2,1.5z"/>
	</g>
	<g transform="translate(1048.663 919.873)">
		<path class="st3" d="M0.7,116.4h83V43.6c0-0.7-0.3-1.3-0.7-1.8L47.4,2.5c-2.1-2.3-5.7-2.5-8.1-0.4c-0.1,0.1-0.2,0.2-0.3,0.3
			L1.5,41.5C1,42,0.7,42.7,0.7,43.4L0.7,116.4z"/>
		<path class="st1" d="M77.3,117.1H7.2c-3.9,0-7.1-3.2-7.2-7.2V43.4c0-0.9,0.3-1.8,1-2.4L38.3,2.1c2.5-2.7,6.7-2.8,9.4-0.3
			c0.1,0.1,0.3,0.3,0.4,0.4l35.4,39c0.6,0.6,0.9,1.5,0.9,2.3v66.3C84.5,113.9,81.3,117.1,77.3,117.1z M43.2,1.5
			c-1.4,0-2.8,0.6-3.8,1.6L2,42c-0.4,0.4-0.6,0.9-0.6,1.4v66.5c0,3.1,2.5,5.7,5.7,5.7h70.2c3.1,0,5.7-2.5,5.7-5.7V43.6
			c0-0.5-0.2-1-0.5-1.3l-35.4-39C46.1,2.1,44.7,1.5,43.2,1.5L43.2,1.5z"/>
	</g>
	<path class="st4" d="M1058.6,953.8l32.4-0.3l14.7,10.1h15.4l-27.7-22.3l-26.4,3.7L1058.6,953.8z"/>
	<g transform="translate(1023.159 938.812)">
		<path class="st2" d="M5.5,0.7h60.3c2.6,0,4.7,2.1,4.7,4.7l0,0c0,2.6-2.1,4.7-4.7,4.7H5.5c-2.6,0-4.7-2.1-4.7-4.7l0,0
			C0.7,2.9,2.9,0.7,5.5,0.7z"/>
		<path class="st1" d="M66,11H5.2C2.4,11,0,8.6,0,5.7V5.2C0,2.4,2.4,0,5.2,0H66c2.9,0,5.2,2.4,5.2,5.2v0.5C71.2,8.6,68.9,11,66,11z
			 M5.2,1.5c-2.1,0-3.8,1.7-3.8,3.8v0.5c0,2.1,1.7,3.8,3.8,3.8H66c2.1,0,3.8-1.7,3.8-3.8V5.3c0-2.1-1.7-3.8-3.8-3.8H5.2z"/>
	</g>
	<g transform="translate(965.574 919.872)">
		<path class="st2" d="M0.7,116.4h83V42.8c0-0.2-0.1-0.3-0.2-0.4L47.3,2.3c-2-2.2-5.5-2.4-7.7-0.4c-0.1,0.1-0.2,0.2-0.3,0.3
			L1.5,41.5c-0.5,0.5-0.8,1.2-0.8,1.9L0.7,116.4z"/>
		<path class="st1" d="M77.3,117.1H7.2c-3.9,0-7.1-3.2-7.2-7.2V43.4c0-0.9,0.3-1.8,1-2.4L38.3,2.1c2.5-2.7,6.7-2.8,9.4-0.3
			c0.1,0.1,0.3,0.3,0.4,0.4l35.9,39.6c0.2,0.3,0.4,0.6,0.4,0.9v67.1C84.5,113.9,81.3,117.1,77.3,117.1z M43.2,1.5
			c-1.4,0-2.8,0.6-3.8,1.6L2,42c-0.4,0.4-0.6,0.9-0.6,1.4v66.5c0,3.1,2.5,5.7,5.7,5.7h70.2c3.1,0,5.7-2.5,5.7-5.7V42.8L47.1,3.2
			C46.1,2.1,44.7,1.5,43.2,1.5L43.2,1.5z"/>
	</g>
	<circle class="st5" cx="1093.7" cy="886.7" r="1.8"/>
	<circle class="st5" cx="1073.9" cy="923.2" r="1.8"/>
	<circle class="st5" cx="972.9" cy="917.9" r="2.5"/>
	<g transform="translate(1147.452 1019.701)">
		<line class="st5" x1="2.1" y1="0" x2="2.1" y2="4.2"/>
		<line class="st5" x1="4.2" y1="2.1" x2="0" y2="2.1"/>
	</g>
	<g transform="translate(919.543 997.156)">
		<line class="st5" x1="2.1" y1="0" x2="2.1" y2="4.2"/>
		<line class="st5" x1="4.2" y1="2.1" x2="0" y2="2.1"/>
	</g>
	<path class="st6" d="M959.2,1035.7h81c0.5,0,1-0.4,1-1c0,0,0,0,0,0v-71.4c0-0.9-0.3-1.8-1-2.5l-34-37.5c-2.8-3.1-7.6-3.3-10.7-0.5
		c-0.1,0.1-0.3,0.2-0.4,0.4l-35.9,37.4c-0.7,0.7-1,1.6-1,2.6v71.5C958.2,1035.2,958.6,1035.7,959.2,1035.7
		C959.2,1035.7,959.2,1035.7,959.2,1035.7z"/>
	<path class="st7" d="M1041.5,1024.4l-0.1-61.1l-0.5-1.2l-35.7-39.4c-2.2-2.4-5.9-2.6-8.3-0.4c-0.1,0.1-0.2,0.2-0.3,0.3L970,950.2
		c-0.2,0.2-0.2,0.5,0,0.7c0,0,0,0,0,0l70.6,74.5C1042.1,1025.5,1041.5,1024.5,1041.5,1024.4z"/>
	<path class="st1" d="M1034.9,1037h-70.2c-3.9,0-7.1-3.2-7.2-7.2v-66.5c0-0.9,0.3-1.8,1-2.4l37.4-38.9c2.5-2.7,6.7-2.8,9.4-0.3
		c0.1,0.1,0.3,0.3,0.4,0.4l35.4,39c0.6,0.6,0.9,1.5,0.9,2.3v66.3C1042.1,1033.8,1038.9,1037,1034.9,1037z M1000.8,921.3
		c-1.4,0-2.8,0.6-3.8,1.6l-37.4,38.9c-0.4,0.4-0.6,0.9-0.6,1.4v66.5c0,3.1,2.5,5.7,5.7,5.7h70.2c3.1,0,5.7-2.5,5.7-5.7v-66.3
		c0-0.5-0.2-1-0.5-1.3l-35.4-39C1003.7,922,1002.3,921.4,1000.8,921.3L1000.8,921.3z"/>
	<g transform="translate(1040.723 962.894)">
		<path class="st6" d="M0.8,0.7h98.9c0,0,0,0,0,0v62.1c0,5.8-4.7,10.5-10.5,10.5H0.7l0,0L0.8,0.7C0.7,0.7,0.7,0.7,0.8,0.7
			C0.8,0.7,0.8,0.7,0.8,0.7z"/>
		<path class="st2" d="M93.1,65.4H7.2c-3.6,0-6.5-2.9-6.5-6.5c0,0,0,0,0,0v7.9c0,3.6,2.9,6.5,6.5,6.5c0,0,0,0,0,0h85.9
			c3.6,0,6.5-2.9,6.5-6.5c0,0,0,0,0,0v-7.9C99.6,62.5,96.7,65.4,93.1,65.4C93.1,65.4,93.1,65.4,93.1,65.4z"/>
		<path class="st1" d="M93.2,74.1H7.2c-3.9,0-7.1-3.2-7.2-7.2V0l0.7,0h99.6l0,0.7v66.2C100.4,70.9,97.2,74.1,93.2,74.1z M1.5,1.5
			v65.4c0,3.1,2.5,5.7,5.7,5.7h86.1c3.1,0,5.7-2.5,5.7-5.7V1.5H1.5z"/>
	</g>
	<g transform="translate(1000.987 1011.543)">
		<path class="st8" d="M2.9,6.4l16.6,4.3l-1.8,8.2L13.5,21L0,17.7c1.2,8.5,9.1,14.5,17.6,13.3c3.3-0.5,6.4-2,8.8-4.3
			c0.5-0.5,1-1.1,1.5-1.7l47.3,9.7c3.3,0.7,6.4-1.4,7.1-4.7l0.1-0.7c0.7-3.3-1.4-6.5-4.7-7.1c0,0,0,0,0,0l-46.9-9.6
			C29.2,4.2,21-1.3,12.5,0.3c-3,0.6-5.8,2-8,4.2C3.9,5.1,3.4,5.7,2.9,6.4z"/>
		<path class="st9" d="M3.1,6.5l16.4,4.2l-1.8,8.2L13.5,21L0.3,17.8c-0.1,0-0.2,0-0.2,0.2c0,0,0,0,0,0.1c1.3,8.5,9.3,14.3,17.8,13
			c3.2-0.5,6.2-2,8.5-4.3c0.5-0.5,1-1.1,1.5-1.7l47.3,9.7c3.3,0.7,6.4-1.4,7.1-4.7c0,0,0,0,0,0l0.1-0.7c0.7-3.3-1.4-6.4-4.7-7.1
			l-46.9-9.6c-0.6-3.3-2.3-6.3-4.8-8.6C21-0.4,13.7-1.2,7.8,2C5.9,3,4.3,4.5,3,6.2C3,6.3,3,6.4,3.1,6.5C3.1,6.5,3.1,6.5,3.1,6.5z"/>
		
			<linearGradient id="SVGID_1_" gradientUnits="userSpaceOnUse" x1="49.1805" y1="-41.6025" x2="49.8805" y2="-41.6025" gradientTransform="matrix(37.4291 7.8376 1.0029 -4.7893 -1290.5632 -465.2664)">
			<stop  offset="0" style="stop-color:#DDDDDD"/>
			<stop  offset="1" style="stop-color:#B6B6B6"/>
		</linearGradient>
		<path class="st10" d="M35.1,17.8l32.6,6.8c1.3,0.3,2.2,1.6,1.9,2.9l0,0c-0.3,1.3-1.6,2.2-2.9,1.9l-32.6-6.8
			c-1.3-0.3-2.2-1.6-1.9-2.9l0,0C32.5,18.4,33.8,17.5,35.1,17.8z"/>
		
			<linearGradient id="SVGID_2_" gradientUnits="userSpaceOnUse" x1="109.3405" y1="-34.4732" x2="110.3405" y2="-34.4732" gradientTransform="matrix(4.49 0 0 -4.49 15.0534 -126.1047)">
			<stop  offset="0" style="stop-color:#DDDDDD"/>
			<stop  offset="1" style="stop-color:#B6B6B6"/>
		</linearGradient>
		<circle class="st11" cx="75.2" cy="28.7" r="2.2"/>
		<line class="st9" x1="19.5" y1="10.7" x2="21.6" y2="1.3"/>
	</g>
	<g transform="translate(994.44 938.895)">
		<circle class="st8" cx="5.4" cy="5.4" r="5.4"/>
		<path class="st12" d="M2.1,8.2c0-3,2.4-5.4,5.4-5.4c1.1,0,2.1,0.3,3,0.9C9.6,0.9,6.6-0.7,3.7,0.2S-0.7,4.2,0.2,7
			c0.4,1.2,1.1,2.2,2.1,2.8C2.2,9.3,2.1,8.8,2.1,8.2z"/>
		<circle class="st13" cx="5.4" cy="5.4" r="5.4"/>
	</g>
	<path class="st1" d="M1168.9,1037h-5.3c-0.4,0-0.7-0.3-0.7-0.7c0-0.4,0.3-0.7,0.7-0.7h5.3c0.4,0,0.7,0.3,0.7,0.7
		S1169.3,1037,1168.9,1037C1168.9,1037,1168.9,1037,1168.9,1037z"/>
	<path class="st1" d="M946.9,1037h-2.4c-0.4,0-0.7-0.3-0.7-0.7c0-0.4,0.3-0.7,0.7-0.7c0,0,0,0,0,0h2.4c0.4,0,0.7,0.3,0.7,0.7
		C947.7,1036.6,947.4,1037,946.9,1037C946.9,1037,946.9,1037,946.9,1037z"/>
	<g transform="translate(1000.417 919.948)">
		<line class="st14" x1="0" y1="0.7" x2="8.5" y2="0.7"/>
		<rect x="0" y="0" class="st1" width="8.5" height="1.4"/>
	</g>
	<g transform="translate(1091.791 919.898)">
		<line class="st14" x1="0" y1="0.7" x2="8.5" y2="0.7"/>
		<rect x="0" y="0" class="st1" width="8.5" height="1.4"/>
	</g>
	<g transform="translate(1054.871 982.471)">
		<g transform="translate(0 0)">
			<path class="st15" d="M60.7,0c0.3,0.1,0.7,0.3,1,0.4c1.4,0.5,2.8,1.1,4.1,1.8c0.1,0,0.1,0.1,0.2,0.1c-0.3,0.1-0.6,0.3-0.8,0.4
				c-0.2,0.1-0.5,0.1-0.7,0c-1.5-0.8-3.1-1.5-4.7-2c-0.1,0-0.1,0-0.2-0.1L60.6,0L60.7,0z"/>
			<path class="st16" d="M61.3,6.2c0,0,0.1,0,0.1,0.1c2.5,1.6,4.9,3.5,7,5.5c0.3,0.3,0.6,0.6,0.9,0.9c0.1,0.1,0.1,0.1,0,0.2
				c-0.4,0.5-0.9,0.9-1.3,1.4c-0.1,0.1-0.1,0.1-0.2,0c-2.5-2.5-5.2-4.8-8-6.8c-0.2-0.1-0.2-0.1,0-0.3c0.5-0.3,0.9-0.7,1.4-1
				C61.2,6.2,61.2,6.2,61.3,6.2z"/>
			<path class="st17" d="M63.2,4.9L63.3,5c1.9,1.1,3.7,2.5,5.3,3.9c0.8,0.7,1.6,1.4,2.3,2.2c0.1,0.1,0.1,0.2,0,0.3
				c-0.4,0.4-0.7,0.7-1.1,1.1c-0.1,0.1-0.1,0.1-0.2,0c-2.2-2.2-4.7-4.2-7.3-6c-0.2-0.1-0.4-0.3-0.6-0.4c-0.1-0.1-0.1-0.1,0-0.2
				C62.2,5.6,62.6,5.3,63.2,4.9C63.1,5,63.1,4.9,63.2,4.9z"/>
			<path class="st17" d="M62.1,4.3l-0.4,0.3c-2,1.2-3.9,2.7-5.6,4.3c-0.5,0.5-1,0.9-1.4,1.4c-0.1,0.1-0.1,0.1-0.2,0
				C54.2,10,54,9.7,53.7,9.5c-0.1-0.1-0.1-0.1,0-0.2c0.9-0.9,1.8-1.8,2.8-2.6c1.3-1.1,2.7-2.1,4.2-3c0.1-0.1,0.2-0.1,0.3,0
				C61.4,3.9,61.7,4.1,62.1,4.3z"/>
			<path class="st16" d="M60.6,3.4c0,0.1-0.1,0.1-0.1,0.1c-2.5,1.5-4.8,3.4-6.8,5.5c-0.1,0.1-0.2,0.1-0.3,0
				c-0.2-0.2-0.4-0.4-0.5-0.6c-0.1-0.1-0.1-0.2,0-0.3c1-1,2-1.9,3-2.8C56.9,4.5,58,3.7,59.2,3c0.1-0.1,0.3-0.1,0.5,0
				C60,3.2,60.3,3.3,60.6,3.4z"/>
			<path class="st16" d="M66.1,5.4c0.5-0.3,0.9-0.5,1.4-0.8c1.1-0.6,2.2-1.2,3.4-1.8c0.1-0.1,0.2,0,0.3,0c0.3,0.3,0.7,0.5,1,0.8
				c0.1,0.1,0.1,0.1,0,0.2c-1.5,0.8-2.9,1.7-4.2,2.7c-0.1,0-0.1,0.1-0.2,0C67.2,6.1,66.7,5.8,66.1,5.4C66.2,5.5,66.1,5.4,66.1,5.4z"
				/>
			<path class="st17" d="M70.7,2.6c-0.4,0.2-0.9,0.4-1.3,0.6c-1.2,0.6-2.4,1.2-3.5,1.9c-0.1,0.1-0.2,0.1-0.3,0
				c-0.5-0.3-0.9-0.6-1.4-0.9C64.5,4.1,64.8,4,65,3.8c1.4-0.8,2.8-1.4,4.3-2c0.1,0,0.1-0.1,0.2,0C69.9,2.1,70.3,2.3,70.7,2.6z"/>
			<path class="st17" d="M64.6,2.9c-0.4,0.2-0.9,0.5-1.3,0.7c-0.1,0-0.1,0-0.2,0c-1.4-0.8-2.9-1.5-4.4-2l-0.5-0.2c0,0,0,0,0,0
				c0.3-0.1,0.5-0.3,0.8-0.4c0.2-0.2,0.5-0.2,0.8-0.1c1.6,0.6,3.2,1.2,4.7,2L64.6,2.9z"/>
			<path class="st18" d="M2.5,25.3C1.7,25.2,1,25,0.3,24.7c-0.1,0-0.2-0.1-0.3-0.2v-0.1c0.3-0.6,0.5-1.2,0.7-1.8
				c0.1-0.2,0.2-0.3,0.4-0.2c1.3,0.4,2.6,0.6,4,0.4c0.2,0,0.4-0.1,0.6-0.2c0.5-0.2,0.8-0.8,0.6-1.3c-0.1-0.2-0.2-0.3-0.3-0.4
				c-0.3-0.3-0.7-0.5-1.1-0.6c-0.7-0.3-1.4-0.6-2-0.9c-0.6-0.3-1.2-0.7-1.7-1.2c-1.2-1.4-1.1-3.5,0.3-4.7c0.2-0.2,0.4-0.3,0.6-0.4
				c1.1-0.6,2.3-0.8,3.6-0.7c1.1,0.1,2.1,0.3,3.1,0.7c0.2,0.1,0.2,0.2,0.1,0.3c-0.2,0.5-0.5,1.1-0.7,1.6c-0.1,0.2-0.2,0.2-0.4,0.2
				c-1-0.3-2.1-0.5-3.2-0.4c-0.3,0-0.6,0.1-0.8,0.3c-0.4,0.2-0.5,0.7-0.3,1.1c0,0.1,0.1,0.1,0.1,0.2c0.2,0.2,0.5,0.4,0.8,0.5
				c0.7,0.3,1.3,0.6,2,0.9c0.7,0.3,1.4,0.7,2,1.3c1.4,1.3,1.5,3.4,0.2,4.8c-0.2,0.2-0.5,0.4-0.7,0.6c-0.9,0.5-1.8,0.8-2.8,0.9
				C4.2,25.4,3.4,25.4,2.5,25.3z"/>
			<path class="st18" d="M33.4,20.6c-0.1-2.6,0-5.2-0.1-7.9c0-0.2,0.1-0.3,0.3-0.3c0.8,0,1.7,0,2.5,0c0.2,0,0.3,0.1,0.3,0.3
				c0,4,0,8.1,0,12.1c0,0.2-0.1,0.3-0.3,0.3c-1,0-2,0-3.1,0c-0.2,0-0.4-0.1-0.4-0.3c-1.5-2.6-2.9-5.1-4.4-7.7
				c-0.1-0.1-0.1-0.2-0.2-0.3c-0.1,0.1-0.1,0.2,0,0.3c0.1,2.6,0,5.1,0.1,7.7c0,0.3-0.1,0.4-0.4,0.3c-0.8,0-1.6,0-2.5,0
				c-0.2,0-0.3-0.1-0.3-0.3c0-4,0-8.1,0-12.1c0-0.2,0-0.2,0.2-0.2c1,0,2.1,0,3.1,0c0.2,0,0.3,0.1,0.3,0.3l4.6,8.1l0.1,0.1
				c0,0,0.1,0.1,0.1,0C33.4,20.9,33.4,20.7,33.4,20.6z"/>
			<path class="st18" d="M63.8,25.4c0.1-0.7,0.4-1.3,0.6-2c0.1-0.3,0.1-0.4-0.2-0.5c-0.9-0.2-1.6-0.6-2.3-1.3
				c-0.5-0.5-0.9-1-1.4-1.5c-0.1-0.1-0.1-0.2,0-0.3c1.3-0.8,2-2.3,1.8-3.8c-0.1-1.3-0.8-2.4-2-3c-0.7-0.4-1.6-0.6-2.4-0.6
				c-1.7,0-3.5,0-5.2,0c-0.2,0-0.2,0.1-0.2,0.3c0,4,0,8.1,0,12.1c0,0.2,0.1,0.3,0.3,0.3c0.8,0,1.6,0,2.5,0c0.2,0,0.3-0.1,0.3-0.3
				c0-1.3,0-2.5,0-3.8c0-0.2,0.1-0.3,0.3-0.3c0.4,0,0.7,0,1.1,0c0.2,0,0.4,0.1,0.5,0.2c0.6,0.8,1.3,1.5,2,2.2
				c0.9,1.1,2.3,1.9,3.7,2.1C63.3,25.3,63.6,25.4,63.8,25.4z M57.5,18.6c-0.6,0.1-1.1,0.1-1.7,0.1c-0.2,0-0.2-0.1-0.2-0.2v-1.7
				c0-0.5,0-1.1,0-1.6c0-0.2,0-0.3,0.3-0.3c0.7,0,1.4,0,2.2,0.1c0.6,0.1,1.1,0.6,1.2,1.2c0.3,1-0.3,2-1.3,2.3
				C57.8,18.5,57.6,18.6,57.5,18.6L57.5,18.6z"/>
			<path class="st18" d="M23.3,24.8c-1.4-4-2.7-8.1-4.1-12.1c0-0.2-0.2-0.3-0.4-0.3c0,0,0,0,0,0c-1.1,0-2.2,0-3.4,0
				c-0.2,0-0.4,0.1-0.4,0.3c-1.3,3.4-2.6,6.8-3.9,10.3c-0.3,0.7-0.5,1.4-0.8,2.1c0.9,0,1.8,0,2.7,0c0.2,0,0.4-0.1,0.4-0.3
				c0.4-1.1,0.8-2.1,1.2-3.1c0-0.2,0.2-0.3,0.4-0.3c1.2,0,2.5,0,3.7,0c0.2,0,0.3,0.1,0.4,0.3c0,0,0,0,0,0c0.3,1.1,0.7,2.1,1,3.2
				c0,0.2,0.2,0.3,0.3,0.2c0,0,0,0,0,0c0.9,0,1.7,0,2.6,0C23.3,25.1,23.4,25.1,23.3,24.8z M18.1,19.2c-0.8,0-1.6,0-2.3,0
				c-0.1,0-0.2,0-0.2-0.2c0.5-1.5,0.9-3.1,1.4-4.7l0.9,3.3c0.1,0.5,0.2,0.9,0.4,1.4C18.3,19.2,18.3,19.2,18.1,19.2L18.1,19.2z"/>
			<path class="st18" d="M50.9,24.9c-1.4-4-2.7-8.1-4.1-12.1c0-0.2-0.2-0.3-0.3-0.2c-1.1,0-2.3,0-3.4,0c-0.2,0-0.3,0.1-0.4,0.3
				c-0.5,1.2-0.9,2.4-1.4,3.6l-3.2,8.4c-0.1,0.3-0.1,0.3,0.2,0.3c0.8,0,1.6,0,2.4,0c0.2,0,0.4-0.1,0.4-0.3c0.4-1.1,0.8-2.1,1.2-3.1
				c0-0.2,0.2-0.3,0.4-0.3c1.2,0,2.5,0,3.7,0c0.2,0,0.3,0.1,0.4,0.3c0.3,1.1,0.7,2.1,1,3.2c0,0.2,0.2,0.3,0.3,0.3c0,0,0,0,0,0
				c0.4,0,0.9,0,1.3,0s0.9,0,1.3,0C50.9,25.1,51,25.1,50.9,24.9z M45.8,19.2c-0.8,0-1.7,0-2.6,0l1.5-4.8c0.4,1.6,0.8,3.1,1.2,4.6
				C45.9,19.2,45.9,19.2,45.8,19.2L45.8,19.2z"/>
		</g>
	</g>
</g>
</svg>
