<svg xmlns="http://www.w3.org/2000/svg" width="54" height="54" viewBox="0 0 54 54"><defs><style>.a{fill:#eabdbb;}.a,.b{opacity:0.75;}.b{fill:#101113;}.c{fill:#fff;opacity:0;}</style></defs><g transform="translate(-6526 -4920)"><g transform="translate(6536.998 4931.026)"><rect class="a" width="20.292" height="26.618" rx="0.417" transform="translate(11.662 5.892)"/><path class="b" d="M182.274,291.564H159.923a.621.621,0,0,0-.622.622v1.748l-6.264,1.026a.624.624,0,0,0-.514.714l4.349,26.561a.622.622,0,0,0,.613.521.7.7,0,0,0,.1-.007l2.188-.358a.582.582,0,0,0,.148.03h22.352a.622.622,0,0,0,.622-.622V292.186A.621.621,0,0,0,182.274,291.564Zm-28.423,4.524,5.449-.892v26.013l-1.3.213Zm27.8,25.089H160.545V292.808h21.108Z" transform="translate(-152.515 -291.564)"/><path class="b" d="M176.238,299.2H161.723a.62.62,0,0,1,0-1.241h14.515a.62.62,0,0,1,0,1.241Z" transform="translate(-150.393 -290.003)"/><path class="b" d="M176.238,301.849H161.723a.62.62,0,1,1,0-1.241h14.515a.62.62,0,0,1,0,1.241Z" transform="translate(-150.393 -289.356)"/><path class="b" d="M176.238,304.5H161.723a.62.62,0,1,1,0-1.241h14.515a.62.62,0,0,1,0,1.241Z" transform="translate(-150.393 -288.709)"/><path class="b" d="M176.238,307.148H161.723a.62.62,0,1,1,0-1.241h14.515a.62.62,0,0,1,0,1.241Z" transform="translate(-150.393 -288.062)"/><path class="b" d="M176.238,309.8H161.723a.62.62,0,0,1,0-1.241h14.515a.62.62,0,0,1,0,1.241Z" transform="translate(-150.393 -287.415)"/></g><rect class="c" width="54" height="54" transform="translate(6526 4920)"/></g></svg>