<svg xmlns="http://www.w3.org/2000/svg" width="52" height="52" viewBox="0 0 52 52"><defs><style>.a{fill:none;}.b{fill:#f6d2d1;}.c{fill:rgba(16,17,19,0.65);}</style></defs><g transform="translate(0 0)"><rect class="a" width="52" height="52"/><path class="b" d="M25.4,73.924l-1.356,2.842a.66.66,0,0,0,.7.936l1.537-.247.858,1.408a.659.659,0,0,0,.564.317h.034A.66.66,0,0,0,28.3,78.8l1.49-3.122,1.49,3.122a.66.66,0,0,0,.562.375h.034a.659.659,0,0,0,.564-.317l.858-1.408,1.537.247a.66.66,0,0,0,.7-.936l-1.356-2.842H25.4Zm8.778,0-.287-.6.044-.022a1.981,1.981,0,0,0,1.147-1.986.868.868,0,0,1,.157-.585,1.981,1.981,0,0,0,0-2.294.868.868,0,0,1-.157-.585,1.981,1.981,0,0,0-1.147-1.986.869.869,0,0,1-.428-.428,1.981,1.981,0,0,0-1.986-1.147.867.867,0,0,1-.585-.157,1.981,1.981,0,0,0-2.294,0,.868.868,0,0,1-.585.157,1.981,1.981,0,0,0-1.986,1.147.868.868,0,0,1-.428.428,1.981,1.981,0,0,0-1.147,1.986.868.868,0,0,1-.157.585,1.981,1.981,0,0,0,0,2.294.868.868,0,0,1,.157.585A1.981,1.981,0,0,0,25.642,73.3l.044.022-.287.6" transform="translate(9.397 -32.768)"/><g transform="translate(6.933 12.685)"><g transform="translate(7.605 6.567)"><path class="c" d="M124.859,137.141H103.273a.556.556,0,0,0,0,1.111h21.586a.556.556,0,0,0,0-1.111Z" transform="translate(-102.717 -137.141)"/></g><g transform="translate(7.605 12.618)"><g transform="translate(0 0)"><path class="c" d="M124.859,218.869H103.273a.556.556,0,1,0,0,1.111h21.586a.556.556,0,1,0,0-1.111Z" transform="translate(-102.717 -218.869)"/></g></g><g transform="translate(14.682 16.545)"><g transform="translate(0 0)"><path class="c" d="M206.289,271.909h-7.432a.556.556,0,1,0,0,1.111h7.432a.556.556,0,0,0,0-1.111Z" transform="translate(-198.301 -271.909)"/></g></g><g transform="translate(13.09 9.58)"><g transform="translate(0 0)"><path class="c" d="M193.454,177.838h-16.1a.556.556,0,1,0,0,1.111h16.1a.556.556,0,0,0,0-1.111Z" transform="translate(-176.797 -177.838)"/></g></g><g transform="translate(7.605 9.58)"><g transform="translate(0 0)"><path class="c" d="M106.172,177.837h-2.9a.556.556,0,1,0,0,1.111h2.9a.556.556,0,1,0,0-1.111Z" transform="translate(-102.717 -177.837)"/></g></g><g transform="translate(0 0)"><path class="c" d="M36.365,48.445H1.543A1.544,1.544,0,0,0,0,49.988V73.493a1.544,1.544,0,0,0,1.543,1.543H24.868l-.826,1.731a.66.66,0,0,0,.7.936l1.537-.247.858,1.408a.659.659,0,0,0,.564.317h.034A.66.66,0,0,0,28.3,78.8l1.49-3.122,1.49,3.122a.66.66,0,0,0,.562.375h.034a.659.659,0,0,0,.564-.317l.858-1.408,1.537.247a.66.66,0,0,0,.7-.936l-.826-1.731h1.658a1.544,1.544,0,0,0,1.543-1.543V49.988A1.544,1.544,0,0,0,36.365,48.445ZM27.654,77.572l-.582-.955a.658.658,0,0,0-.668-.308l-.987.159,1.04-2.179a1.98,1.98,0,0,0,1.6.587.868.868,0,0,1,.585.157,1.969,1.969,0,0,0,.173.108Zm2.267-3.3h-.005a.873.873,0,0,1-.254,0h-.006a.866.866,0,0,1-.37-.15,1.98,1.98,0,0,0-1.147-.366q-.093,0-.186.009a.868.868,0,0,1-.871-.5,1.978,1.978,0,0,0-.256-.413l-.014-.018-.017-.021-.02-.022a1.978,1.978,0,0,0-.669-.5.869.869,0,0,1-.5-.871,1.98,1.98,0,0,0-.357-1.333.869.869,0,0,1,0-1.006,1.98,1.98,0,0,0,.357-1.333.869.869,0,0,1,.5-.871,1.979,1.979,0,0,0,.976-.976.869.869,0,0,1,.871-.5,1.98,1.98,0,0,0,1.333-.357.869.869,0,0,1,1.006,0,1.982,1.982,0,0,0,1.333.357.868.868,0,0,1,.871.5,1.979,1.979,0,0,0,.976.976.869.869,0,0,1,.5.871,1.98,1.98,0,0,0,.357,1.333.868.868,0,0,1,0,1.006,1.98,1.98,0,0,0-.357,1.333.869.869,0,0,1-.5.871,1.978,1.978,0,0,0-.668.5l-.022.024-.014.018-.016.021a1.976,1.976,0,0,0-.255.412.869.869,0,0,1-.871.5,1.982,1.982,0,0,0-1.333.357A.866.866,0,0,1,29.92,74.277Zm3.252,2.032a.658.658,0,0,0-.668.308l-.582.955-1.16-2.431a1.98,1.98,0,0,0,.173-.108.867.867,0,0,1,.585-.157,1.98,1.98,0,0,0,1.6-.587l1.04,2.179ZM36.8,73.493a.432.432,0,0,1-.431.431H34.177l-.287-.6.044-.022a1.981,1.981,0,0,0,1.147-1.986.868.868,0,0,1,.157-.585,1.981,1.981,0,0,0,0-2.294.868.868,0,0,1-.157-.585,1.981,1.981,0,0,0-1.147-1.986.869.869,0,0,1-.428-.428,1.981,1.981,0,0,0-1.986-1.147.867.867,0,0,1-.585-.157,1.981,1.981,0,0,0-2.294,0,.868.868,0,0,1-.585.157,1.981,1.981,0,0,0-1.986,1.147.868.868,0,0,1-.428.428,1.981,1.981,0,0,0-1.147,1.986.868.868,0,0,1-.157.585,1.981,1.981,0,0,0,0,2.294.868.868,0,0,1,.157.585A1.981,1.981,0,0,0,25.642,73.3l.044.022-.287.6H1.543a.432.432,0,0,1-.431-.431V49.988a.432.432,0,0,1,.431-.431H36.365a.432.432,0,0,1,.431.431V73.493Z" transform="translate(0 -48.445)"/></g><g transform="translate(26.294 17.685)"><g transform="translate(0 0)"><path class="c" d="M358.6,287.312a3.453,3.453,0,1,0,3.453,3.453A3.457,3.457,0,0,0,358.6,287.312Zm0,5.794a2.341,2.341,0,1,1,2.341-2.341A2.344,2.344,0,0,1,358.6,293.106Z" transform="translate(-355.143 -287.312)"/></g></g></g></g></svg>