<svg xmlns="http://www.w3.org/2000/svg" width="54" height="54" viewBox="0 0 54 54"><defs><style>.a{fill:#eabdbb;}.a,.b,.c{opacity:0.75;}.b{fill:#101113;}.c{fill:#111114;}.d{fill:#fff;opacity:0;}</style></defs><g transform="translate(-6715 -4926)"><g transform="translate(6432.405 4645.28)"><path class="a" d="M314.227,306.782a1.3,1.3,0,0,0-.4-.4l-6.1-3.886a1.289,1.289,0,0,0-.989-.175A1.311,1.311,0,0,0,305.7,303.6v7.776a1.315,1.315,0,0,0,.681,1.148h0a1.308,1.308,0,0,0,1.333-.044l6.107-3.887A1.315,1.315,0,0,0,314.227,306.782Z" transform="translate(2.905 2.502)"/><g transform="translate(294.595 292.72)"><path class="b" d="M309.287,322.1a14.692,14.692,0,1,1,14.692-14.692A14.708,14.708,0,0,1,309.287,322.1Zm0-27.871a13.179,13.179,0,1,0,13.179,13.179A13.193,13.193,0,0,0,309.287,294.234Z" transform="translate(-294.595 -292.72)"/><path class="c" d="M304.877,310.643a1.314,1.314,0,0,1-.63-.161h0a1.314,1.314,0,0,1-.681-1.148v-7.776a1.311,1.311,0,0,1,.207-.705,1.313,1.313,0,0,1,1.812-.4l6.1,3.886a1.315,1.315,0,0,1,0,2.214l-6.106,3.887A1.306,1.306,0,0,1,304.877,310.643Zm.172-8.738.029,7.059,5.547-3.531Zm-.28-.178h0Z" transform="translate(-292.249 -290.752)"/></g></g><rect class="d" width="54" height="54" transform="translate(6715 4926)"/></g></svg>