<svg xmlns="http://www.w3.org/2000/svg" width="54" height="54" viewBox="0 0 54 54"><defs><style>.a{fill:#eabdbb;}.a,.b,.d{opacity:0.75;}.c,.d{fill:#101113;}.e{fill:#fff;opacity:0;}</style></defs><g transform="translate(-6591 -4928)"><g transform="translate(6405.101 4648.25)"><circle class="a" cx="2.503" cy="2.503" r="2.503" transform="translate(212.773 291.24)"/><circle class="a" cx="1.575" cy="1.575" r="1.575" transform="translate(201.549 296.694)"/><circle class="a" cx="2.137" cy="2.137" r="2.137" transform="translate(194.755 308.551)"/><path class="a" d="M228.617,312.141c2.429-6.718-3.254-6.967-3.254-6.967-1.063-3.6-5.845-1.91-5.845-1.91-3.146-2.359-5.505,1.123-5.505,1.123-3.763-1.291-4.213,2.865-4.213,2.865-2.639.955-1.291,3.7-1.291,3.7l.342.02A2.635,2.635,0,0,0,207.5,313.6c0,4.83,6.774,3.044,6.774,3.044v0a3.7,3.7,0,0,0,4.858.54l-.011.013a5.894,5.894,0,0,0,4.418,2.351c.179.413,1.626,3.638,3.1,2.846,1.331-.713,0-3.329-.189-3.689.12-.067.236-.12.358-.2a4.708,4.708,0,0,0,1.8-6.365Z" transform="translate(2.394 2.235)"/><g class="b" transform="translate(207.955 301.249)"><path class="c" d="M217,307.059a2.473,2.473,0,0,0-1.811.637,2.876,2.876,0,0,0-.792,2.264.589.589,0,0,0,.588.575H215a.59.59,0,0,0,.575-.6,1.8,1.8,0,0,1,.414-1.375,1.277,1.277,0,0,1,.92-.327.588.588,0,0,0,.093-1.172Z" transform="translate(-204.346 -298.203)"/><path class="c" d="M228.028,304.244a4.846,4.846,0,0,0-3.289-1.938,3.453,3.453,0,0,0-1.673-1.876,6.64,6.64,0,0,0-4.5-.14,3.933,3.933,0,0,0-2.915-.71,5.138,5.138,0,0,0-2.907,1.8,3.4,3.4,0,0,0-2.8.31,4.41,4.41,0,0,0-1.721,2.813A2.786,2.786,0,0,0,206.722,306a3.745,3.745,0,0,0,.1,2.64,3.506,3.506,0,0,0-.968,2.635,3.588,3.588,0,0,0,1.337,3.018,5.613,5.613,0,0,0,3.406.936,12.021,12.021,0,0,0,2.454-.269,4.661,4.661,0,0,0,2.658,1.163c.088.006.174.009.261.009a4.223,4.223,0,0,0,1.957-.507,6.557,6.557,0,0,0,4.1,2.142c.2.454,1.148,2.454,2.47,2.92a1.748,1.748,0,0,0,.573.1,1.643,1.643,0,0,0,.787-.2,1.715,1.715,0,0,0,.853-1.054,4.556,4.556,0,0,0-.542-2.933,5.307,5.307,0,0,0,2.019-6.818C228.979,307.457,228.932,305.593,228.028,304.244ZM225.581,319.2a.537.537,0,0,1-.279.348.465.465,0,0,1-.414.028,4.054,4.054,0,0,1-1.559-1.826,6.553,6.553,0,0,0,1.815-.569A3.5,3.5,0,0,1,225.581,319.2Zm-.146-3.516a4.826,4.826,0,0,1-6.527-.715,10.971,10.971,0,0,0,2.111-2.305c.181-.259.69-.8,1.1-.826a.611.611,0,0,1,.5.274.588.588,0,0,0,.886-.775,1.765,1.765,0,0,0-1.452-.673,3.073,3.073,0,0,0-2,1.325c-1.452,2.055-2.891,3.034-4.267,2.96-2.14-.142-3.592-2.866-3.606-2.893a.588.588,0,0,0-1.043.543,8.622,8.622,0,0,0,.911,1.341c-1.161.168-3.045.27-4.148-.581a2.449,2.449,0,0,1-.877-2.085,2.241,2.241,0,0,1,.777-1.964c.993-.716,2.826-.334,3.447-.127a.594.594,0,0,0,.743-.372.587.587,0,0,0-.369-.743,6.509,6.509,0,0,0-3.792-.087,2.407,2.407,0,0,1-.019-1.548,1.759,1.759,0,0,1,1.127-.954l.343-.126.041-.362a3.527,3.527,0,0,1,1.244-2.307,2.5,2.5,0,0,1,2.193-.066l.425.146.253-.372a4.282,4.282,0,0,1,2.4-1.65,2.687,2.687,0,0,1,1.813.38,4.287,4.287,0,0,0-.749,3.414c-.656,1-1.4.727-1.548.654a.588.588,0,0,0-.541,1.044,2.151,2.151,0,0,0,.981.229,2.35,2.35,0,0,0,1.792-.874,3.178,3.178,0,0,0,1.45.7.517.517,0,0,0,.094.008.588.588,0,0,0,.093-1.168,1.7,1.7,0,0,1-1.167-.836c-.28-.642,0-1.635.789-2.864a5.555,5.555,0,0,1,3.681.046,2.366,2.366,0,0,1,1.21,1.536l.119.4.42.019a3.844,3.844,0,0,1,2.772,1.463,4.427,4.427,0,0,1,.3,3.583,3.615,3.615,0,0,0-4.019-1.181.587.587,0,1,0,.413,1.1c1.434-.532,2.733.541,3.341,1.765A4.137,4.137,0,0,1,225.436,315.681Z" transform="translate(-205.851 -299.528)"/></g><path class="d" d="M206.417,307.129H199.7a.588.588,0,1,1,0-1.176h6.716a.588.588,0,1,1,0,1.176Z" transform="translate(0.918 2.852)"/><path class="d" d="M211.23,301.182a.588.588,0,0,1-.588-.582L210.6,296a.588.588,0,0,1,.582-.594h.006a.589.589,0,0,1,.588.582l.044,4.605a.587.587,0,0,1-.582.593Z" transform="translate(2.94 0.995)"/><path class="d" d="M211.652,295.934a3.092,3.092,0,1,1,2.886-1.971A3.081,3.081,0,0,1,211.652,295.934Zm0-5.008a1.918,1.918,0,1,0,.7.131A1.915,1.915,0,0,0,211.656,290.926Z" transform="translate(2.582 0)"/><path class="d" d="M196.624,309.586a2.725,2.725,0,1,1,2.725-2.725A2.728,2.728,0,0,1,196.624,309.586Zm0-4.274a1.549,1.549,0,1,0,1.549,1.549A1.551,1.551,0,0,0,196.624,305.312Z" transform="translate(0 2.533)"/><path class="d" d="M207.463,303.611a.587.587,0,0,1-.4-.16l-3.466-3.276a.588.588,0,1,1,.808-.854l3.466,3.275a.587.587,0,0,1-.4,1.015Z" transform="translate(1.674 1.656)"/><path class="d" d="M202.281,300.4a2.162,2.162,0,1,1,1.572-.676A2.156,2.156,0,0,1,202.281,300.4Zm0-3.147a.985.985,0,1,0,.677.268A.985.985,0,0,0,202.282,297.25Z" transform="translate(1.095 1.113)"/></g><rect class="e" width="54" height="54" transform="translate(6591 4928)"/></g></svg>