<svg xmlns="http://www.w3.org/2000/svg" width="54" height="54" viewBox="0 0 54 54"><defs><style>.a{fill:none;}.b{fill:#f6d2d1;}.c{fill:rgba(16,17,19,0.65);}</style></defs><g transform="translate(0 0)"><rect class="a" width="54" height="54"/><g transform="translate(2.408 3.939)"><path class="b" d="M927.29,3310.87s1.712.012,1.509,2.725c-.061.817-.035.888.39,1.255.219.349,5.166,0,5.166,0h13.131s3.1.071,3.5-.245.219-1.468.219-1.468a2.253,2.253,0,0,0-1.221-2.266c-1.4-.56-7.061-.216-7.061-.216Z" transform="translate(-912.912 -3302.121)"/><rect class="b" width="4.413" height="4.413" rx="1" transform="translate(16.329 24.714)"/><rect class="b" width="4.413" height="4.413" rx="1" transform="translate(16.329 16.77)"/><rect class="b" width="4.413" height="4.413" rx="1" transform="translate(16.329 31.775)"/><g transform="translate(10.592 7.061)"><path class="c" d="M1.589,31.775H21.713A1.589,1.589,0,0,0,23.3,30.186V5.3H25.42a1.059,1.059,0,0,0,1.059-1.059V2.648A2.651,2.651,0,0,0,23.831,0H1.589A1.589,1.589,0,0,0,0,1.589v28.6A1.589,1.589,0,0,0,1.589,31.775ZM23.831,1.059A1.589,1.589,0,0,1,25.42,2.648V4.237H4.237V2.648a2.62,2.62,0,0,0-.543-1.589Zm-22.772.53a.53.53,0,0,1,.53-.53A1.589,1.589,0,0,1,3.177,2.648V4.237A1.059,1.059,0,0,0,4.237,5.3H22.242v24.89a.53.53,0,0,1-.529.53H1.589a.53.53,0,0,1-.53-.53Zm0,0"/><path class="c" d="M52.258,133.3h3.177a1.059,1.059,0,0,0,1.059-1.059v-.529a.53.53,0,0,0-1.059,0v.529H52.258v-3.177h1.589a.53.53,0,0,0,0-1.059H52.258a1.059,1.059,0,0,0-1.059,1.059v3.177A1.059,1.059,0,0,0,52.258,133.3Zm0,0" transform="translate(-47.139 -120.056)"/><path class="c" d="M52.258,252.761h3.177A1.059,1.059,0,0,0,56.5,251.7v-3.177a1.06,1.06,0,0,0-1.059-1.059H52.258a1.059,1.059,0,0,0-1.059,1.059V251.7A1.059,1.059,0,0,0,52.258,252.761Zm0-4.237h3.177V251.7H52.258Zm0,0" transform="translate(-47.139 -232.107)"/><path class="c" d="M52.258,372.229h3.177A1.059,1.059,0,0,0,56.5,371.17v-3.177a1.059,1.059,0,0,0-1.059-1.059H52.258a1.059,1.059,0,0,0-1.059,1.059v3.177A1.059,1.059,0,0,0,52.258,372.229Zm0-4.237h3.177v3.177H52.258Zm0,0" transform="translate(-47.139 -344.162)"/><path class="c" d="M244.759,264.535h-5.3a.53.53,0,0,0,0,1.059h5.3a.53.53,0,0,0,0-1.059Zm0,0" transform="translate(-225.871 -246.882)"/><path class="c" d="M244.759,264.535h-5.3a.53.53,0,0,0,0,1.059h5.3a.53.53,0,0,0,0-1.059Zm0,0" transform="translate(-225.871 -253.944)"/><path class="c" d="M244.759,384h-5.3a.53.53,0,0,0,0,1.059h5.3a.53.53,0,0,0,0-1.059Zm0,0" transform="translate(-225.871 -359.286)"/><path class="c" d="M77.8,113.758a.53.53,0,0,0-.749.749l1.059,1.059a.53.53,0,0,0,.374.155h.044a.53.53,0,0,0,.387-.22l2.648-3.707a.53.53,0,1,0-.862-.615l-2.284,3.2Zm0,0" transform="translate(-71.25 -104.071)"/></g></g></g></svg>