<svg xmlns="http://www.w3.org/2000/svg" width="54" height="54" viewBox="0 0 54 54"><defs><style>.a{fill:#eabdbb;}.a,.b{opacity:0.75;}.b{fill:#101113;}.c{fill:#fff;opacity:0;}</style></defs><g transform="translate(-6775 -4925)"><g transform="translate(6445.509 4644.416)"><path class="a" d="M362.748,294.125H347.122a.519.519,0,0,0-.519.519v26.7a.52.52,0,0,0,.519.519h19.9a.519.519,0,0,0,.519-.519V298.613a.521.521,0,0,0-.174-.389l-4.616-4.1" transform="translate(1.755 2.261)"/><path class="b" d="M362.65,300.994H348.216a.624.624,0,1,1,0-1.247H362.65a.624.624,0,1,1,0,1.247Z" transform="translate(0.766 2.016)"/><path class="b" d="M362.65,303.616H348.216a.624.624,0,1,1,0-1.247H362.65a.624.624,0,0,1,0,1.247Z" transform="translate(0.766 2.664)"/><path class="b" d="M362.65,306.238H348.216a.623.623,0,1,1,0-1.247H362.65a.623.623,0,1,1,0,1.247Z" transform="translate(0.766 3.312)"/><path class="b" d="M367.859,297.057a.632.632,0,0,0-.138-.2l-5.169-5.085h0l0,0a.367.367,0,0,0-.046-.03.521.521,0,0,0-.363-.143.247.247,0,0,0-.029-.006h-17a.623.623,0,0,0-.624.624v29.369a.623.623,0,0,0,.624.624h22.169a.624.624,0,0,0,.624-.624V297.3A.629.629,0,0,0,367.859,297.057Zm-5.125-3.362,3.051,3-3.051.049Zm3.927,27.258H345.738V292.831h15.748v4.549a.624.624,0,0,0,.187.445.6.6,0,0,0,.446.178l4.54-.072Z" transform="translate(0 0)"/></g><rect class="c" width="54" height="54" transform="translate(6775 4925)"/></g></svg>