<svg xmlns="http://www.w3.org/2000/svg" width="32" height="31.999" viewBox="0 0 32 31.999"><defs><style>.a{fill:#ffd93b;}.b{fill:#f4c534;}.c{fill:#3e4347;}.d{fill:#e24b4b;}.e{opacity:0.2;}.f{fill:#fff;}.g{fill:#45cbea;}.h{fill:#e9b02c;}</style></defs><ellipse class="a" cx="15.999" cy="15.999" rx="15.999" ry="15.999"/><path class="b" d="M85.174,69.183A16,16,0,0,1,56.72,79.227a16,16,0,0,0,22.5-22.5A15.982,15.982,0,0,1,85.174,69.183Z" transform="translate(-53.175 -53.183)"/><path class="c" d="M155.642,323.912c1.44-3.218,3.72-3.253,6.23-3.929s4.8,1.88,6.24,3.2c.446.312.024,1.159-.8,1.547-3.622,1.4-7.244-1.219-10.866.536C155.618,325.753,155.2,325.019,155.642,323.912Z" transform="translate(-145.745 -299.878)"/><g transform="translate(9.716 19.991)"><path class="c" d="M155.642,323.912c1.44-3.218,3.72-3.253,6.23-3.929s4.8,1.88,6.24,3.2c.446.312.024,1.159-.8,1.547-3.622,1.4-7.244-1.219-10.866.536C155.618,325.753,155.2,325.019,155.642,323.912Z" transform="translate(-155.461 -319.869)"/></g><path class="d" d="M211.431,364.095a4.865,4.865,0,0,0-.744-2.045,1.627,1.627,0,0,0-1.939-.482,2.825,2.825,0,0,1-.847.269,2.426,2.426,0,0,1-.9-.039,1.838,1.838,0,0,0-2.393,1.423,3.644,3.644,0,0,0-.047.42C206.85,363.4,209.141,364.25,211.431,364.095Z" transform="translate(-191.775 -338.834)"/><g class="e" transform="translate(17.25 23.019)"><ellipse class="f" cx="0.582" cy="0.382" rx="0.582" ry="0.382" transform="matrix(-0.916, -0.401, 0.401, -0.916, 1.066, 1.166)"/></g><g transform="translate(19.044 12.929)"><path class="g" d="M315.646,462.826c.123.072.194.149.194.225,0,.141-.217.269-.592.378.669.125,1.079.3,1.079.494,0,.394-1.736.715-3.871.715a11.519,11.519,0,0,1-3.472-.406h-.006c-.123,0-.258,0-.387,0-2.141,0-3.871-.321-3.871-.715,0-.209.487-.4,1.261-.526-.686-.128-1.114-.305-1.114-.5,0-.4,1.73-.715,3.865-.715.61,0,1.185.024,1.695.072a12.259,12.259,0,0,1,3.378-.37c2.135,0,3.871.322,3.871.715C317.675,462.464,316.854,462.7,315.646,462.826Z" transform="translate(-304.72 -445.567)"/><path class="g" d="M351.062,224.619a1.266,1.266,0,0,0,1.056-1.336,30.563,30.563,0,0,0-5.815-16.411,3.236,3.236,0,0,1-1.519.622,27.342,27.342,0,0,1,2.23,7.662,26.073,26.073,0,0,1-.086,7.93,1.236,1.236,0,0,0,.766,1.324A6.3,6.3,0,0,0,351.062,224.619Z" transform="translate(-342.28 -206.872)"/></g><g class="e" transform="translate(21.891 13.472)"><path class="f" d="M353.006,223a28.583,28.583,0,0,0-2.691-7.437l-.043.011a31.317,31.317,0,0,1,2.437,7.487,29.652,29.652,0,0,1,.417,9.122A28.206,28.206,0,0,0,353.006,223Z" transform="translate(-350.272 -215.56)"/></g><g class="e" transform="translate(22.351 13.325)"><path class="f" d="M360.765,220.654a30.127,30.127,0,0,0-3.112-7.446l-.021.008a30.312,30.312,0,0,1,2.987,7.476,28.211,28.211,0,0,1,.766,9.391c-.024.307.278.331.3.024A30.107,30.107,0,0,0,360.765,220.654Z" transform="translate(-357.632 -213.208)"/></g><g class="e" transform="translate(22.644 13.052)"><path class="f" d="M366.1,216.4a30.407,30.407,0,0,0-3.542-7.563c-.077.051-.158.1-.241.143a30.146,30.146,0,0,1,3.64,7.468,29.276,29.276,0,0,1,1.48,9.669A28.992,28.992,0,0,0,366.1,216.4Z" transform="translate(-362.32 -208.84)"/></g><path class="c" d="M289.807,187.827a4.589,4.589,0,0,1-3.206-1.353.667.667,0,1,1,.929-.957,3.143,3.143,0,0,0,4.554,0,.667.667,0,1,1,.929.957A4.589,4.589,0,0,1,289.807,187.827Z" transform="translate(-268.5 -173.747)"/><g transform="translate(0 12.928)"><path class="g" d="M2.029,462.826c-.123.072-.193.149-.193.225,0,.141.217.269.592.378-.668.125-1.079.3-1.079.494,0,.393,1.736.715,3.871.715a11.52,11.52,0,0,0,3.472-.406H8.7c.123,0,.258,0,.387,0,2.141,0,3.871-.321,3.871-.715,0-.209-.487-.4-1.261-.526.686-.128,1.114-.305,1.114-.5,0-.4-1.73-.715-3.865-.715-.61,0-1.185.024-1.695.072a12.258,12.258,0,0,0-3.378-.37c-2.135,0-3.871.321-3.871.715C0,462.464.821,462.7,2.029,462.826Z" transform="translate(0 -445.566)"/><path class="g" d="M51.7,224.35a1.248,1.248,0,0,1-1.041-1.317,30.124,30.124,0,0,1,5.733-16.177,3.2,3.2,0,0,0,1.5.614,26.957,26.957,0,0,0-2.2,7.553,25.714,25.714,0,0,0,.085,7.816,1.219,1.219,0,0,1-.755,1.3A6.2,6.2,0,0,1,51.7,224.35Z" transform="translate(-47.489 -206.856)"/></g><g class="e" transform="translate(6.95 13.464)"><path class="f" d="M111.625,222.763a28.169,28.169,0,0,1,2.652-7.331l.042.011a30.854,30.854,0,0,0-2.4,7.38,29.218,29.218,0,0,0-.411,8.992A27.878,27.878,0,0,1,111.625,222.763Z" transform="translate(-111.211 -215.432)"/></g><g class="e" transform="translate(5.578 13.32)"><path class="f" d="M90.2,220.467a29.683,29.683,0,0,1,3.068-7.339l.021.008a29.85,29.85,0,0,0-2.944,7.369,27.826,27.826,0,0,0-.755,9.257.151.151,0,1,1-.3.024A29.678,29.678,0,0,1,90.2,220.467Z" transform="translate(-89.258 -213.128)"/></g><g class="e" transform="translate(4.272 13.05)"><path class="f" d="M69.669,216.263a29.966,29.966,0,0,1,3.492-7.455c.076.05.155.1.238.141a29.747,29.747,0,0,0-3.588,7.362,28.841,28.841,0,0,0-1.459,9.531A28.569,28.569,0,0,1,69.669,216.263Z" transform="translate(-68.352 -208.808)"/></g><path class="c" d="M119.951,187.827a4.589,4.589,0,0,1-3.206-1.353.667.667,0,0,1,.929-.957,3.143,3.143,0,0,0,4.554,0,.667.667,0,0,1,.929.957A4.591,4.591,0,0,1,119.951,187.827Z" transform="translate(-109.259 -173.747)"/><g transform="translate(6.639 5.615)"><path class="h" d="M295.283,90.766a.667.667,0,0,1,1.236-.5,4.521,4.521,0,0,0,4.855,2.7.667.667,0,1,1,.2,1.318A5.82,5.82,0,0,1,295.283,90.766Z" transform="translate(-283.421 -89.85)"/><path class="h" d="M106.791,94.282a.667.667,0,0,1,.2-1.318,4.553,4.553,0,0,0,4.857-2.7.666.666,0,1,1,1.235.5A5.815,5.815,0,0,1,106.791,94.282Z" transform="translate(-106.226 -89.85)"/></g><path class="g" d="M412.852,216.048a1.184,1.184,0,0,1-1.666,1.682,8.182,8.182,0,0,1-.882-2.538A8.2,8.2,0,0,1,412.852,216.048Z" transform="translate(-384.661 -201.743)"/><g class="e" transform="translate(27.643 14.684)"><ellipse class="f" cx="0.37" cy="0.234" rx="0.37" ry="0.234" transform="translate(0.137 0.814) rotate(-100.708)"/></g><path class="g" d="M447.682,272.3a1.184,1.184,0,0,1-2.25.736,8.2,8.2,0,0,1,.375-2.661S447.478,271.68,447.682,272.3Z" transform="translate(-417.553 -253.479)"/><g class="e" transform="translate(29.22 18.982)"><ellipse class="f" cx="0.234" cy="0.37" rx="0.234" ry="0.37" transform="translate(0.449 0.842) rotate(-163.549)"/></g><path class="g" d="M64.894,212.284a1.183,1.183,0,0,0,1.836,1.494,8.182,8.182,0,0,0,.6-2.618A8.2,8.2,0,0,0,64.894,212.284Z" transform="translate(-60.589 -197.963)"/><g class="e" transform="translate(4.369 14.688)"><ellipse class="f" cx="0.233" cy="0.37" rx="0.233" ry="0.37" transform="matrix(-0.997, -0.08, 0.08, -0.997, 0.464, 0.775)"/></g><path class="g" d="M25.5,293.452a1.184,1.184,0,1,0,2.352.272,8.2,8.2,0,0,0-.9-2.532A8.173,8.173,0,0,0,25.5,293.452Z" transform="translate(-23.896 -272.994)"/><g class="e" transform="translate(1.907 20.48)"><ellipse class="f" cx="0.37" cy="0.234" rx="0.37" ry="0.234" transform="translate(0.347 0.873) rotate(-117.974)"/></g></svg>