<svg xmlns="http://www.w3.org/2000/svg" width="32" height="32" viewBox="0 0 32 32"><defs><style>.a{fill:#ffd93b;}.b{fill:#3e4347;}.c{fill:#f4c534;}.d{fill:#5a5f63;}</style></defs><ellipse class="a" cx="16" cy="16" rx="16" ry="16"/><path class="b" d="M106.977,292.481a10.229,10.229,0,0,1-9.914-7.705.666.666,0,1,1,1.291-.33,8.9,8.9,0,0,0,17.244,0,.667.667,0,1,1,1.292.33A10.226,10.226,0,0,1,106.977,292.481Z" transform="translate(-90.977 -266.197)"/><path class="c" d="M85.175,69.175A16,16,0,0,1,56.72,79.22a16,16,0,0,0,22.5-22.5A15.983,15.983,0,0,1,85.175,69.175Z" transform="translate(-53.175 -53.175)"/><ellipse class="b" cx="2.452" cy="2.914" rx="2.452" ry="2.914" transform="translate(8.381 10.855)"/><path class="d" d="M178.076,195.7a.529.529,0,0,1-.706-.168.457.457,0,1,1,.685-.56A.53.53,0,0,1,178.076,195.7Z" transform="translate(-166.137 -182.556)"/><ellipse class="b" cx="2.452" cy="2.914" rx="2.452" ry="2.914" transform="translate(18.718 10.855)"/><path class="d" d="M343.436,195.7a.529.529,0,0,1-.706-.168.457.457,0,1,1,.685-.56A.53.53,0,0,1,343.436,195.7Z" transform="translate(-321.162 -182.556)"/></svg>