<svg xmlns="http://www.w3.org/2000/svg" width="32" height="32" viewBox="0 0 32 32"><defs><style>.a{fill:#ffd93b;}.b{fill:#f4c534;}.c{fill:#3e4347;}.d{fill:#5a5f63;}</style></defs><ellipse class="a" cx="16" cy="16" rx="16" ry="16"/><path class="b" d="M85.175,69.175A16,16,0,0,1,56.72,79.22a16,16,0,0,0,22.5-22.5A15.983,15.983,0,0,1,85.175,69.175Z" transform="translate(-53.175 -53.175)"/><g transform="translate(8.523 10.559)"><path class="c" d="M155.745,331.35a.869.869,0,0,1-.87.87H142.294a.87.87,0,0,1,0-1.74h12.581A.869.869,0,0,1,155.745,331.35Z" transform="translate(-141.108 -320.384)"/><ellipse class="c" cx="2.384" cy="2.384" rx="2.384" ry="2.384"/></g><ellipse class="d" cx="0.626" cy="0.405" rx="0.626" ry="0.405" transform="translate(11.966 12.713) rotate(-126.653)"/><ellipse class="c" cx="2.384" cy="2.384" rx="2.384" ry="2.384" transform="translate(18.706 10.559)"/><ellipse class="d" cx="0.626" cy="0.405" rx="0.626" ry="0.405" transform="matrix(-0.597, -0.802, 0.802, -0.597, 22.148, 12.716)"/></svg>