<svg xmlns="http://www.w3.org/2000/svg" width="232" height="225.186" viewBox="0 0 232 225.186"><defs><style>.a{fill:#e8e8e8;}.b{fill:#cecece;}.c,.g{fill:#f7f7f7;}.d{fill:#b5b5b5;}.e,.h{fill:#fff;}.f,.g{opacity:0.6;}.h{opacity:0.8;}</style></defs><g transform="translate(-425.826 463.504)"><path class="a" d="M607.689-418.334c-17.279-1.044-26.722,1.12-51.23-20.266s-40.085-26.38-55.784-24.56c-25.811,2.991-44.153,18.028-48.431,48.124-3.23,22.723-.736,25.542-21.129,66.171s24.759,63.6,24.759,63.6,22.478,16.819,62.178,16.109c28.728-.515,48.02-20.8,76.157-26.09,47.45-8.921,60.86-56.073,60.86-56.073C669.247-409.235,624.969-417.291,607.689-418.334Z" transform="translate(0 0)"/><path class="b" d="M584.423-230.219h-4.791a.793.793,0,0,1-.793-.793.792.792,0,0,1,.793-.793h4.758a.806.806,0,0,1,.809.793A.779.779,0,0,1,584.423-230.219Zm-9.549,0h-4.758a.793.793,0,0,1-.793-.793.792.792,0,0,1,.793-.793h4.758a.792.792,0,0,1,.793.793A.793.793,0,0,1,574.874-230.219Zm-9.517,0H560.6a.793.793,0,0,1-.793-.793.792.792,0,0,1,.793-.793h4.758a.792.792,0,0,1,.793.793A.793.793,0,0,1,565.357-230.219Zm-9.517,0h-4.758a.793.793,0,0,1-.793-.793.792.792,0,0,1,.793-.793h4.758a.792.792,0,0,1,.793.793A.793.793,0,0,1,555.84-230.219Zm-9.517,0h-4.758a.793.793,0,0,1-.793-.793.792.792,0,0,1,.793-.793h4.758a.792.792,0,0,1,.793.793A.793.793,0,0,1,546.323-230.219Zm-9.517,0h-4.758a.793.793,0,0,1-.793-.793.792.792,0,0,1,.793-.793h4.758a.792.792,0,0,1,.793.793A.793.793,0,0,1,536.807-230.219Zm-9.517,0h-4.758a.793.793,0,0,1-.793-.793.792.792,0,0,1,.793-.793h4.758a.792.792,0,0,1,.793.793A.793.793,0,0,1,527.29-230.219Zm-9.517,0h-4.758a.793.793,0,0,1-.793-.793.792.792,0,0,1,.793-.793h4.758a.792.792,0,0,1,.793.793A.793.793,0,0,1,517.773-230.219Zm-9.516,0H503.5a.793.793,0,0,1-.793-.793.792.792,0,0,1,.793-.793h4.759a.792.792,0,0,1,.793.793A.793.793,0,0,1,508.257-230.219Zm-9.517,0h0a3.576,3.576,0,0,1-3.571-3.572v-.39a.793.793,0,0,1,.793-.793.792.792,0,0,1,.793.793v.39a1.988,1.988,0,0,0,1.985,1.986.794.794,0,0,1,.8.793A.792.792,0,0,1,498.74-230.219Zm88.429-3.2a.793.793,0,0,1-.793-.793v-4.758a.793.793,0,0,1,.793-.793.793.793,0,0,1,.793.793v4.758A.793.793,0,0,1,587.169-233.422Zm-91.21-4.725a.793.793,0,0,1-.793-.793V-243.7a.793.793,0,0,1,.793-.793.792.792,0,0,1,.793.793v4.758A.792.792,0,0,1,495.959-238.146Zm91.21-4.792a.793.793,0,0,1-.793-.793v-4.758a.793.793,0,0,1,.793-.793.793.793,0,0,1,.793.793v4.758A.793.793,0,0,1,587.169-242.938Zm-91.21-4.725a.793.793,0,0,1-.793-.793v-4.758a.793.793,0,0,1,.793-.793.792.792,0,0,1,.793.793v4.758A.792.792,0,0,1,495.959-247.663Zm91.21-4.792a.793.793,0,0,1-.793-.793v-4.758a.793.793,0,0,1,.793-.793.793.793,0,0,1,.793.793v4.758A.793.793,0,0,1,587.169-252.455Zm-91.21-4.725a.793.793,0,0,1-.793-.793v-4.758a.793.793,0,0,1,.793-.793.792.792,0,0,1,.793.793v4.758A.792.792,0,0,1,495.959-257.18Zm91.21-4.792a.793.793,0,0,1-.793-.793v-4.758a.793.793,0,0,1,.793-.793.793.793,0,0,1,.793.793v4.758A.793.793,0,0,1,587.169-261.972Zm-91.21-4.725a.793.793,0,0,1-.793-.793v-4.758a.793.793,0,0,1,.793-.793.792.792,0,0,1,.793.793v4.758A.792.792,0,0,1,495.959-266.7Zm91.21-4.792a.793.793,0,0,1-.793-.793v-4.758a.793.793,0,0,1,.793-.793.793.793,0,0,1,.793.793v4.758A.793.793,0,0,1,587.169-271.489Zm-91.21-4.724a.792.792,0,0,1-.793-.793v-4.759a.793.793,0,0,1,.793-.793.792.792,0,0,1,.793.793v4.759A.792.792,0,0,1,495.959-276.213Zm91.21-4.793a.793.793,0,0,1-.793-.793v-4.758a.793.793,0,0,1,.793-.793.793.793,0,0,1,.793.793v4.758A.793.793,0,0,1,587.169-281.005Zm-91.21-4.724a.792.792,0,0,1-.793-.793v-4.759a.793.793,0,0,1,.793-.793.792.792,0,0,1,.793.793v4.759A.792.792,0,0,1,495.959-285.73Zm91.21-4.793a.793.793,0,0,1-.793-.793v-4.758a.793.793,0,0,1,.793-.793.793.793,0,0,1,.793.793v4.758A.793.793,0,0,1,587.169-290.522Zm-91.21-4.724a.792.792,0,0,1-.793-.793V-300.8a.793.793,0,0,1,.793-.793.792.792,0,0,1,.793.793v4.759A.792.792,0,0,1,495.959-295.246Zm91.21-4.793a.793.793,0,0,1-.793-.793v-4.758a.793.793,0,0,1,.793-.793.793.793,0,0,1,.793.793v4.758A.793.793,0,0,1,587.169-300.039Zm-91.21-4.724a.792.792,0,0,1-.793-.793v-4.759a.793.793,0,0,1,.793-.793.792.792,0,0,1,.793.793v4.759A.792.792,0,0,1,495.959-304.763Zm91.21-4.792a.793.793,0,0,1-.793-.793v-4.759a.793.793,0,0,1,.793-.793.793.793,0,0,1,.793.793v4.759A.793.793,0,0,1,587.169-309.555Zm-91.21-4.725a.792.792,0,0,1-.793-.793v-4.759a.793.793,0,0,1,.793-.793.792.792,0,0,1,.793.793v4.759A.792.792,0,0,1,495.959-314.28Zm91.21-4.792a.793.793,0,0,1-.793-.793v-4.759a.793.793,0,0,1,.793-.793.793.793,0,0,1,.793.793v4.759A.793.793,0,0,1,587.169-319.072Zm-91.21-4.725a.792.792,0,0,1-.793-.793v-4.759a.793.793,0,0,1,.793-.793.792.792,0,0,1,.793.793v4.759A.792.792,0,0,1,495.959-323.8Zm91.21-4.792a.793.793,0,0,1-.793-.793v-4.759a.793.793,0,0,1,.793-.793.793.793,0,0,1,.793.793v4.759A.793.793,0,0,1,587.169-328.589Zm-91.21-4.725a.792.792,0,0,1-.793-.793v-4.759a.793.793,0,0,1,.793-.793.792.792,0,0,1,.793.793v4.759A.792.792,0,0,1,495.959-333.313Zm91.21-4.792a.793.793,0,0,1-.793-.793v-4.759a.793.793,0,0,1,.793-.793.793.793,0,0,1,.793.793v4.759A.793.793,0,0,1,587.169-338.105Zm-91.21-4.725a.792.792,0,0,1-.793-.793v-4.759a.793.793,0,0,1,.793-.793.792.792,0,0,1,.793.793v4.759A.792.792,0,0,1,495.959-342.83Zm91.21-4.792a.793.793,0,0,1-.793-.793v-4.759a.793.793,0,0,1,.793-.793.793.793,0,0,1,.793.793v4.759A.793.793,0,0,1,587.169-347.622Zm-91.21-4.725a.792.792,0,0,1-.793-.793v-.408a3.581,3.581,0,0,1,3.552-3.572h0a.793.793,0,0,1,.793.788.794.794,0,0,1-.789.8,1.992,1.992,0,0,0-1.974,1.986v.408A.792.792,0,0,1,495.959-352.347Zm88.413-3.186h-4.758a.793.793,0,0,1-.793-.793.793.793,0,0,1,.793-.793h4.758a.793.793,0,0,1,.793.793A.792.792,0,0,1,584.372-355.533Zm-9.517,0H570.1a.793.793,0,0,1-.793-.793.793.793,0,0,1,.793-.793h4.758a.793.793,0,0,1,.793.793A.792.792,0,0,1,574.855-355.533Zm-9.517,0h-4.758a.793.793,0,0,1-.793-.793.793.793,0,0,1,.793-.793h4.758a.793.793,0,0,1,.793.793A.792.792,0,0,1,565.339-355.533Zm-9.517,0h-4.758a.793.793,0,0,1-.793-.793.793.793,0,0,1,.793-.793h4.758a.793.793,0,0,1,.793.793A.793.793,0,0,1,555.822-355.533Zm-9.517,0h-4.758a.793.793,0,0,1-.793-.793.793.793,0,0,1,.793-.793h4.758a.792.792,0,0,1,.793.793A.792.792,0,0,1,546.305-355.533Zm-9.515,0H532.03a.793.793,0,0,1-.793-.793.793.793,0,0,1,.793-.793h4.759a.793.793,0,0,1,.793.793A.793.793,0,0,1,536.79-355.533Zm-9.517,0h-4.759a.793.793,0,0,1-.793-.793.793.793,0,0,1,.793-.793h4.759a.793.793,0,0,1,.793.793A.793.793,0,0,1,527.273-355.533Zm-9.517,0H513a.793.793,0,0,1-.793-.793.793.793,0,0,1,.793-.793h4.759a.793.793,0,0,1,.793.793A.793.793,0,0,1,517.756-355.533Zm-9.517,0H503.48a.793.793,0,0,1-.793-.793.793.793,0,0,1,.793-.793h4.759a.793.793,0,0,1,.793.793A.793.793,0,0,1,508.239-355.533Z" transform="translate(-22.376 -34.33)"/><rect class="b" width="91.21" height="125.314" rx="3.503" transform="translate(510.589 -419.081)"/><g transform="translate(490.761 -404.011)"><path class="c" d="M590.168-375.666H524.477a2.778,2.778,0,0,0-2.778,2.778V-253.13a2.778,2.778,0,0,0,2.778,2.778H610.13a2.778,2.778,0,0,0,2.779-2.778V-353.273Z" transform="translate(-521.699 375.666)"/><g transform="translate(68.469)"><path class="a" d="M646.72-333.553,626.476-342.6H646.72Z" transform="translate(-623.98 364.997)"/><path class="d" d="M645.53-353.273H625.568a2.778,2.778,0,0,1-2.778-2.779v-19.614" transform="translate(-622.79 375.666)"/></g></g><g transform="translate(489.447 -405.049)"><path class="b" d="M550.974-239.683q21.623-.689,43.246-.924c7.208-.11,14.415-.134,21.623-.2l2.7-.017c1.056.009,1.428.02,1.886-.339a1.584,1.584,0,0,0,.492-.612,1.609,1.609,0,0,0,.122-.373,1.733,1.733,0,0,0,.024-.2c0-.063.009-.124.006-.255l-.007-2.7-.028-10.812.062-21.623c.066-7.208.087-14.415.2-21.623q.233-21.623.928-43.246.694,21.623.928,43.246c.111,7.208.132,14.415.2,21.623l.062,21.623-.028,10.812-.007,2.7c0,.095,0,.258-.014.421a4.182,4.182,0,0,1-.062.473,3.949,3.949,0,0,1-.3.906,3.889,3.889,0,0,1-1.192,1.466,3.852,3.852,0,0,1-1.74.74,11.224,11.224,0,0,1-1.531.049l-2.7-.017c-7.208-.064-14.415-.089-21.623-.2Q572.6-238.993,550.974-239.683Z" transform="translate(-529.831 366.035)"/><path class="b" d="M589.416-376.16c-8.806.268-17.613.383-26.419.58l-26.419.331L523.5-375.1a1.733,1.733,0,0,0-1.437,1.291,1.893,1.893,0,0,0-.052.552l0,.826.011,1.651.042,6.605.066,26.418c-.027,17.613-.058,35.225-.274,52.838L521.53-258.5l-.067,3.3-.03,1.638a2.3,2.3,0,0,0,.4,1.292,2.323,2.323,0,0,0,1.072.859,3.844,3.844,0,0,0,1.485.184l3.3.067q6.6.118,13.209.315-6.6.193-13.209.316l-3.3.067c-.285,0-.528.02-.848.008a3.015,3.015,0,0,1-.927-.177,3.2,3.2,0,0,1-1.512-1.116,3.234,3.234,0,0,1-.634-1.791l-.037-1.663-.067-3.3-.332-26.419c-.215-17.613-.247-35.225-.274-52.838l.066-26.418.041-6.605.011-1.651.005-.826c0-.113.01-.345.024-.522a4.042,4.042,0,0,1,.106-.561,3.839,3.839,0,0,1,3.227-2.822,4.789,4.789,0,0,1,.543-.031l.412,0,.826.005,1.651.01,3.3.027,6.6.081L563-376.74C571.8-376.544,580.61-376.429,589.416-376.16Z" transform="translate(-519.758 377.198)"/></g><path class="b" d="M726.306-294.894a2.614,2.614,0,0,1-2.61-2.61,2.613,2.613,0,0,1,2.61-2.61,2.612,2.612,0,0,1,2.61,2.61A2.613,2.613,0,0,1,726.306-294.894Zm0-4.427a1.819,1.819,0,0,0-1.817,1.817,1.819,1.819,0,0,0,1.817,1.817,1.819,1.819,0,0,0,1.817-1.817A1.818,1.818,0,0,0,726.306-299.321Z" transform="translate(-96.122 -52.726)"/><g transform="translate(568.88 -256.764)"><path class="b" d="M641.231-152.325a.4.4,0,0,1-.4-.4v-5.145a.4.4,0,0,1,.4-.4.4.4,0,0,1,.4.4v5.145A.4.4,0,0,1,641.231-152.325Z" transform="translate(-638.263 158.263)"/><path class="b" d="M642.579-153.673h-5.145a.4.4,0,0,1-.4-.4.4.4,0,0,1,.4-.4h5.145a.4.4,0,0,1,.4.4A.4.4,0,0,1,642.579-153.673Z" transform="translate(-637.037 157.038)"/></g><g transform="translate(613.992 -367.441)"><path class="b" d="M707.837-315.733a.4.4,0,0,1-.4-.4v-5.145a.4.4,0,0,1,.4-.4.4.4,0,0,1,.4.4v5.145A.4.4,0,0,1,707.837-315.733Z" transform="translate(-704.868 321.672)"/><path class="b" d="M709.184-317.08h-5.145a.4.4,0,0,1-.4-.4.4.4,0,0,1,.4-.4h5.145a.4.4,0,0,1,.4.4A.4.4,0,0,1,709.184-317.08Z" transform="translate(-703.642 320.446)"/></g><g transform="translate(513.172 -430.749)"><path class="b" d="M558.982-409.205a.4.4,0,0,1-.4-.4v-5.145a.4.4,0,0,1,.4-.4.4.4,0,0,1,.4.4v5.145A.4.4,0,0,1,558.982-409.205Z" transform="translate(-556.013 415.143)"/><path class="b" d="M560.329-410.552h-5.145a.4.4,0,0,1-.4-.4.4.4,0,0,1,.4-.4h5.145a.4.4,0,0,1,.4.4A.4.4,0,0,1,560.329-410.552Z" transform="translate(-554.787 413.917)"/></g><g transform="translate(454.912 -330.445)"><path class="b" d="M471.8-262.7a.4.4,0,0,1-.4-.4v-3.56a.4.4,0,0,1,.4-.4.4.4,0,0,1,.4.4v3.56A.4.4,0,0,1,471.8-262.7Z" transform="translate(-469.618 267.049)"/><path class="b" d="M472.727-263.627h-3.561a.4.4,0,0,1-.4-.4.4.4,0,0,1,.4-.4h3.561a.4.4,0,0,1,.4.4A.4.4,0,0,1,472.727-263.627Z" transform="translate(-468.77 266.201)"/></g><path class="b" d="M452.122-243.294a2.768,2.768,0,0,1-2.765-2.765,2.768,2.768,0,0,1,2.765-2.765,2.768,2.768,0,0,1,2.765,2.765A2.768,2.768,0,0,1,452.122-243.294Zm0-4.658a1.9,1.9,0,0,0-1.893,1.893,1.9,1.9,0,0,0,1.893,1.893,1.9,1.9,0,0,0,1.893-1.893A1.9,1.9,0,0,0,452.122-247.951Z" transform="translate(-7.593 -69.277)"/><g transform="translate(475.411 -419.874)"><path class="b" d="M507.864-385.379l-4.689-3.355q-1.367-.983-1.939-1.442a2.479,2.479,0,0,1-.941-1.313,1.381,1.381,0,0,1,.28-1.242,1.122,1.122,0,0,1,1.277-.448,5.7,5.7,0,0,1,1.789,1.065q.619.5,1.212,1.063l4.35,4.044a5.441,5.441,0,0,1,1.078,1.249.787.787,0,0,1-.035.946.755.755,0,0,1-.9.242A6.4,6.4,0,0,1,507.864-385.379Z" transform="translate(-499.428 397.198)"/><path class="b" d="M514.973-390.919l-1.564-4.315q-.454-1.262-.622-1.821a1.971,1.971,0,0,1-.026-1.286,1.1,1.1,0,0,1,.744-.688.892.892,0,0,1,1.04.282,4.551,4.551,0,0,1,.694,1.5q.182.6.316,1.244l1.031,4.614a4.338,4.338,0,0,1,.143,1.306.625.625,0,0,1-.45.6.6.6,0,0,1-.7-.245A5.093,5.093,0,0,1,514.973-390.919Z" transform="translate(-503.434 399.087)"/><path class="b" d="M505.094-376.975l-3.343.452q-.977.13-1.4.164a1.453,1.453,0,0,1-.928-.182.808.808,0,0,1-.379-.641.656.656,0,0,1,.364-.7,3.352,3.352,0,0,1,1.189-.263q.462-.037.943-.034l3.476-.022a3.162,3.162,0,0,1,.96.1.459.459,0,0,1,.364.417.441.441,0,0,1-.284.463A3.753,3.753,0,0,1,505.094-376.975Z" transform="translate(-499.036 392.349)"/></g><g transform="translate(517.331 -366.6)"><g transform="translate(0)"><circle class="b" cx="2.713" cy="2.713" r="2.713" transform="translate(32.644)"/><circle class="b" cx="2.713" cy="2.713" r="2.713"/></g><path class="b" d="M592.264-306.588a1.081,1.081,0,0,0-.662-.508c-6.273-1.683-11.471,2.429-11.689,2.606a1.09,1.09,0,0,0-.167,1.531,1.084,1.084,0,0,0,.851.408,1.094,1.094,0,0,0,.68-.238c.045-.036,4.609-3.581,9.76-2.2a1.076,1.076,0,0,0,.828-.109,1.084,1.084,0,0,0,.508-.662A1.079,1.079,0,0,0,592.264-306.588Z" transform="translate(-566.923 316.257)"/></g><g transform="translate(554.86 -320.431)"><path class="a" d="M643.095-252.264a26.758,26.758,0,0,0-26.757,26.758,26.758,26.758,0,0,0,26.757,26.758,26.757,26.757,0,0,0,26.758-26.758A26.758,26.758,0,0,0,643.095-252.264Zm0,49.521a22.764,22.764,0,0,1-22.763-22.763,22.764,22.764,0,0,1,22.763-22.763,22.764,22.764,0,0,1,22.764,22.763A22.763,22.763,0,0,1,643.095-202.743Z" transform="translate(-616.337 252.264)"/><circle class="e" cx="22.764" cy="22.764" r="22.764" transform="translate(3.994 3.994)"/><path class="b" d="M655.2-223.175h23.2a23.49,23.49,0,0,0-6.543-16.488c-6.052-6.044-16.364-5.353-16.364-5.353Z" transform="translate(-628.877 249.933)"/><g transform="translate(4.987 4.814)"><path class="c" d="M628.823-207.876h21.563v-37.178s-24.98-2.768-26.619,20.522C623.023-213.973,628.823-207.876,628.823-207.876Z" transform="translate(-623.701 245.156)"/><path class="b" d="M630.776-207.876c5.694.062,10.435.729,16.129.78l2.7.017a11.223,11.223,0,0,0,1.531-.049,3.851,3.851,0,0,0,1.74-.74,3.876,3.876,0,0,0,1.192-1.466,3.95,3.95,0,0,0,.3-.907,4,4,0,0,0,.062-.473c.01-.163.016-.326.014-.421l.007-2.7.028-10.812-.059-20.358-2.26-.149-.06,20.507.028,10.812.007,2.7c0,.131,0,.192-.006.255a1.745,1.745,0,0,1-.023.2,1.675,1.675,0,0,1-.122.373,1.592,1.592,0,0,1-.492.612c-.458.358-.83.347-1.886.339l-2.7.017c-5.878.053-11.273.079-17.151.146" transform="translate(-625.654 245.156)"/></g><g transform="translate(1.906 2.075)"><g transform="translate(38.112 40.373)"><path class="d" d="M710.248-156.893,685.779-184.54l-.785.694-4.148-4.688-4.366,3.863,4.149,4.688-.977.864,24.468,27.647a4.091,4.091,0,0,0,5.775.352A4.091,4.091,0,0,0,710.248-156.893Z" transform="translate(-675.763 189.25)"/><path class="d" d="M706.845-149.927a4.587,4.587,0,0,1-3.446-1.549l-24.8-28.027.976-.864-4.148-4.688,5.126-4.537L684.7-184.9l.784-.694,24.8,28.027a4.6,4.6,0,0,1-.4,6.491A4.582,4.582,0,0,1,706.845-149.927Zm-26.817-29.488,24.132,27.266a3.586,3.586,0,0,0,5.057.309,3.587,3.587,0,0,0,.309-5.057l-24.132-27.266-.784.694-4.149-4.687-3.6,3.189,4.149,4.688Z" transform="translate(-675.422 189.592)"/></g><path class="b" d="M0,0H3.866a0,0,0,0,1,0,0V31.827A1.933,1.933,0,0,1,1.933,33.76h0A1.933,1.933,0,0,1,0,31.827V0A0,0,0,0,1,0,0Z" transform="matrix(0.749, -0.663, 0.663, 0.749, 45.11, 50.762)"/><path class="d" d="M644.135-249.2a24.984,24.984,0,0,0-24.984,24.984,24.984,24.984,0,0,0,24.984,24.984,24.984,24.984,0,0,0,24.984-24.984A24.984,24.984,0,0,0,644.135-249.2Zm0,44.812a19.828,19.828,0,0,1-19.828-19.829,19.828,19.828,0,0,1,19.828-19.828,19.828,19.828,0,0,1,19.828,19.828A19.828,19.828,0,0,1,644.135-204.388Z" transform="translate(-619.151 249.2)"/><g class="f" transform="translate(5.155 5.083)"><circle class="g" cx="19.828" cy="19.828" r="19.828"/><path class="h" d="M652.855-199.385l16.809-32.34a17.044,17.044,0,0,0-1.443-1.579l-17.489,33.648S652.039-199.428,652.855-199.385Z" transform="translate(-634.497 238.988)"/><path class="h" d="M664.219-199.181,675.9-221.646a19.554,19.554,0,0,0-2.6-6.379L657.5-197.652A18.963,18.963,0,0,0,664.219-199.181Z" transform="translate(-636.682 237.284)"/></g></g></g></g></svg>