<svg xmlns="http://www.w3.org/2000/svg" width="16" height="16" viewBox="0 0 16 16"><defs><style>.a,.b{fill:rgba(17,19,23,0.65);}.a{opacity:0;}</style></defs><g transform="translate(0 0)"><rect class="a" width="16" height="16"/><path class="b" d="M13.333,4H4A2,2,0,0,0,2,6v6.667a2,2,0,0,0,2,2h9.333a2,2,0,0,0,2-2V6A2,2,0,0,0,13.333,4Zm-.447,1.333L8.667,8.5,4.447,5.333Zm.447,8H4a.667.667,0,0,1-.667-.667v-6.5l4.933,3.7a.667.667,0,0,0,.8,0L14,6.167v6.5A.667.667,0,0,1,13.333,13.333Z" transform="translate(-0.667 -1.333)"/></g></svg>