<svg xmlns="http://www.w3.org/2000/svg" width="24" height="24" viewBox="0 0 24 24"><defs><style>.a,.b{fill:rgba(17,19,23,0.65);}.a{opacity:0;}</style></defs><rect class="a" width="24" height="24" transform="translate(24 24) rotate(180)"/><rect class="a" width="24" height="24" transform="translate(24 24) rotate(180)"/><path class="b" d="M13,22H9a1,1,0,0,1-1-1V14.8H6a1,1,0,0,1-1-1V10.2a1,1,0,0,1,1-1H8V7.5A5.77,5.77,0,0,1,14,2h3a1,1,0,0,1,1,1V6.6a1,1,0,0,1-1,1H14V9.2h3a.988.988,0,0,1,.96,1.27l-1,3.6a1,1,0,0,1-1,.73H14V21A1,1,0,0,1,13,22Zm-3-2h2V13.8a1,1,0,0,1,1-1h2.24l.44-1.6H13a1,1,0,0,1-1-1V7.5a2,2,0,0,1,2-1.9h2V4H14a3.78,3.78,0,0,0-4,3.5v2.7a1,1,0,0,1-1,1H7v1.6H9a1,1,0,0,1,1,1Z"/></svg>