<svg xmlns="http://www.w3.org/2000/svg" width="24" height="24" viewBox="0 0 24 24"><defs><style>.a,.b{fill:rgba(17,19,23,0.65);}.b{opacity:0;}</style></defs><g transform="translate(-390 -340)"><path class="a" d="M7.22,2h7.56A5.224,5.224,0,0,1,20,7.22v7.56A5.22,5.22,0,0,1,14.78,20H7.22A5.224,5.224,0,0,1,2,14.78V7.22A5.22,5.22,0,0,1,7.22,2M7.04,3.8A3.24,3.24,0,0,0,3.8,7.04v7.92A3.238,3.238,0,0,0,7.04,18.2h7.92a3.24,3.24,0,0,0,3.24-3.24V7.04A3.238,3.238,0,0,0,14.96,3.8H7.04m8.685,1.35A1.125,1.125,0,1,1,14.6,6.275,1.125,1.125,0,0,1,15.725,5.15M11,6.5A4.5,4.5,0,1,1,6.5,11,4.5,4.5,0,0,1,11,6.5m0,1.8A2.7,2.7,0,1,0,13.7,11,2.7,2.7,0,0,0,11,8.3Z" transform="translate(391 341)"/><rect class="b" width="24" height="24" transform="translate(390 340)"/></g></svg>