<svg xmlns="http://www.w3.org/2000/svg" width="16" height="16" viewBox="0 0 16 16"><defs><style>.a,.b{fill:rgba(17,19,23,0.65);}.a{opacity:0;}</style></defs><g transform="translate(0)"><rect class="a" width="16" height="16"/><path class="b" d="M12.267,15.333A10.28,10.28,0,0,1,2,5.067,3.067,3.067,0,0,1,5.067,2a2.627,2.627,0,0,1,.513.047,2.527,2.527,0,0,1,.48.12.667.667,0,0,1,.433.5l.913,4a.667.667,0,0,1-.173.613c-.087.093-.093.1-.913.527a6.607,6.607,0,0,0,3.247,3.26c.433-.827.44-.833.533-.92a.667.667,0,0,1,.613-.173l4,.913a.667.667,0,0,1,.48.433,2.893,2.893,0,0,1,.127.487,3.18,3.18,0,0,1,.04.507A3.067,3.067,0,0,1,12.267,15.333Zm-7.2-12A1.74,1.74,0,0,0,3.333,5.067,8.94,8.94,0,0,0,12.267,14,1.74,1.74,0,0,0,14,12.267v-.22l-3.093-.713-.193.367c-.3.58-.52,1-1.08.773A7.9,7.9,0,0,1,4.847,7.667c-.24-.52.213-.76.787-1.06L6,6.427,5.287,3.333Z" transform="translate(-0.667 -0.667)"/></g></svg>