<svg xmlns="http://www.w3.org/2000/svg" width="16" height="16" viewBox="0 0 16 16"><defs><style>.a,.b{fill:rgba(17,19,23,0.65);}.a{opacity:0;}</style></defs><g transform="translate(-354 -339)"><rect class="a" width="16" height="16" transform="translate(354 339)"/><path class="b" d="M9.587-12.226c.163.085.267.13.3.195a1.279,1.279,0,0,1-.136.767,1.583,1.583,0,0,1-1.105.728c-.3.013-.305.234-1.924-.474a6.655,6.655,0,0,1-2.671-2.548,3.15,3.15,0,0,1-.6-1.7,1.772,1.772,0,0,1,.618-1.326.485.485,0,0,1,.442-.169h.305c.1,0,.234-.039.358.292l.448,1.215a.3.3,0,0,1,.006.286l-.175.266-.254.273c-.078.078-.169.163-.078.325a4.824,4.824,0,0,0,.858,1.157,4.3,4.3,0,0,0,1.268.845c.156.091.253.078.351-.026l.527-.611c.123-.163.227-.124.377-.072l1.085.572ZM11.1-18.1A6.5,6.5,0,0,1,13-13.5,6.5,6.5,0,0,1,6.5-7,6.48,6.48,0,0,1,3.023-8.007l-1.789.6a.65.65,0,0,1-.822-.411.65.65,0,0,1,0-.411l.6-1.789A6.48,6.48,0,0,1,0-13.5,6.5,6.5,0,0,1,6.5-20,6.5,6.5,0,0,1,11.1-18.1Zm-4.6-.6a5.2,5.2,0,0,0-5.2,5.2,5.168,5.168,0,0,0,.949,3L1.625-8.625,3.5-9.249a5.168,5.168,0,0,0,3,.949,5.2,5.2,0,0,0,5.2-5.2A5.2,5.2,0,0,0,6.5-18.7Z" transform="translate(356 361)"/></g></svg>