<svg xmlns="http://www.w3.org/2000/svg" width="24" height="24" viewBox="0 0 24 24"><defs><style>.a{fill:none;stroke:rgba(17,19,23,0.65);}.b{fill:rgba(17,19,23,0.65);opacity:0;}</style></defs><g transform="translate(2 40.5)"><g transform="translate(0.546 -35.261)"><path class="a" d="M15.1,0a3.686,3.686,0,0,1,3.748,3.612v6.08A3.686,3.686,0,0,1,15.1,13.3H3.748A3.686,3.686,0,0,1,0,9.693V3.612A3.686,3.686,0,0,1,3.748,0Zm2.979,9.693V3.612A2.931,2.931,0,0,0,15.1.739H3.748A2.931,2.931,0,0,0,.769,3.612V9.693a2.931,2.931,0,0,0,2.979,2.873H15.1A2.931,2.931,0,0,0,18.079,9.693Z"/></g><g transform="translate(8.307 -31.934)"><path class="a" d="M5.1,2.742a.332.332,0,0,1,0,.574L.5,6.011A.332.332,0,0,1,0,5.724V.332A.332.332,0,0,1,.5.045ZM.664,5.144,4.278,3.028.664.912Z" transform="translate(0 0)"/></g><rect class="b" width="24" height="24" transform="translate(-2 -40.5)"/></g></svg>