<svg xmlns="http://www.w3.org/2000/svg" width="104.398" height="20" viewBox="0 0 104.398 20"><defs><style>.a{fill:#fff;}</style></defs><g transform="translate(0 0)"><path class="a" d="M104.2,17.456l-4.081-7.3,4.081-7.3a1.709,1.709,0,0,0-.021-1.7,1.731,1.731,0,0,0-1.485-.844H97.132a1.729,1.729,0,0,0-1.492.856l-.28.483L95.1,1.194A1.725,1.725,0,0,0,93.6.314H82.28a1.719,1.719,0,0,0-1.722,1.712V12.914a1.737,1.737,0,0,0-.269-.021H77.9V1.712A1.719,1.719,0,0,0,76.175,0h-3.7a1.721,1.721,0,0,0-1.154.442A1.722,1.722,0,0,0,70.163,0H62.345a1.719,1.719,0,0,0-1.722,1.712V18.287A1.719,1.719,0,0,0,62.345,20h3.7a1.719,1.719,0,0,0,1.722-1.712V13.709H69.53a1.722,1.722,0,0,0,1.218-.5v5.081A1.719,1.719,0,0,0,72.47,20h7.817a1.721,1.721,0,0,0,1-.316,1.721,1.721,0,0,0,1,.316H93.6a1.725,1.725,0,0,0,1.505-.88l.257-.459.28.483A1.729,1.729,0,0,0,97.132,20h5.558a1.731,1.731,0,0,0,1.485-.844A1.71,1.71,0,0,0,104.2,17.456ZM70.109,4.937a.447.447,0,0,1-.447.447H66V8.231h3.034a.447.447,0,0,1,.447.447v2.9a.447.447,0,0,1-.447.447H66V17.91a.447.447,0,0,1-.447.447h-2.9a.447.447,0,0,1-.447-.447V2.033a.447.447,0,0,1,.447-.447h7.017a.447.447,0,0,1,.447.447ZM80.234,17.91a.447.447,0,0,1-.447.447H72.77a.447.447,0,0,1-.447-.447V2.033a.447.447,0,0,1,.447-.447h2.9a.447.447,0,0,1,.447.447V14.56h3.666a.447.447,0,0,1,.447.447Zm21.674.447H97.262a.447.447,0,0,1-.387-.224l-1.644-2.849-1.58,2.843a.447.447,0,0,1-.391.23H82.579a.447.447,0,0,1-.447-.447V2.35a.447.447,0,0,1,.447-.447H93.26a.447.447,0,0,1,.391.23l1.58,2.843,1.644-2.849a.447.447,0,0,1,.387-.223h4.646a.447.447,0,0,1,.391.664L98.1,10.13l4.2,7.563A.447.447,0,0,1,101.908,18.357ZM87.828,3.42a.553.553,0,0,0-.963.371V16.543a.553.553,0,0,0,.987.343l5.023-6.345a1.241,1.241,0,0,0-.053-1.6ZM56.246,11.258a8.01,8.01,0,0,0,.1-8.659A5.462,5.462,0,0,0,51.614.335h-4.2a.447.447,0,0,0-.447.447V17.1L42.6.667a.447.447,0,0,0-.432-.332h-2.9L39.3.461a.446.446,0,0,0-.121.206l-4.353,16.27L34.808.782a.447.447,0,0,0-.447-.447H31.688a.447.447,0,0,0-.447.448l.02,9.682L23.871.186A.447.447,0,0,0,23.508,0h-.329a.447.447,0,0,0-.447.447v16.7L18.35.667a.447.447,0,0,0-.432-.332H15.364a.447.447,0,0,0-.432.331L11.28,14.319A4.983,4.983,0,0,0,9.8,10.4,12.072,12.072,0,0,0,6.616,8.316,8.8,8.8,0,0,1,4.421,6.984a1.978,1.978,0,0,1-.684-1.733C3.9,4.261,4.878,3.8,5.86,3.575A6.774,6.774,0,0,1,8.9,3.863a.447.447,0,0,0,.565-.277c.218-.635.6-1.758.818-2.377a.447.447,0,0,0-.3-.575C7.717-.026,5.161-.385,2.99.741a5.991,5.991,0,0,0-2.6,4.212c-.449,3.259,1.939,5.058,4.546,6.389A9.266,9.266,0,0,1,7.2,12.758a2.069,2.069,0,0,1,.176,2.522A2.879,2.879,0,0,1,4.824,16.37,7.666,7.666,0,0,1,1.9,15.732a.447.447,0,0,0-.564.192L.07,18.172a.447.447,0,0,0,.2.624A11.088,11.088,0,0,0,4.9,20H4.94a6.751,6.751,0,0,0,4.185-1.436,5.746,5.746,0,0,0,1.507-1.821L10,19.1a.447.447,0,0,0,.431.562h2.456a.447.447,0,0,0,.432-.334l.941-3.606H18.99l.973,3.605a.447.447,0,0,0,.433.334h5.243a.447.447,0,0,0,.447-.447l-.009-9.274,6.867,9.535a.447.447,0,0,0,.363.186h3.829a.447.447,0,0,0,.432-.334l.941-3.606h4.728l.973,3.605a.447.447,0,0,0,.433.334h5.233a.447.447,0,0,0,.447-.447V13.49c.244.019.489.029.733.029s.493-.01.732-.03q.218-.018.435-.049l1.541,5.89a.447.447,0,0,0,.432.334h2.76a.447.447,0,0,0,.432-.562L55.5,12.046A4.985,4.985,0,0,0,56.246,11.258ZM15.132,12.389l1.454-5.574,1.5,5.574Zm24.246,0,1.454-5.574,1.5,5.574ZM53.089,8.837c-.841.822-2.771.473-2.771.473V4.322s2.023-.257,2.771.405A2.872,2.872,0,0,1,53.089,8.837Z" transform="translate(-0.013 0)"/></g></svg>